<svg xmlns="http://www.w3.org/2000/svg" viewBox="0 0 1200 280" width="1200" height="280">
<rect width="1200" height="280" fill="#FAF5EC"/>
<g transform="translate(760 0)">
  <path d="M0 630 L0 230 L90 150 L190 215 L300 130 L400 205 L440 170 L440 630 Z" fill="#DCE4F0" opacity="1.0"/>
  <path d="M60 660 L60 260 L170 180 L280 250 L390 170 L440 220 L440 660 Z" fill="#214B89" opacity="1.0"/>
  <path d="M160 680 L160 280 L280 215 L400 270 L440 250 L440 680 Z" fill="#16345E" opacity="1.0"/>
</g>
<circle cx="880" cy="84" r="26" fill="#E8A23D"/><g stroke="#E8A23D" stroke-width="5.2" stroke-linecap="round" opacity="0.75"><path d="M880 32 v12"/><path d="M918.4 45.6 l-8.399999999999999 8.399999999999999"/><path d="M841.6 45.6 l8.399999999999999 8.399999999999999"/></g>
<path transform="translate(1130 240) scale(0.9)" fill="#E8A23D" d="M-15 2 L-9 -12 L4 -14 L15 -6 L13 8 L2 13 L-10 10 Z"/><path transform="translate(1130 240) scale(0.9)" d="M-6 -6 L2 -8" stroke="#FFF" stroke-width="3" stroke-linecap="round" opacity="0.75"/>
<g transform="translate(23.7 41.5) scale(1.35)">
<circle cx="60" cy="11" r="7" fill="#E8A23D"/>
<path d="M25 66 A35 35 0 0 1 95 66" fill="none" stroke="#214B89" stroke-width="14" stroke-linecap="round"/>
<rect x="38" y="78" width="44" height="10" rx="5" fill="#12948C"/>
<rect x="31" y="93" width="58" height="10" rx="5" fill="#12948C"/>
<rect x="24" y="108" width="72" height="10" rx="5" fill="#12948C"/>
</g><g transform="translate(187.4 190) scale(1.0)"><path d="M24.5 15.8Q15.600000000000001 15.8 10.4 14.4Q5.2 13.0 3.0 10.55Q0.8 8.1 0.8 4.9Q0.8 0.5 4.300000000000001 -2.1500000000000004Q7.800000000000001 -4.800000000000001 14.5 -5.800000000000001V-6.300000000000001Q9.4 -6.300000000000001 6.5 -8.05Q3.6 -9.8 3.6 -12.9Q3.6 -15.8 6.25 -18.1Q8.9 -20.400000000000002 14.9 -20.400000000000002V-21.1Q9.5 -22.400000000000002 6.3 -26.1Q3.1 -29.8 3.1 -35.7Q3.1 -40.900000000000006 5.75 -44.7Q8.4 -48.5 13.5 -50.650000000000006Q18.6 -52.800000000000004 25.900000000000002 -52.800000000000004H52.2V-40.400000000000006L34.1 -42.7V-41.900000000000006Q42.400000000000006 -40.800000000000004 45.35000000000001 -38.150000000000006Q48.300000000000004 -35.5 48.300000000000004 -31.8Q48.300000000000004 -28.1 46.050000000000004 -25.200000000000003Q43.800000000000004 -22.3 39.1 -20.65Q34.4 -19.0 27.200000000000003 -19.0Q25.0 -19.0 22.75 -19.200000000000003Q20.5 -19.400000000000002 18.900000000000002 -19.8Q17.2 -19.1 16.25 -18.35Q15.3 -17.6 15.3 -16.8Q15.3 -16.3 15.700000000000001 -16.05Q16.1 -15.8 16.85 -15.700000000000001Q17.6 -15.600000000000001 18.6 -15.600000000000001H34.6Q36.7 -15.600000000000001 39.85 -15.350000000000001Q43.0 -15.100000000000001 46.150000000000006 -13.850000000000001Q49.300000000000004 -12.600000000000001 51.400000000000006 -9.700000000000001Q53.5 -6.800000000000001 53.5 -1.5Q53.5 4.5 50.35 8.3Q47.2 12.100000000000001 40.8 13.950000000000001Q34.4 15.8 24.5 15.8ZM24.5 1.6Q31.200000000000003 1.6 34.400000000000006 1.1500000000000001Q37.6 0.7000000000000001 38.6 -0.09999999999999998Q39.6 -0.9 39.6 -1.9000000000000001Q39.6 -3.3000000000000003 38.8 -4.1000000000000005Q38.0 -4.9 36.8 -5.25Q35.6 -5.6000000000000005 34.45 -5.65Q33.300000000000004 -5.7 32.6 -5.7H19.1Q15.9 -4.6000000000000005 14.75 -3.6500000000000004Q13.600000000000001 -2.7 13.600000000000001 -1.5Q13.600000000000001 -0.1 14.950000000000001 0.55Q16.3 1.2000000000000002 18.75 1.4000000000000001Q21.200000000000003 1.6 24.5 1.6ZM26.200000000000003 -27.8Q29.400000000000002 -27.8 31.15 -29.8Q32.9 -31.8 32.9 -35.300000000000004Q32.9 -38.800000000000004 31.1 -40.95Q29.3 -43.1 26.1 -43.1Q23.0 -43.1 21.15 -40.95Q19.3 -38.800000000000004 19.3 -35.300000000000004Q19.3 -33.0 20.1 -31.3Q20.900000000000002 -29.6 22.450000000000003 -28.700000000000003Q24.0 -27.8 26.200000000000003 -27.8Z M82.30000000000001 1.4000000000000001Q74.70000000000002 1.4000000000000001 68.80000000000001 -1.65Q62.900000000000006 -4.7 59.60000000000001 -10.85Q56.30000000000001 -17.0 56.30000000000001 -26.3Q56.30000000000001 -36.0 59.750000000000014 -42.150000000000006Q63.20000000000001 -48.300000000000004 69.15 -51.25Q75.10000000000001 -54.2 82.60000000000001 -54.2Q90.4 -54.2 96.25 -51.150000000000006Q102.10000000000001 -48.1 105.35000000000001 -41.95Q108.60000000000001 -35.800000000000004 108.60000000000001 -26.400000000000002Q108.60000000000001 -16.7 105.15 -10.55Q101.70000000000002 -4.4 95.75000000000001 -1.5Q89.80000000000001 1.4000000000000001 82.30000000000001 1.4000000000000001ZM82.70000000000002 -10.5Q85.80000000000001 -10.5 87.9 -12.25Q90.0 -14.0 91.10000000000001 -17.4Q92.20000000000002 -20.8 92.20000000000002 -25.5Q92.20000000000002 -30.700000000000003 91.00000000000001 -34.25Q89.80000000000001 -37.800000000000004 87.55000000000001 -39.7Q85.30000000000001 -41.6 82.10000000000001 -41.6Q79.10000000000001 -41.6 77.0 -39.85Q74.9 -38.1 73.80000000000001 -34.7Q72.70000000000002 -31.3 72.70000000000002 -26.5Q72.70000000000002 -18.900000000000002 75.35000000000002 -14.700000000000001Q78.00000000000001 -10.5 82.70000000000002 -10.5Z M126.20000000000002 0.0 110.30000000000001 -52.800000000000004H127.50000000000001L136.60000000000002 -13.4H137.0L146.5 -52.800000000000004H162.70000000000002L146.8 0.0Z" fill="#2E2B26"/><path transform="translate(162.20000000000002 0)" d="M3.6 0.0V-27.900000000000002V-70.0H19.8V-56.800000000000004Q19.8 -54.7 19.55 -51.25Q19.3 -47.800000000000004 18.85 -43.900000000000006Q18.400000000000002 -40.0 17.950000000000003 -36.45Q17.5 -32.9 17.2 -30.5H18.1Q19.0 -38.800000000000004 21.200000000000003 -44.050000000000004Q23.400000000000002 -49.300000000000004 27.200000000000003 -51.75Q31.0 -54.2 36.4 -54.2Q44.900000000000006 -54.2 49.0 -48.150000000000006Q53.1 -42.1 53.1 -29.900000000000002V0.0H36.9V-29.200000000000003Q36.9 -34.800000000000004 35.4 -37.400000000000006Q33.9 -40.0 30.5 -40.0Q27.5 -40.0 25.1 -37.75Q22.700000000000003 -35.5 21.25 -30.6Q19.8 -25.700000000000003 19.8 -17.900000000000002V0.0Z M75.4 1.4000000000000001Q66.80000000000001 1.4000000000000001 62.650000000000006 -4.6000000000000005Q58.50000000000001 -10.600000000000001 58.50000000000001 -23.0V-52.800000000000004H74.7V-23.200000000000003Q74.7 -17.400000000000002 76.35 -15.100000000000001Q78.0 -12.8 81.10000000000001 -12.8Q83.30000000000001 -12.8 85.15 -13.950000000000001Q87.0 -15.100000000000001 88.4 -17.450000000000003Q89.80000000000001 -19.8 90.55000000000001 -23.5Q91.30000000000001 -27.200000000000003 91.30000000000001 -32.4V-52.800000000000004H107.5V-23.8V0.0H93.70000000000002V-20.6H93.0Q92.4 -12.9 90.30000000000001 -8.05Q88.20000000000002 -3.2 84.50000000000001 -0.9Q80.80000000000001 1.4000000000000001 75.4 1.4000000000000001Z M145.60000000000002 1.4000000000000001Q141.10000000000002 1.4000000000000001 137.70000000000002 -0.6Q134.3 -2.6 132.05 -6.55Q129.8 -10.5 128.70000000000002 -16.3H128.0V0.0H113.9V-18.6V-70.0H130.10000000000002V-54.5Q130.10000000000002 -51.800000000000004 129.85000000000002 -48.7Q129.60000000000002 -45.6 129.15000000000003 -42.3Q128.70000000000002 -39.0 128.10000000000002 -35.6H129.0Q129.9 -42.2 132.2 -46.300000000000004Q134.5 -50.400000000000006 138.10000000000002 -52.300000000000004Q141.70000000000002 -54.2 146.3 -54.2Q152.20000000000002 -54.2 156.55 -51.2Q160.9 -48.2 163.3 -42.2Q165.70000000000002 -36.2 165.70000000000002 -27.1Q165.70000000000002 -17.400000000000002 163.05 -11.100000000000001Q160.4 -4.800000000000001 155.85000000000002 -1.7000000000000002Q151.3 1.4000000000000001 145.60000000000002 1.4000000000000001ZM139.9 -11.5Q142.9 -11.5 145.0 -13.45Q147.10000000000002 -15.4 148.20000000000002 -18.650000000000002Q149.3 -21.900000000000002 149.3 -25.8Q149.3 -29.700000000000003 148.3 -33.1Q147.3 -36.5 145.20000000000002 -38.6Q143.10000000000002 -40.7 139.9 -40.7Q138.5 -40.7 137.05 -40.2Q135.60000000000002 -39.7 134.35000000000002 -38.650000000000006Q133.10000000000002 -37.6 132.10000000000002 -35.95Q131.10000000000002 -34.300000000000004 130.5 -31.950000000000003Q129.9 -29.6 129.9 -26.6V-25.900000000000002Q129.9 -22.200000000000003 130.75 -19.5Q131.60000000000002 -16.8 133.0 -15.0Q134.4 -13.200000000000001 136.2 -12.350000000000001Q138.0 -11.5 139.9 -11.5Z" fill="#12948C"/></g>
<rect x="0" y="272" width="1200" height="8" fill="#E8A23D"/>
</svg>