<svg xmlns="http://www.w3.org/2000/svg" viewBox="0 0 760 560" width="760" height="560">
<rect width="760" height="560" rx="28" fill="#F4E3D7"/>

<path d="M0 710 L0 310 L101.33333333333334 230 L202.66666666666669 290 L304.0 200 L418.0 280 L532.0 210 L633.3333333333334 300 L760.0 250 L760.0 710 Z" fill="#DCE4F0" opacity="1.0"/>
<path d="M0 760 L0 360 L139.33333333333334 260 L266.0 340 L405.33333333333337 240 L544.6666666666666 330 L671.3333333333334 270 L760.0 340 L760.0 760 Z" fill="#214B89" opacity="0.92"/>
<path d="M0 790 L0 390 L114.0 320 L240.66666666666666 380 L380.0 305 L519.3333333333333 375 L646.0 330 L760.0 385 L760.0 790 Z" fill="#16345E" opacity="1.0"/>
<rect x="0" y="396" width="760" height="164" fill="#EAD5B8"/>
<g transform="translate(380 430) scale(1.5)">
  <ellipse cx="0" cy="0" rx="86" ry="30" fill="#16345E"/>
  <ellipse cx="0" cy="-5" rx="70" ry="22" fill="#214B89"/>
</g>
<circle cx="350" cy="410" r="10" fill="#6E675C"/><circle cx="396" cy="416" r="8" fill="#6E675C"/>
<circle cx="420" cy="404" r="7" fill="#6E675C"/>
<g fill="#2E2B26" font-family="sans-serif">
  <path d="M368 300 a28 28 0 1 1 34 27 c-8 2 -8 8 -8 16" fill="none" stroke="#2E2B26" stroke-width="11" stroke-linecap="round"/>
  <circle cx="394" cy="368" r="7"/>
</g>
<g transform="translate(560 330) rotate(24) scale(0.9)">
  <path d="M-14 0 h28 a10 10 0 0 1 0 20 h-8 v8 h-12 v-8 h-8 a10 10 0 0 1 0 -20 Z" fill="#C89A62"/>
  <rect x="-5" y="26" width="10" height="62" rx="5" fill="#C89A62"/>
  <path d="M-20 88 h40 v18 a20 22 0 0 1 -40 0 Z" fill="#214B89"/>
  <rect x="-5" y="82" width="10" height="12" rx="4" fill="#C89A62"/>
</g>
<path d="M120 500 C 240 480, 330 500, 430 486" fill="none" stroke="#A03A2C" stroke-width="5" stroke-dasharray="0.1 16.0" stroke-linecap="round"/>
<circle cx="660" cy="120" r="5" fill="#E8A23D" opacity="0.55"/>
<circle cx="100" cy="120" r="5" fill="#214B89" opacity="0.55"/>

</svg>