<svg xmlns="http://www.w3.org/2000/svg" viewBox="0 0 760 560" width="760" height="560">
<rect width="760" height="560" rx="28" fill="#DCE4F0"/>

<rect x="0" y="0" width="760" height="560" rx="28" fill="#DCE4F0"/>
<circle cx="600" cy="110" r="38" fill="#E8A23D"/><g stroke="#E8A23D" stroke-width="7.6000000000000005" stroke-linecap="round" opacity="0.75"><path d="M600 46 v12"/><path d="M647.4 62.6 l-8.399999999999999 8.399999999999999"/><path d="M552.6 62.6 l8.399999999999999 8.399999999999999"/></g>
<path d="M0 750 L0 350 L101.33333333333334 270 L202.66666666666669 330 L304.0 240 L418.0 320 L532.0 250 L633.3333333333334 340 L760.0 290 L760.0 750 Z" fill="#C7D3E6" opacity="1.0"/>
<path d="M0 800 L0 400 L139.33333333333334 300 L266.0 380 L405.33333333333337 280 L544.6666666666666 370 L671.3333333333334 310 L760.0 380 L760.0 800 Z" fill="#214B89" opacity="0.92"/>
<path d="M0 830 L0 430 L114.0 360 L240.66666666666666 420 L380.0 345 L519.3333333333333 415 L646.0 370 L760.0 425 L760.0 830 Z" fill="#16345E" opacity="1.0"/>
<rect x="0" y="436" width="760" height="124" fill="#16345E"/>
<g transform="translate(220 320) scale(1.5)">
  <path d="M0 0 L52 78 H-52 Z" fill="#A03A2C"/>
  <path d="M0 12 L30 78 H-30 Z" fill="#000" opacity="0.14"/>
  <path d="M0 26 L17 78 H-17 Z" fill="#FAF5EC"/>
</g>
<g transform="translate(400 366) scale(1.0)">
  <path d="M0 0 L52 78 H-52 Z" fill="#0E6E68"/>
  <path d="M0 12 L30 78 H-30 Z" fill="#000" opacity="0.14"/>
  <path d="M0 26 L17 78 H-17 Z" fill="#FAF5EC"/>
</g>
<g transform="translate(320 486) scale(1.2)">
  <path d="M0 -26 C 12 -14 16 -6 12 4 C 8 12 -8 12 -12 4 C -16 -6 -12 -14 0 -26 Z" fill="#E8A23D"/>
  <path d="M0 -12 C 6 -6 8 -2 6 4 C 3 9 -3 9 -6 4 C -8 -2 -6 -6 0 -12 Z" fill="#A03A2C"/>
  <rect x="-26" y="8" width="52" height="8" rx="4" fill="#A87A44" transform="rotate(8)"/>
  <rect x="-26" y="8" width="52" height="8" rx="4" fill="#C89A62" transform="rotate(-9)"/>
</g>
<g transform="translate(120 366) scale(1.0)">
  <rect x="0" y="0" width="7" height="64" rx="3.5" fill="#2E2B26"/>
  <path d="M7 3 H45 A6 6 0 0 1 49.5 12.8 L41 19.5 L49.5 26.2 A6 6 0 0 1 45 36 H7 Z" fill="#E8A23D"/>
</g>
<g transform="translate(480 430) rotate(-6) scale(0.55)">
  <path d="M0 14 L100 0 L100 210 L0 224 Z" fill="#FFFFFF" stroke="#2E2B26" stroke-width="5"/>
  <path d="M100 0 L200 14 L200 224 L100 210 Z" fill="#FAF5EC" stroke="#2E2B26" stroke-width="5"/>
  <path d="M200 14 L300 0 L300 210 L200 224 Z" fill="#FFFFFF" stroke="#2E2B26" stroke-width="5"/>
  <g fill="none" stroke="#12948C" stroke-width="3.5" opacity="0.6">
    <path d="M18 60 C 50 44, 76 66, 92 56"/><path d="M22 92 C 54 76, 80 98, 94 88"/>
    <path d="M116 150 C 148 134, 176 156, 192 146"/><path d="M214 54 C 246 38, 274 60, 290 50"/>
  </g>
  <path d="M120 40 L150 12 L180 40 Z" fill="#214B89"/>
  <path d="M226 120 L250 96 L274 120 Z" fill="#214B89"/>
  <path d="M24 190 C 80 160, 120 190, 160 150 S 240 100, 264 78" fill="none" stroke="#A03A2C" stroke-width="6" stroke-dasharray="0.1 19.200000000000003" stroke-linecap="round"/>
  <g stroke="#C77F1B" stroke-width="8" stroke-linecap="round"><path d="M256 66 l18 20 M274 66 l-18 20"/></g>
</g>
<circle cx="180" cy="120" r="4" fill="#FAF5EC" opacity="0.8"/>
<circle cx="260" cy="80" r="3" fill="#FAF5EC" opacity="0.7"/>
<circle cx="420" cy="100" r="4" fill="#FAF5EC" opacity="0.8"/>
<circle cx="700" cy="230" r="3" fill="#FAF5EC" opacity="0.7"/>

</svg>