<svg xmlns="http://www.w3.org/2000/svg" viewBox="0 0 760 560" width="760" height="560">
<rect width="760" height="560" rx="28" fill="#FAF5EC"/>

<g transform="translate(120 120) rotate(-3) scale(1.5)">
  <path d="M0 14 L100 0 L100 210 L0 224 Z" fill="#FFFFFF" stroke="#2E2B26" stroke-width="5"/>
  <path d="M100 0 L200 14 L200 224 L100 210 Z" fill="#FAF5EC" stroke="#2E2B26" stroke-width="5"/>
  <path d="M200 14 L300 0 L300 210 L200 224 Z" fill="#FFFFFF" stroke="#2E2B26" stroke-width="5"/>
  <g fill="none" stroke="#12948C" stroke-width="3.5" opacity="0.6">
    <path d="M18 60 C 50 44, 76 66, 92 56"/><path d="M22 92 C 54 76, 80 98, 94 88"/>
    <path d="M116 150 C 148 134, 176 156, 192 146"/><path d="M214 54 C 246 38, 274 60, 290 50"/>
  </g>
  <path d="M120 40 L150 12 L180 40 Z" fill="#214B89"/>
  <path d="M226 120 L250 96 L274 120 Z" fill="#214B89"/>
  <path d="M24 190 C 80 160, 120 190, 160 150 S 240 100, 264 78" fill="none" stroke="#A03A2C" stroke-width="6" stroke-dasharray="0.1 19.200000000000003" stroke-linecap="round"/>
  <g stroke="#C77F1B" stroke-width="8" stroke-linecap="round"><path d="M256 66 l18 20 M274 66 l-18 20"/></g>
</g>
<g transform="translate(640 150)">
  <circle r="44" fill="#FFFFFF" stroke="#2E2B26" stroke-width="5"/>
  <path d="M0 -30 L10 0 L0 30 L-10 0 Z" fill="#A03A2C"/>
  <path d="M0 -30 L10 0 H-10 Z" fill="#214B89"/>
  <circle r="6" fill="#E8A23D"/>
</g>
<circle cx="70" cy="454.0" r="54.0" fill="#F3C87E" opacity="0.35"/><g transform="translate(70 420) scale(1.0)">
  <path d="M-10 -14 a10 10 0 0 1 20 0" fill="none" stroke="#2E2B26" stroke-width="5" stroke-linecap="round"/>
  <rect x="-16" y="-8" width="32" height="10" rx="4" fill="#2E2B26"/>
  <path d="M-13 2 h26 l5 40 h-36 Z" fill="#0E6E68"/>
  <rect x="-9" y="8" width="18" height="26" rx="6" fill="#E8A23D"/>
  <rect x="-18" y="42" width="36" height="9" rx="4" fill="#2E2B26"/>
</g>
<circle cx="700" cy="420" r="6" fill="#E8A23D" opacity="0.55"/>
<circle cx="60" cy="90" r="6" fill="#214B89" opacity="0.55"/>

</svg>