<svg xmlns="http://www.w3.org/2000/svg" viewBox="0 0 760 560" width="760" height="560">
<rect width="760" height="560" rx="28" fill="#FBEFD9"/>

<path d="M0 640 L0 240 L101.33333333333334 160 L202.66666666666669 220 L304.0 130 L418.0 210 L532.0 140 L633.3333333333334 230 L760.0 180 L760.0 640 Z" fill="#DCE4F0" opacity="1.0"/>
<path d="M0 690 L0 290 L139.33333333333334 190 L266.0 270 L405.33333333333337 170 L544.6666666666666 260 L671.3333333333334 200 L760.0 270 L760.0 690 Z" fill="#214B89" opacity="0.92"/>
<path d="M0 720 L0 320 L114.0 250 L240.66666666666666 310 L380.0 235 L519.3333333333333 305 L646.0 260 L760.0 315 L760.0 720 Z" fill="#16345E" opacity="1.0"/>
<rect x="40" y="457" width="8" height="14" rx="3" fill="#A87A44" opacity="0.8"/><rect x="86" y="457" width="8" height="14" rx="3" fill="#A87A44" opacity="0.8"/><rect x="132" y="457" width="8" height="14" rx="3" fill="#A87A44" opacity="0.8"/><rect x="178" y="457" width="8" height="14" rx="3" fill="#A87A44" opacity="0.8"/><rect x="224" y="457" width="8" height="14" rx="3" fill="#A87A44" opacity="0.8"/><rect x="270" y="457" width="8" height="14" rx="3" fill="#A87A44" opacity="0.8"/><rect x="316" y="457" width="8" height="14" rx="3" fill="#A87A44" opacity="0.8"/><rect x="362" y="457" width="8" height="14" rx="3" fill="#A87A44" opacity="0.8"/><rect x="408" y="457" width="8" height="14" rx="3" fill="#A87A44" opacity="0.8"/><rect x="454" y="457" width="8" height="14" rx="3" fill="#A87A44" opacity="0.8"/><rect x="500" y="457" width="8" height="14" rx="3" fill="#A87A44" opacity="0.8"/><rect x="546" y="457" width="8" height="14" rx="3" fill="#A87A44" opacity="0.8"/><rect x="592" y="457" width="8" height="14" rx="3" fill="#A87A44" opacity="0.8"/><rect x="638" y="457" width="8" height="14" rx="3" fill="#A87A44" opacity="0.8"/><rect x="684" y="457" width="8" height="14" rx="3" fill="#A87A44" opacity="0.8"/><rect x="30" y="460" width="700" height="7" rx="3.5" fill="#2E2B26"/>
<g transform="translate(220 420) scale(1.1)">
  <g transform="translate(0 0)"><path transform="translate(-16 -34) scale(0.8)" fill="#E8A23D" d="M-15 2 L-9 -12 L4 -14 L15 -6 L13 8 L2 13 L-10 10 Z"/><path transform="translate(-16 -34) scale(0.8)" d="M-6 -6 L2 -8" stroke="#FFF" stroke-width="3" stroke-linecap="round" opacity="0.75"/><path transform="translate(10 -38) scale(0.9)" fill="#E8A23D" d="M-15 2 L-9 -12 L4 -14 L15 -6 L13 8 L2 13 L-10 10 Z"/><path transform="translate(10 -38) scale(0.9)" d="M-6 -6 L2 -8" stroke="#FFF" stroke-width="3" stroke-linecap="round" opacity="0.75"/><path transform="translate(-2 -30) scale(0.7)" fill="#E8A23D" d="M-15 2 L-9 -12 L4 -14 L15 -6 L13 8 L2 13 L-10 10 Z"/><path transform="translate(-2 -30) scale(0.7)" d="M-6 -6 L2 -8" stroke="#FFF" stroke-width="3" stroke-linecap="round" opacity="0.75"/></g>
  <path d="M-42 -28 h84 l-10 44 h-64 Z" fill="#214B89"/>
  <path d="M-42 -28 h84 l-2.5 11 h-79 Z" fill="#000" opacity="0.15"/>
  <circle cx="-22" cy="24" r="11" fill="#2E2B26"/><circle cx="22" cy="24" r="11" fill="#2E2B26"/>
  <circle cx="-22" cy="24" r="4" fill="#FAF5EC"/><circle cx="22" cy="24" r="4" fill="#FAF5EC"/>
</g>
<g transform="translate(430 420) scale(0.95)">
  <g transform="translate(0 0)"><path transform="translate(-16 -34) scale(0.8)" fill="#E8A23D" d="M-15 2 L-9 -12 L4 -14 L15 -6 L13 8 L2 13 L-10 10 Z"/><path transform="translate(-16 -34) scale(0.8)" d="M-6 -6 L2 -8" stroke="#FFF" stroke-width="3" stroke-linecap="round" opacity="0.75"/><path transform="translate(10 -38) scale(0.9)" fill="#E8A23D" d="M-15 2 L-9 -12 L4 -14 L15 -6 L13 8 L2 13 L-10 10 Z"/><path transform="translate(10 -38) scale(0.9)" d="M-6 -6 L2 -8" stroke="#FFF" stroke-width="3" stroke-linecap="round" opacity="0.75"/><path transform="translate(-2 -30) scale(0.7)" fill="#E8A23D" d="M-15 2 L-9 -12 L4 -14 L15 -6 L13 8 L2 13 L-10 10 Z"/><path transform="translate(-2 -30) scale(0.7)" d="M-6 -6 L2 -8" stroke="#FFF" stroke-width="3" stroke-linecap="round" opacity="0.75"/></g>
  <path d="M-42 -28 h84 l-10 44 h-64 Z" fill="#214B89"/>
  <path d="M-42 -28 h84 l-2.5 11 h-79 Z" fill="#000" opacity="0.15"/>
  <circle cx="-22" cy="24" r="11" fill="#2E2B26"/><circle cx="22" cy="24" r="11" fill="#2E2B26"/>
  <circle cx="-22" cy="24" r="4" fill="#FAF5EC"/><circle cx="22" cy="24" r="4" fill="#FAF5EC"/>
</g>
<g transform="translate(600 420) scale(0.8)">
  <g transform="translate(0 0)"><path transform="translate(-16 -34) scale(0.8)" fill="#E8A23D" d="M-15 2 L-9 -12 L4 -14 L15 -6 L13 8 L2 13 L-10 10 Z"/><path transform="translate(-16 -34) scale(0.8)" d="M-6 -6 L2 -8" stroke="#FFF" stroke-width="3" stroke-linecap="round" opacity="0.75"/><path transform="translate(10 -38) scale(0.9)" fill="#E8A23D" d="M-15 2 L-9 -12 L4 -14 L15 -6 L13 8 L2 13 L-10 10 Z"/><path transform="translate(10 -38) scale(0.9)" d="M-6 -6 L2 -8" stroke="#FFF" stroke-width="3" stroke-linecap="round" opacity="0.75"/><path transform="translate(-2 -30) scale(0.7)" fill="#E8A23D" d="M-15 2 L-9 -12 L4 -14 L15 -6 L13 8 L2 13 L-10 10 Z"/><path transform="translate(-2 -30) scale(0.7)" d="M-6 -6 L2 -8" stroke="#FFF" stroke-width="3" stroke-linecap="round" opacity="0.75"/></g>
  <path d="M-42 -28 h84 l-10 44 h-64 Z" fill="#214B89"/>
  <path d="M-42 -28 h84 l-2.5 11 h-79 Z" fill="#000" opacity="0.15"/>
  <circle cx="-22" cy="24" r="11" fill="#2E2B26"/><circle cx="22" cy="24" r="11" fill="#2E2B26"/>
  <circle cx="-22" cy="24" r="4" fill="#FAF5EC"/><circle cx="22" cy="24" r="4" fill="#FAF5EC"/>
</g>
<g transform="translate(80 300) scale(1.0)">
  <rect x="0" y="0" width="7" height="64" rx="3.5" fill="#2E2B26"/>
  <path d="M7 3 H45 A6 6 0 0 1 49.5 12.8 L41 19.5 L49.5 26.2 A6 6 0 0 1 45 36 H7 Z" fill="#E8A23D"/>
</g>
<circle cx="160" cy="140" r="6" fill="#E8A23D" opacity="0.55"/>
<circle cx="360" cy="110" r="7" fill="#214B89" opacity="0.55"/>
<circle cx="560" cy="150" r="5" fill="#12948C" opacity="0.55"/>
<circle cx="660" cy="240" r="6" fill="#A03A2C" opacity="0.55"/>
<circle cx="260" cy="220" r="5" fill="#F3C87E" opacity="0.55"/>
<circle cx="660" cy="96" r="30" fill="#E8A23D"/><g stroke="#E8A23D" stroke-width="6.0" stroke-linecap="round" opacity="0.75"><path d="M660 40 v12"/><path d="M701.4 54.6 l-8.399999999999999 8.399999999999999"/><path d="M618.6 54.6 l8.399999999999999 8.399999999999999"/></g>

</svg>