<svg xmlns="http://www.w3.org/2000/svg" viewBox="0 0 760 560" width="760" height="560">
<rect width="760" height="560" rx="28" fill="#F4E3D7"/>

<rect x="352" y="150" width="16" height="250" rx="8" fill="#A87A44"/>
<path d="M300 420 h120 l-14 40 h-92 Z" fill="#C89A62"/>
<rect x="180" y="150" width="360" height="14" rx="7" fill="#A87A44" transform="rotate(-6 360 157)"/>
<g transform="rotate(-6 360 157)">
  <path d="M186 164 l-44 84 a52 26 0 0 0 104 0 Z" fill="none"/>
  <path d="M142 248 a52 26 0 0 0 104 0" fill="#214B89"/>
  <path d="M186 160 L150 244 M186 160 L226 244" stroke="#2E2B26" stroke-width="4"/>
  <path d="M534 148 L498 236 M534 148 L574 236" stroke="#2E2B26" stroke-width="4"/>
  <path d="M490 240 a52 26 0 0 0 104 0" fill="#214B89"/>
</g>
<path transform="translate(186 252) scale(0.9)" fill="#E8A23D" d="M-15 2 L-9 -12 L4 -14 L15 -6 L13 8 L2 13 L-10 10 Z"/><path transform="translate(186 252) scale(0.9)" d="M-6 -6 L2 -8" stroke="#FFF" stroke-width="3" stroke-linecap="round" opacity="0.75"/><path transform="translate(222 248) scale(0.7)" fill="#E8A23D" d="M-15 2 L-9 -12 L4 -14 L15 -6 L13 8 L2 13 L-10 10 Z"/><path transform="translate(222 248) scale(0.7)" d="M-6 -6 L2 -8" stroke="#FFF" stroke-width="3" stroke-linecap="round" opacity="0.75"/><path transform="translate(204 238) scale(0.6)" fill="#E8A23D" d="M-15 2 L-9 -12 L4 -14 L15 -6 L13 8 L2 13 L-10 10 Z"/><path transform="translate(204 238) scale(0.6)" d="M-6 -6 L2 -8" stroke="#FFF" stroke-width="3" stroke-linecap="round" opacity="0.75"/>
<circle cx="534" cy="210" r="13" fill="#6E675C"/><circle cx="562" cy="214" r="10" fill="#6E675C"/>
<circle cx="548" cy="198" r="8" fill="#6E675C"/>
<g transform="translate(660 190) rotate(14) scale(1.0)">
  <path d="M-14 0 h28 a10 10 0 0 1 0 20 h-8 v8 h-12 v-8 h-8 a10 10 0 0 1 0 -20 Z" fill="#C89A62"/>
  <rect x="-5" y="26" width="10" height="62" rx="5" fill="#C89A62"/>
  <path d="M-20 88 h40 v18 a20 22 0 0 1 -40 0 Z" fill="#0E6E68"/>
  <rect x="-5" y="82" width="10" height="12" rx="4" fill="#C89A62"/>
</g>
<circle cx="80" cy="90" r="6" fill="#E8A23D" opacity="0.55"/>
<circle cx="690" cy="80" r="6" fill="#214B89" opacity="0.55"/>
<circle cx="70" cy="420" r="5" fill="#12948C" opacity="0.55"/>

</svg>