<svg xmlns="http://www.w3.org/2000/svg" viewBox="0 0 760 560" width="760" height="560">
<rect width="760" height="560" rx="28" fill="#D8EAE7"/>

<rect x="430" y="180.0" width="270" height="51.0" fill="#EAD5B8"/>
<rect x="430" y="230.0" width="270" height="51.0" fill="#DFC49F"/>
<rect x="430" y="280.0" width="270" height="51.0" fill="#A03A2C"/>
<rect x="430" y="330.0" width="270" height="51.0" fill="#8A5A3B"/>
<rect x="430" y="380.0" width="270" height="51.0" fill="#214B89"/>
<rect x="430" y="430.0" width="270" height="51.0" fill="#16345E"/>
<path d="M457.0 345.0 C 511.0 300.0, 565.0 405.0, 619.0 360.0 S 686.5 330.0, 700 366.0" fill="none" stroke="#E8A23D" stroke-width="9" stroke-linecap="round"/>
<rect x="430" y="180" width="270" height="300" fill="none" stroke="#2E2B26" stroke-width="6"/>
<g stroke="#6E675C" stroke-width="4" stroke-linecap="round" opacity="0.8">
  <path d="M414 200 h-20"/><path d="M414 260 h-14"/><path d="M414 320 h-20"/><path d="M414 380 h-14"/><path d="M414 440 h-20"/>
</g>
<rect x="404" y="180" width="6" height="300" rx="3" fill="#6E675C"/>
<rect x="110" y="160" width="200" height="260" rx="12" fill="#FFFFFF" stroke="#2E2B26" stroke-width="5"/>
<circle cx="134" cy="190" r="9" fill="#12948C"/>
<path d="M129.5 190 l4 4 7.5 -8.5" fill="none" stroke="#FFF" stroke-width="3" stroke-linecap="round" stroke-linejoin="round"/>
<rect x="150" y="185.5" width="144" height="9" rx="4.5" fill="#2E2B26" opacity="0.25"/>
<circle cx="134" cy="222" r="9" fill="#12948C"/>
<path d="M129.5 222 l4 4 7.5 -8.5" fill="none" stroke="#FFF" stroke-width="3" stroke-linecap="round" stroke-linejoin="round"/>
<rect x="150" y="217.5" width="144" height="9" rx="4.5" fill="#2E2B26" opacity="0.25"/>
<circle cx="134" cy="254" r="9" fill="#12948C"/>
<path d="M129.5 254 l4 4 7.5 -8.5" fill="none" stroke="#FFF" stroke-width="3" stroke-linecap="round" stroke-linejoin="round"/>
<rect x="150" y="249.5" width="144" height="9" rx="4.5" fill="#2E2B26" opacity="0.25"/>
<circle cx="134" cy="286" r="9" fill="#12948C"/>
<path d="M129.5 286 l4 4 7.5 -8.5" fill="none" stroke="#FFF" stroke-width="3" stroke-linecap="round" stroke-linejoin="round"/>
<rect x="150" y="281.5" width="144" height="9" rx="4.5" fill="#2E2B26" opacity="0.25"/>
<circle cx="282" cy="392" r="15" fill="#E8A23D"/>
<path d="M277 402 l-6 16 M287 402 l6 16" stroke="#C77F1B" stroke-width="6" stroke-linecap="round"/>
<g transform="translate(90 400) rotate(-18) scale(0.75)">
  <path d="M-14 0 h28 a10 10 0 0 1 0 20 h-8 v8 h-12 v-8 h-8 a10 10 0 0 1 0 -20 Z" fill="#C89A62"/>
  <rect x="-5" y="26" width="10" height="62" rx="5" fill="#C89A62"/>
  <path d="M-20 88 h40 v18 a20 22 0 0 1 -40 0 Z" fill="#214B89"/>
  <rect x="-5" y="82" width="10" height="12" rx="4" fill="#C89A62"/>
</g>
<circle cx="680" cy="110" r="6" fill="#E8A23D" opacity="0.55"/>
<circle cx="70" cy="100" r="6" fill="#214B89" opacity="0.55"/>

</svg>