<svg xmlns="http://www.w3.org/2000/svg" viewBox="0 0 760 560" width="760" height="560">
<rect width="760" height="560" rx="28" fill="#DCE4F0"/>

<path d="M0 780 L0 380 L101.33333333333334 300 L202.66666666666669 360 L304.0 270 L418.0 350 L532.0 280 L633.3333333333334 370 L760.0 320 L760.0 780 Z" fill="#C7D3E6" opacity="1.0"/>
<path d="M0 830 L0 430 L139.33333333333334 330 L266.0 410 L405.33333333333337 310 L544.6666666666666 400 L671.3333333333334 340 L760.0 410 L760.0 830 Z" fill="#214B89" opacity="0.92"/>
<path d="M0 860 L0 460 L114.0 390 L240.66666666666666 450 L380.0 375 L519.3333333333333 445 L646.0 400 L760.0 455 L760.0 860 Z" fill="#16345E" opacity="1.0"/>
<path d="M330 470 L380 200 L430 470 Z" fill="#A87A44"/>
<path d="M345 400 h70 M338 440 h84" stroke="#C89A62" stroke-width="9" stroke-linecap="round"/>
<rect x="352" y="168" width="56" height="44" rx="10" fill="#2E2B26"/>
<circle cx="380" cy="190" r="13" fill="#E8A23D"/>
<g fill="none" stroke="#12948C" stroke-width="8" stroke-linecap="round">
  <path d="M436 190 a56 56 0 0 1 0 0.1 M438 162 a62 62 0 0 1 20 28"/>
  <path d="M470 140 a104 104 0 0 1 32 50"/>
  <path d="M324 162 a62 62 0 0 0 -20 28"/>
  <path d="M292 140 a104 104 0 0 0 -32 50"/>
</g>
<circle cx="120" cy="120" r="6" fill="#E8A23D" opacity="0.55"/>
<circle cx="660" cy="110" r="6" fill="#214B89" opacity="0.55"/>

</svg>