<svg xmlns="http://www.w3.org/2000/svg" viewBox="0 0 1600 420" width="1600" height="420">
<defs><linearGradient id="ng" x1="0" y1="0" x2="0" y2="1">
<stop offset="0" stop-color="#16345E"/><stop offset="1" stop-color="#214B89"/></linearGradient></defs>
<rect width="1600" height="420" fill="url(#ng)"/>
<g opacity="0.9"><path d="M900 730 L900 330 L1070 180 L1210 290 L1350 150 L1470 260 L1600 200 L1600 730 Z" fill="#0F2747" opacity="1.0"/></g>
<g opacity="0.9"><path d="M0 740 L0 300 L140 210 L300 300 L430 240 L560 320 L700 270 L860 340 L860 740 Z" fill="#0F2747" opacity="1.0"/></g>
<circle cx="1240" cy="90" r="5" fill="#FAF5EC" opacity="0.8"/><circle cx="1380" cy="60" r="4" fill="#FAF5EC" opacity="0.7"/>
<circle cx="180" cy="70" r="4" fill="#FAF5EC" opacity="0.75"/><circle cx="420" cy="110" r="3.5" fill="#FAF5EC" opacity="0.6"/>
<circle cx="1460" cy="96" r="26" fill="#F3C87E"/>
<circle cx="1180" cy="295.9" r="72.9" fill="#F3C87E" opacity="0.35"/><g transform="translate(1180 250) scale(1.35)">
  <path d="M-10 -14 a10 10 0 0 1 20 0" fill="none" stroke="#2E2B26" stroke-width="5" stroke-linecap="round"/>
  <rect x="-16" y="-8" width="32" height="10" rx="4" fill="#2E2B26"/>
  <path d="M-13 2 h26 l5 40 h-36 Z" fill="#0E6E68"/>
  <rect x="-9" y="8" width="18" height="26" rx="6" fill="#E8A23D"/>
  <rect x="-18" y="42" width="36" height="9" rx="4" fill="#2E2B26"/>
</g>
<path transform="translate(1300 350) scale(1.1)" fill="#E8A23D" d="M-15 2 L-9 -12 L4 -14 L15 -6 L13 8 L2 13 L-10 10 Z"/><path transform="translate(1300 350) scale(1.1)" d="M-6 -6 L2 -8" stroke="#FFF" stroke-width="3" stroke-linecap="round" opacity="0.75"/><path transform="translate(260 360) scale(0.9)" fill="#E8A23D" d="M-15 2 L-9 -12 L4 -14 L15 -6 L13 8 L2 13 L-10 10 Z"/><path transform="translate(260 360) scale(0.9)" d="M-6 -6 L2 -8" stroke="#FFF" stroke-width="3" stroke-linecap="round" opacity="0.75"/>
<path d="M340 380 C 560 340, 800 360, 1020 330" fill="none" stroke="#C77F1B" stroke-width="5" stroke-dasharray="0.1 16.0" stroke-linecap="round"/>
<rect x="0" y="0" width="1600" height="5" fill="#E8A23D"/>
</svg>