<svg xmlns="http://www.w3.org/2000/svg" viewBox="0 0 760 560" width="760" height="560">
<rect width="760" height="560" rx="28" fill="#E9F0F7"/>

<path d="M0 740 L0 340 L101.33333333333334 260 L202.66666666666669 320 L304.0 230 L418.0 310 L532.0 240 L633.3333333333334 330 L760.0 280 L760.0 740 Z" fill="#DCE4F0" opacity="1.0"/>
<path d="M0 790 L0 390 L139.33333333333334 290 L266.0 370 L405.33333333333337 270 L544.6666666666666 360 L671.3333333333334 300 L760.0 370 L760.0 790 Z" fill="#214B89" opacity="0.92"/>
<path d="M0 820 L0 420 L114.0 350 L240.66666666666666 410 L380.0 335 L519.3333333333333 405 L646.0 360 L760.0 415 L760.0 820 Z" fill="#16345E" opacity="1.0"/>
<rect x="0" y="426" width="760" height="134" fill="#16345E"/>
<g transform="translate(380 84)">
  <rect x="-10" y="0" width="20" height="370" rx="9" fill="#A87A44"/>
  <path d="M0 24 h190 v34 h-190 Z M190 24 l26 17 -26 17 Z" fill="#A03A2C"/><rect x="18" y="36" width="154" height="10" rx="5" fill="#FFFFFF" opacity="0.85"/>
  <path d="M0 92 h-160 v34 h160 Z M-160 92 l-26 17 26 17 Z" fill="#12948C"/><rect x="-142" y="104" width="124" height="10" rx="5" fill="#FFFFFF" opacity="0.85"/>
  <path d="M0 160 h210 v34 h-210 Z M210 160 l26 17 -26 17 Z" fill="#214B89"/><rect x="18" y="172" width="174" height="10" rx="5" fill="#FFFFFF" opacity="0.85"/>
  <path d="M0 228 h-150 v34 h150 Z M-150 228 l-26 17 26 17 Z" fill="#C77F1B"/><rect x="-132" y="240" width="114" height="10" rx="5" fill="#FFFFFF" opacity="0.85"/>
</g>
<circle cx="500" cy="60" r="8" fill="#E8A23D"/>
<path transform="translate(120 500) scale(0.9)" fill="#E8A23D" d="M-15 2 L-9 -12 L4 -14 L15 -6 L13 8 L2 13 L-10 10 Z"/><path transform="translate(120 500) scale(0.9)" d="M-6 -6 L2 -8" stroke="#FFF" stroke-width="3" stroke-linecap="round" opacity="0.75"/>
<circle cx="660" cy="120" r="6" fill="#E8A23D" opacity="0.55"/>
<circle cx="90" cy="150" r="6" fill="#214B89" opacity="0.55"/>

</svg>