<svg xmlns="http://www.w3.org/2000/svg" viewBox="0 0 760 560" width="760" height="560">
<rect width="760" height="560" rx="28" fill="#F4E3D7"/>

<path d="M0 780 L0 380 L101.33333333333334 300 L202.66666666666669 360 L304.0 270 L418.0 350 L532.0 280 L633.3333333333334 370 L760.0 320 L760.0 780 Z" fill="#DCE4F0" opacity="1.0"/>
<path d="M0 830 L0 430 L139.33333333333334 330 L266.0 410 L405.33333333333337 310 L544.6666666666666 400 L671.3333333333334 340 L760.0 410 L760.0 830 Z" fill="#214B89" opacity="0.92"/>
<path d="M0 860 L0 460 L114.0 390 L240.66666666666666 450 L380.0 375 L519.3333333333333 445 L646.0 400 L760.0 455 L760.0 860 Z" fill="#16345E" opacity="1.0"/>
<circle cx="640" cy="100" r="34" fill="#E8A23D"/><g stroke="#E8A23D" stroke-width="6.800000000000001" stroke-linecap="round" opacity="0.75"><path d="M640 40 v12"/><path d="M684.4 55.6 l-8.399999999999999 8.399999999999999"/><path d="M595.6 55.6 l8.399999999999999 8.399999999999999"/></g>
<rect x="0" y="466" width="760" height="94" fill="#EAD5B8"/>
<g transform="translate(150 356) scale(1.15)">
  <path d="M0 0 L52 78 H-52 Z" fill="#A03A2C"/>
  <path d="M0 12 L30 78 H-30 Z" fill="#000" opacity="0.14"/>
  <path d="M0 26 L17 78 H-17 Z" fill="#FAF5EC"/>
</g>
<g transform="translate(300 500) scale(1.0)">
  <path d="M0 -26 C 12 -14 16 -6 12 4 C 8 12 -8 12 -12 4 C -16 -6 -12 -14 0 -26 Z" fill="#E8A23D"/>
  <path d="M0 -12 C 6 -6 8 -2 6 4 C 3 9 -3 9 -6 4 C -8 -2 -6 -6 0 -12 Z" fill="#A03A2C"/>
  <rect x="-26" y="8" width="52" height="8" rx="4" fill="#A87A44" transform="rotate(8)"/>
  <rect x="-26" y="8" width="52" height="8" rx="4" fill="#C89A62" transform="rotate(-9)"/>
</g>
<g transform="translate(390 380) rotate(-10) scale(1.0)">
  <path d="M-14 0 h28 a10 10 0 0 1 0 20 h-8 v8 h-12 v-8 h-8 a10 10 0 0 1 0 -20 Z" fill="#C89A62"/>
  <rect x="-5" y="26" width="10" height="62" rx="5" fill="#C89A62"/>
  <path d="M-20 88 h40 v18 a20 22 0 0 1 -40 0 Z" fill="#E8A23D"/>
  <rect x="-5" y="82" width="10" height="12" rx="4" fill="#C89A62"/>
</g>
<rect x="440" y="396" width="86" height="108" rx="12" fill="#FFFFFF" stroke="#2E2B26" stroke-width="5"/>
<circle cx="464" cy="426" r="9" fill="#12948C"/>
<path d="M459.5 426 l4 4 7.5 -8.5" fill="none" stroke="#FFF" stroke-width="3" stroke-linecap="round" stroke-linejoin="round"/>
<rect x="480" y="421.5" width="30" height="9" rx="4.5" fill="#2E2B26" opacity="0.25"/>
<circle cx="464" cy="458" r="9" fill="#12948C"/>
<path d="M459.5 458 l4 4 7.5 -8.5" fill="none" stroke="#FFF" stroke-width="3" stroke-linecap="round" stroke-linejoin="round"/>
<rect x="480" y="453.5" width="30" height="9" rx="4.5" fill="#2E2B26" opacity="0.25"/>
<path d="M420 470 C 500 430, 560 380, 610 320 S 660 250, 668 226" fill="none" stroke="#FAF5EC" stroke-width="5" stroke-dasharray="0.1 16.0" stroke-linecap="round"/>
<g transform="translate(662 168) scale(0.95)">
  <rect x="0" y="0" width="7" height="64" rx="3.5" fill="#2E2B26"/>
  <path d="M7 3 H45 A6 6 0 0 1 49.5 12.8 L41 19.5 L49.5 26.2 A6 6 0 0 1 45 36 H7 Z" fill="#E8A23D"/>
</g>
<circle cx="90" cy="120" r="6" fill="#E8A23D" opacity="0.55"/>
<circle cx="700" cy="420" r="5" fill="#214B89" opacity="0.55"/>

</svg>