<svg xmlns="http://www.w3.org/2000/svg" viewBox="0 0 760 560" width="760" height="560">
<rect width="760" height="560" rx="28" fill="#E9F0F7"/>

<path d="M0 610 L0 210 L101.33333333333334 130 L202.66666666666669 190 L304.0 100 L418.0 180 L532.0 110 L633.3333333333334 200 L760.0 150 L760.0 610 Z" fill="#DCE4F0" opacity="1.0"/>
<path d="M0 660 L0 260 L139.33333333333334 160 L266.0 240 L405.33333333333337 140 L544.6666666666666 230 L671.3333333333334 170 L760.0 240 L760.0 660 Z" fill="#214B89" opacity="0.92"/>
<path d="M0 690 L0 290 L114.0 220 L240.66666666666666 280 L380.0 205 L519.3333333333333 275 L646.0 230 L760.0 285 L760.0 690 Z" fill="#16345E" opacity="1.0"/>
<rect x="40" y="377" width="8" height="14" rx="3" fill="#A87A44" opacity="0.8"/><rect x="86" y="377" width="8" height="14" rx="3" fill="#A87A44" opacity="0.8"/><rect x="132" y="377" width="8" height="14" rx="3" fill="#A87A44" opacity="0.8"/><rect x="178" y="377" width="8" height="14" rx="3" fill="#A87A44" opacity="0.8"/><rect x="224" y="377" width="8" height="14" rx="3" fill="#A87A44" opacity="0.8"/><rect x="270" y="377" width="8" height="14" rx="3" fill="#A87A44" opacity="0.8"/><rect x="316" y="377" width="8" height="14" rx="3" fill="#A87A44" opacity="0.8"/><rect x="362" y="377" width="8" height="14" rx="3" fill="#A87A44" opacity="0.8"/><rect x="408" y="377" width="8" height="14" rx="3" fill="#A87A44" opacity="0.8"/><rect x="454" y="377" width="8" height="14" rx="3" fill="#A87A44" opacity="0.8"/><rect x="500" y="377" width="8" height="14" rx="3" fill="#A87A44" opacity="0.8"/><rect x="546" y="377" width="8" height="14" rx="3" fill="#A87A44" opacity="0.8"/><rect x="592" y="377" width="8" height="14" rx="3" fill="#A87A44" opacity="0.8"/><rect x="638" y="377" width="8" height="14" rx="3" fill="#A87A44" opacity="0.8"/><rect x="684" y="377" width="8" height="14" rx="3" fill="#A87A44" opacity="0.8"/><rect x="30" y="380" width="700" height="7" rx="3.5" fill="#2E2B26"/>
<rect x="130" y="467" width="8" height="14" rx="3" fill="#A87A44" opacity="0.8"/><rect x="176" y="467" width="8" height="14" rx="3" fill="#A87A44" opacity="0.8"/><rect x="222" y="467" width="8" height="14" rx="3" fill="#A87A44" opacity="0.8"/><rect x="268" y="467" width="8" height="14" rx="3" fill="#A87A44" opacity="0.8"/><rect x="314" y="467" width="8" height="14" rx="3" fill="#A87A44" opacity="0.8"/><rect x="360" y="467" width="8" height="14" rx="3" fill="#A87A44" opacity="0.8"/><rect x="406" y="467" width="8" height="14" rx="3" fill="#A87A44" opacity="0.8"/><rect x="452" y="467" width="8" height="14" rx="3" fill="#A87A44" opacity="0.8"/><rect x="498" y="467" width="8" height="14" rx="3" fill="#A87A44" opacity="0.8"/><rect x="544" y="467" width="8" height="14" rx="3" fill="#A87A44" opacity="0.8"/><rect x="590" y="467" width="8" height="14" rx="3" fill="#A87A44" opacity="0.8"/><rect x="120" y="470" width="520" height="7" rx="3.5" fill="#2E2B26"/>
<path d="M240 387 C 300 400, 330 440, 370 462" fill="none" stroke="#2E2B26" stroke-width="7"/>
<g transform="translate(160 340) scale(0.9)">
  <g transform="translate(0 0)"><path transform="translate(-16 -34) scale(0.8)" fill="#E8A23D" d="M-15 2 L-9 -12 L4 -14 L15 -6 L13 8 L2 13 L-10 10 Z"/><path transform="translate(-16 -34) scale(0.8)" d="M-6 -6 L2 -8" stroke="#FFF" stroke-width="3" stroke-linecap="round" opacity="0.75"/><path transform="translate(10 -38) scale(0.9)" fill="#E8A23D" d="M-15 2 L-9 -12 L4 -14 L15 -6 L13 8 L2 13 L-10 10 Z"/><path transform="translate(10 -38) scale(0.9)" d="M-6 -6 L2 -8" stroke="#FFF" stroke-width="3" stroke-linecap="round" opacity="0.75"/><path transform="translate(-2 -30) scale(0.7)" fill="#E8A23D" d="M-15 2 L-9 -12 L4 -14 L15 -6 L13 8 L2 13 L-10 10 Z"/><path transform="translate(-2 -30) scale(0.7)" d="M-6 -6 L2 -8" stroke="#FFF" stroke-width="3" stroke-linecap="round" opacity="0.75"/></g>
  <path d="M-42 -28 h84 l-10 44 h-64 Z" fill="#214B89"/>
  <path d="M-42 -28 h84 l-2.5 11 h-79 Z" fill="#000" opacity="0.15"/>
  <circle cx="-22" cy="24" r="11" fill="#2E2B26"/><circle cx="22" cy="24" r="11" fill="#2E2B26"/>
  <circle cx="-22" cy="24" r="4" fill="#FAF5EC"/><circle cx="22" cy="24" r="4" fill="#FAF5EC"/>
</g>
<g transform="translate(430 430) scale(1.05)">
  <g transform="translate(0 0)"><path transform="translate(-16 -34) scale(0.8)" fill="#E8A23D" d="M-15 2 L-9 -12 L4 -14 L15 -6 L13 8 L2 13 L-10 10 Z"/><path transform="translate(-16 -34) scale(0.8)" d="M-6 -6 L2 -8" stroke="#FFF" stroke-width="3" stroke-linecap="round" opacity="0.75"/><path transform="translate(10 -38) scale(0.9)" fill="#E8A23D" d="M-15 2 L-9 -12 L4 -14 L15 -6 L13 8 L2 13 L-10 10 Z"/><path transform="translate(10 -38) scale(0.9)" d="M-6 -6 L2 -8" stroke="#FFF" stroke-width="3" stroke-linecap="round" opacity="0.75"/><path transform="translate(-2 -30) scale(0.7)" fill="#E8A23D" d="M-15 2 L-9 -12 L4 -14 L15 -6 L13 8 L2 13 L-10 10 Z"/><path transform="translate(-2 -30) scale(0.7)" d="M-6 -6 L2 -8" stroke="#FFF" stroke-width="3" stroke-linecap="round" opacity="0.75"/></g>
  <path d="M-42 -28 h84 l-10 44 h-64 Z" fill="#214B89"/>
  <path d="M-42 -28 h84 l-2.5 11 h-79 Z" fill="#000" opacity="0.15"/>
  <circle cx="-22" cy="24" r="11" fill="#2E2B26"/><circle cx="22" cy="24" r="11" fill="#2E2B26"/>
  <circle cx="-22" cy="24" r="4" fill="#FAF5EC"/><circle cx="22" cy="24" r="4" fill="#FAF5EC"/>
</g>
<g transform="translate(620 430) scale(0.9)">
  <g transform="translate(0 0)"></g>
  <path d="M-42 -28 h84 l-10 44 h-64 Z" fill="#214B89"/>
  <path d="M-42 -28 h84 l-2.5 11 h-79 Z" fill="#000" opacity="0.15"/>
  <circle cx="-22" cy="24" r="11" fill="#2E2B26"/><circle cx="22" cy="24" r="11" fill="#2E2B26"/>
  <circle cx="-22" cy="24" r="4" fill="#FAF5EC"/><circle cx="22" cy="24" r="4" fill="#FAF5EC"/>
</g>
<rect x="586" y="320" width="70" height="88" rx="12" fill="#FFFFFF" stroke="#2E2B26" stroke-width="5"/>
<circle cx="610" cy="350" r="9" fill="#12948C"/>
<path d="M605.5 350 l4 4 7.5 -8.5" fill="none" stroke="#FFF" stroke-width="3" stroke-linecap="round" stroke-linejoin="round"/>
<rect x="626" y="345.5" width="14" height="9" rx="4.5" fill="#2E2B26" opacity="0.25"/>
<g transform="translate(60 250) scale(0.9)">
  <rect x="0" y="0" width="7" height="64" rx="3.5" fill="#2E2B26"/>
  <path d="M7 3 H45 A6 6 0 0 1 49.5 12.8 L41 19.5 L49.5 26.2 A6 6 0 0 1 45 36 H7 Z" fill="#12948C"/>
</g>
<circle cx="680" cy="120" r="6" fill="#E8A23D" opacity="0.55"/>
<circle cx="90" cy="120" r="5" fill="#214B89" opacity="0.55"/>
<circle cx="360" cy="180" r="6" fill="#12948C" opacity="0.55"/>

</svg>