<svg xmlns="http://www.w3.org/2000/svg" viewBox="0 0 900 230" width="900" height="230">
<path d="M180 150 C 280 110, 360 176, 450 140 S 620 96, 716 128" fill="none" stroke="#A03A2C" stroke-width="6" stroke-dasharray="0.1 19.200000000000003" stroke-linecap="round"/>
<g transform="translate(40 62) rotate(-4) scale(0.72)">
  <path d="M0 10 L74 0 L74 150 L0 160 Z" fill="#FFFFFF" stroke="#2E2B26" stroke-width="4"/>
  <path d="M74 0 L148 10 L148 160 L74 150 Z" fill="#FAF5EC" stroke="#2E2B26" stroke-width="4"/>
  <path d="M148 10 L222 0 L222 150 L148 160 Z" fill="#FFFFFF" stroke="#2E2B26" stroke-width="4"/>
  <g fill="none" stroke="#12948C" stroke-width="3" opacity="0.6">
    <path d="M14 46 C 40 34, 56 52, 66 44"/>
    <path d="M84 100 C 108 88, 126 106, 140 96"/>
    <path d="M158 40 C 182 30, 200 46, 212 38"/>
  </g>
  <path d="M20 130 C 60 110, 90 130, 120 100 S 176 70, 196 62" fill="none" stroke="#A03A2C" stroke-width="5" stroke-dasharray="0.1 16.0" stroke-linecap="round"/>
  <g stroke="#C77F1B" stroke-width="7" stroke-linecap="round">
    <path d="M188 52 l16 18 M204 52 l-16 18"/>
  </g>
</g>
<g>
  <path d="M400 176 q50 -34 100 0 l0 22 q-50 22 -100 0 Z" fill="#EAD5B8"/>
  <g transform="translate(450 66) rotate(10) scale(0.78)">
  <path d="M-14 0 h28 a10 10 0 0 1 0 20 h-8 v8 h-12 v-8 h-8 a10 10 0 0 1 0 -20 Z" fill="#C89A62"/>
  <rect x="-5" y="26" width="10" height="62" rx="5" fill="#C89A62"/>
  <path d="M-20 88 h40 v18 a20 22 0 0 1 -40 0 Z" fill="#214B89"/>
  <rect x="-5" y="82" width="10" height="12" rx="4" fill="#C89A62"/>
</g>
  <path transform="translate(430 182) scale(0.7)" fill="#C77F1B" d="M-15 2 L-9 -12 L4 -14 L15 -6 L13 8 L2 13 L-10 10 Z"/>
</g>
<g>
  <g transform="translate(760 60) scale(1.0)">
  <rect x="0" y="0" width="7" height="64" rx="3.5" fill="#2E2B26"/>
  <path d="M7 3 H45 A6 6 0 0 1 49.5 12.8 L41 19.5 L49.5 26.2 A6 6 0 0 1 45 36 H7 Z" fill="#A03A2C"/>
</g>
  <path transform="translate(790 140) scale(1.25)" fill="#E8A23D" d="M-15 2 L-9 -12 L4 -14 L15 -6 L13 8 L2 13 L-10 10 Z"/><path transform="translate(790 140) scale(1.25)" d="M-6 -6 L2 -8" stroke="#FFF" stroke-width="3" stroke-linecap="round" opacity="0.75"/>
  <g stroke="#F3C87E" stroke-width="4" stroke-linecap="round"><path d="M818 116 l7 -7 M824 140 h9"/></g>
</g>
</svg>