<svg xmlns="http://www.w3.org/2000/svg" viewBox="0 0 760 560" width="760" height="560">
<rect width="760" height="560" rx="28" fill="#E9F0F7"/>

<path d="M40 500 L170 300 L300 500 Z" fill="#DCE4F0"/>
<path d="M230 500 L392 210 L560 500 Z" fill="#214B89"/>
<path d="M470 500 L620 120 L760 480 L760 500 Z" fill="#16345E"/>
<g transform="translate(160 246) scale(0.8)">
  <rect x="0" y="0" width="7" height="64" rx="3.5" fill="#2E2B26"/>
  <path d="M7 3 H45 A6 6 0 0 1 49.5 12.8 L41 19.5 L49.5 26.2 A6 6 0 0 1 45 36 H7 Z" fill="#12948C"/>
</g>
<g transform="translate(384 152) scale(0.9)">
  <rect x="0" y="0" width="7" height="64" rx="3.5" fill="#2E2B26"/>
  <path d="M7 3 H45 A6 6 0 0 1 49.5 12.8 L41 19.5 L49.5 26.2 A6 6 0 0 1 45 36 H7 Z" fill="#A03A2C"/>
</g>
<g transform="translate(612 62) scale(1.0)">
  <rect x="0" y="0" width="7" height="64" rx="3.5" fill="#2E2B26"/>
  <path d="M7 3 H45 A6 6 0 0 1 49.5 12.8 L41 19.5 L49.5 26.2 A6 6 0 0 1 45 36 H7 Z" fill="#E8A23D"/>
</g>
<path transform="translate(196 292) scale(0.7)" fill="#E8A23D" d="M-15 2 L-9 -12 L4 -14 L15 -6 L13 8 L2 13 L-10 10 Z"/><path transform="translate(196 292) scale(0.7)" d="M-6 -6 L2 -8" stroke="#FFF" stroke-width="3" stroke-linecap="round" opacity="0.75"/><path transform="translate(424 202) scale(0.85)" fill="#E8A23D" d="M-15 2 L-9 -12 L4 -14 L15 -6 L13 8 L2 13 L-10 10 Z"/><path transform="translate(424 202) scale(0.85)" d="M-6 -6 L2 -8" stroke="#FFF" stroke-width="3" stroke-linecap="round" opacity="0.75"/><path transform="translate(652 112) scale(1.05)" fill="#E8A23D" d="M-15 2 L-9 -12 L4 -14 L15 -6 L13 8 L2 13 L-10 10 Z"/><path transform="translate(652 112) scale(1.05)" d="M-6 -6 L2 -8" stroke="#FFF" stroke-width="3" stroke-linecap="round" opacity="0.75"/>
<circle cx="90" cy="90" r="30" fill="#E8A23D"/><g stroke="#E8A23D" stroke-width="6.0" stroke-linecap="round" opacity="0.75"><path d="M90 34 v12"/><path d="M131.4 48.6 l-8.399999999999999 8.399999999999999"/><path d="M48.6 48.6 l8.399999999999999 8.399999999999999"/></g>
<path d="M70 520 C 220 500, 300 470, 392 430 S 560 330, 616 140" fill="none" stroke="#FAF5EC" stroke-width="5" stroke-dasharray="0.1 16.0" stroke-linecap="round"/>
<rect x="0" y="500" width="760" height="60" fill="#16345E"/>
<rect x="0" y="500" width="760" height="60" fill="#000" opacity="0.12"/>
<circle cx="700" cy="220" r="6" fill="#E8A23D" opacity="0.55"/>
<circle cx="300" cy="120" r="5" fill="#214B89" opacity="0.55"/>

</svg>