<svg xmlns="http://www.w3.org/2000/svg" viewBox="0 0 760 560" width="760" height="560">
<rect width="760" height="560" rx="28" fill="#E9F0F7"/>

<path d="M60 560 L380 90 L700 560 Z" fill="#214B89"/>
<path d="M170 560 L380 250 L590 560 Z" fill="#16345E"/>
<circle cx="380" cy="430" r="104" fill="#2E2B26"/>
<circle cx="380" cy="430" r="88" fill="#DCE4F0"/>
<circle cx="380" cy="430" r="60" fill="#214B89"/>
<circle cx="380" cy="430" r="18" fill="#E8A23D"/>
<g stroke="#FAF5EC" stroke-width="9" stroke-linecap="round">
  <path d="M380 384 v20"/><path d="M380 456 v20"/><path d="M334 430 h20"/><path d="M406 430 h20"/>
</g>
<path d="M380 96 l44 18 v34 c0 30 -20 52 -44 62 c-24 -10 -44 -32 -44 -62 v-34 Z" fill="#12948C"/>
<path d="M362 148 l13 13 24 -27" fill="none" stroke="#FFF" stroke-width="8" stroke-linecap="round" stroke-linejoin="round"/>
<path transform="translate(320 542) scale(0.8)" fill="#E8A23D" d="M-15 2 L-9 -12 L4 -14 L15 -6 L13 8 L2 13 L-10 10 Z"/><path transform="translate(320 542) scale(0.8)" d="M-6 -6 L2 -8" stroke="#FFF" stroke-width="3" stroke-linecap="round" opacity="0.75"/><path transform="translate(438 546) scale(0.7)" fill="#E8A23D" d="M-15 2 L-9 -12 L4 -14 L15 -6 L13 8 L2 13 L-10 10 Z"/><path transform="translate(438 546) scale(0.7)" d="M-6 -6 L2 -8" stroke="#FFF" stroke-width="3" stroke-linecap="round" opacity="0.75"/>
<circle cx="90" cy="110" r="6" fill="#E8A23D" opacity="0.55"/>
<circle cx="680" cy="140" r="6" fill="#214B89" opacity="0.55"/>

</svg>