<svg xmlns="http://www.w3.org/2000/svg" viewBox="0 0 760 560" width="760" height="560">
<rect width="760" height="560" rx="28" fill="#F4E3D7"/>

<rect x="70" y="150.0" width="330" height="54.3" fill="#EAD5B8"/>
<rect x="70" y="203.3" width="330" height="54.3" fill="#DFC49F"/>
<rect x="70" y="256.7" width="330" height="54.3" fill="#A03A2C"/>
<rect x="70" y="310.0" width="330" height="54.3" fill="#8A5A3B"/>
<rect x="70" y="363.3" width="330" height="54.3" fill="#214B89"/>
<rect x="70" y="416.7" width="330" height="54.3" fill="#16345E"/>
<path d="M103.0 326.0 C 169.0 278.0, 235.0 390.0, 301.0 342.0 S 383.5 310.0, 400 348.4" fill="none" stroke="#E8A23D" stroke-width="9" stroke-linecap="round"/>
<rect x="70" y="150" width="330" height="320" fill="none" stroke="#2E2B26" stroke-width="6" rx="2"/>
<g transform="translate(300 66) rotate(34) scale(1.0)">
  <rect x="-5" y="-10" width="10" height="120" rx="5" fill="#C89A62"/>
  <path d="M0 -8 C -46 -22 -66 -10 -78 8 C -52 -4 -30 -2 0 8 C 30 -2 52 -4 78 8 C 66 -10 46 -22 0 -8 Z" fill="#16345E"/>
</g>
<path d="M410 200 h74" fill="none" stroke="#6E675C" stroke-width="5" stroke-dasharray="0.1 16.0" stroke-linecap="round"/><path d="M410 290 h74" fill="none" stroke="#6E675C" stroke-width="5" stroke-dasharray="0.1 16.0" stroke-linecap="round"/><path d="M410 380 h74" fill="none" stroke="#6E675C" stroke-width="5" stroke-dasharray="0.1 16.0" stroke-linecap="round"/>
<rect x="500" y="150" width="180" height="64" rx="12" fill="#FFFFFF" stroke="#2E2B26" stroke-width="4"/><circle cx="528" cy="182" r="10" fill="#214B89"/><rect x="548" y="168" width="112" height="10" rx="5" fill="#2E2B26" opacity="0.3"/><rect x="548" y="187" width="80" height="10" rx="5" fill="#2E2B26" opacity="0.16"/><rect x="500" y="240" width="180" height="64" rx="12" fill="#FFFFFF" stroke="#2E2B26" stroke-width="4"/><circle cx="528" cy="272" r="10" fill="#12948C"/><rect x="548" y="258" width="112" height="10" rx="5" fill="#2E2B26" opacity="0.3"/><rect x="548" y="277" width="80" height="10" rx="5" fill="#2E2B26" opacity="0.16"/><rect x="500" y="330" width="180" height="64" rx="12" fill="#FFFFFF" stroke="#2E2B26" stroke-width="4"/><circle cx="528" cy="362" r="10" fill="#E8A23D"/><rect x="548" y="348" width="112" height="10" rx="5" fill="#2E2B26" opacity="0.3"/><rect x="548" y="367" width="80" height="10" rx="5" fill="#2E2B26" opacity="0.16"/><rect x="500" y="420" width="180" height="64" rx="12" fill="#FFFFFF" stroke="#2E2B26" stroke-width="4"/><circle cx="528" cy="452" r="10" fill="#A03A2C"/><rect x="548" y="438" width="112" height="10" rx="5" fill="#2E2B26" opacity="0.3"/><rect x="548" y="457" width="80" height="10" rx="5" fill="#2E2B26" opacity="0.16"/>
<circle cx="60" cy="80" r="6" fill="#E8A23D" opacity="0.55"/>
<circle cx="700" cy="80" r="6" fill="#214B89" opacity="0.55"/>

</svg>