<svg xmlns="http://www.w3.org/2000/svg" viewBox="0 0 760 560" width="760" height="560">
<rect width="760" height="560" rx="28" fill="#E9F0F7"/>

<g transform="translate(150 130) rotate(-3) scale(2.0)">
  <path d="M0 10 L74 0 L74 150 L0 160 Z" fill="#FFFFFF" stroke="#2E2B26" stroke-width="4"/>
  <path d="M74 0 L148 10 L148 160 L74 150 Z" fill="#FAF5EC" stroke="#2E2B26" stroke-width="4"/>
  <path d="M148 10 L222 0 L222 150 L148 160 Z" fill="#FFFFFF" stroke="#2E2B26" stroke-width="4"/>
  <g fill="none" stroke="#12948C" stroke-width="3" opacity="0.6">
    <path d="M14 46 C 40 34, 56 52, 66 44"/>
    <path d="M84 100 C 108 88, 126 106, 140 96"/>
    <path d="M158 40 C 182 30, 200 46, 212 38"/>
  </g>
  <path d="M20 130 C 60 110, 90 130, 120 100 S 176 70, 196 62" fill="none" stroke="#A03A2C" stroke-width="5" stroke-dasharray="0.1 16.0" stroke-linecap="round"/>
  <g stroke="#C77F1B" stroke-width="7" stroke-linecap="round">
    <path d="M188 52 l16 18 M204 52 l-16 18"/>
  </g>
</g>
<g transform="translate(300 128) rotate(-24) scale(1.35)">
  <path d="M-14 0 h28 a10 10 0 0 1 0 20 h-8 v8 h-12 v-8 h-8 a10 10 0 0 1 0 -20 Z" fill="#C89A62"/>
  <rect x="-5" y="26" width="10" height="62" rx="5" fill="#C89A62"/>
  <path d="M-20 88 h40 v18 a20 22 0 0 1 -40 0 Z" fill="#214B89"/>
  <rect x="-5" y="82" width="10" height="12" rx="4" fill="#C89A62"/>
</g>
<g transform="translate(452 168) rotate(22) scale(1.15)">
  <rect x="-5" y="-10" width="10" height="120" rx="5" fill="#C89A62"/>
  <path d="M0 -8 C -46 -22 -66 -10 -78 8 C -52 -4 -30 -2 0 8 C 30 -2 52 -4 78 8 C 66 -10 46 -22 0 -8 Z" fill="#0E6E68"/>
</g>
<g transform="translate(560 430) scale(0.85)">
  <ellipse cx="0" cy="0" rx="86" ry="30" fill="#16345E"/>
  <ellipse cx="0" cy="-5" rx="70" ry="22" fill="#214B89"/>
</g>
<path transform="translate(538 414) scale(0.9)" fill="#E8A23D" d="M-15 2 L-9 -12 L4 -14 L15 -6 L13 8 L2 13 L-10 10 Z"/><path transform="translate(538 414) scale(0.9)" d="M-6 -6 L2 -8" stroke="#FFF" stroke-width="3" stroke-linecap="round" opacity="0.75"/><path transform="translate(586 418) scale(0.75)" fill="#E8A23D" d="M-15 2 L-9 -12 L4 -14 L15 -6 L13 8 L2 13 L-10 10 Z"/><path transform="translate(586 418) scale(0.75)" d="M-6 -6 L2 -8" stroke="#FFF" stroke-width="3" stroke-linecap="round" opacity="0.75"/><path transform="translate(562 402) scale(0.6)" fill="#E8A23D" d="M-15 2 L-9 -12 L4 -14 L15 -6 L13 8 L2 13 L-10 10 Z"/><path transform="translate(562 402) scale(0.6)" d="M-6 -6 L2 -8" stroke="#FFF" stroke-width="3" stroke-linecap="round" opacity="0.75"/>
<circle cx="140" cy="419.1" r="62.099999999999994" fill="#F3C87E" opacity="0.35"/><g transform="translate(140 380) scale(1.15)">
  <path d="M-10 -14 a10 10 0 0 1 20 0" fill="none" stroke="#2E2B26" stroke-width="5" stroke-linecap="round"/>
  <rect x="-16" y="-8" width="32" height="10" rx="4" fill="#2E2B26"/>
  <path d="M-13 2 h26 l5 40 h-36 Z" fill="#0E6E68"/>
  <rect x="-9" y="8" width="18" height="26" rx="6" fill="#E8A23D"/>
  <rect x="-18" y="42" width="36" height="9" rx="4" fill="#2E2B26"/>
</g>
<circle cx="90" cy="90" r="6" fill="#E8A23D" opacity="0.55"/>
<circle cx="680" cy="90" r="7" fill="#214B89" opacity="0.55"/>
<circle cx="700" cy="300" r="5" fill="#12948C" opacity="0.55"/>

</svg>