<svg xmlns="http://www.w3.org/2000/svg" viewBox="0 0 760 560" width="760" height="560">
<rect width="760" height="560" rx="28" fill="#E9F0F7"/>

<rect x="424" y="110" width="268" height="360" rx="18" fill="#FFFFFF" stroke="#2E2B26" stroke-width="5"/>
<rect x="452" y="132" width="140" height="14" rx="7" fill="#2E2B26" opacity="0.35"/>
<rect x="452" y="170" width="212" height="46" rx="10" fill="#FAF5EC" stroke="#2E2B26" stroke-width="3.5"/><rect x="468" y="186" width="96" height="13" rx="6.5" fill="#E8A23D"/><circle cx="640" cy="193" r="10" fill="#12948C"/><path d="M635 193 l4 4 8 -9" fill="none" stroke="#FFF" stroke-width="3" stroke-linecap="round" stroke-linejoin="round"/><rect x="452" y="238" width="212" height="46" rx="10" fill="#FAF5EC" stroke="#2E2B26" stroke-width="3.5"/><rect x="468" y="254" width="118" height="13" rx="6.5" fill="#E8A23D"/><circle cx="640" cy="261" r="10" fill="#12948C"/><path d="M635 261 l4 4 8 -9" fill="none" stroke="#FFF" stroke-width="3" stroke-linecap="round" stroke-linejoin="round"/><rect x="452" y="306" width="212" height="46" rx="10" fill="#FAF5EC" stroke="#2E2B26" stroke-width="3.5"/><rect x="468" y="322" width="140" height="13" rx="6.5" fill="#E8A23D"/><circle cx="640" cy="329" r="10" fill="#12948C"/><path d="M635 329 l4 4 8 -9" fill="none" stroke="#FFF" stroke-width="3" stroke-linecap="round" stroke-linejoin="round"/><rect x="452" y="374" width="212" height="46" rx="10" fill="#FAF5EC" stroke="#2E2B26" stroke-width="3.5"/>
<rect x="80" y="150" width="220" height="150" rx="16" fill="#FFFFFF" stroke="#2E2B26" stroke-width="5"/>
<circle cx="130" cy="200" r="24" fill="#EAD5B8"/>
<path d="M130 192 a9 9 0 1 1 0.1 0 M112 218 a20 12 0 0 1 36 0" fill="#214B89"/>
<rect x="168" y="182" width="108" height="11" rx="5.5" fill="#2E2B26" opacity="0.3"/>
<rect x="168" y="204" width="84" height="11" rx="5.5" fill="#2E2B26" opacity="0.18"/>
<rect x="100" y="252" width="176" height="11" rx="5.5" fill="#12948C" opacity="0.5"/>
<path d="M300 210 C 360 190, 396 186, 452 192" fill="none" stroke="#C77F1B" stroke-width="6" stroke-dasharray="0.1 19.200000000000003" stroke-linecap="round"/>
<path d="M300 250 C 360 260, 400 268, 452 262" fill="none" stroke="#C77F1B" stroke-width="6" stroke-dasharray="0.1 19.200000000000003" stroke-linecap="round"/>
<path d="M290 290 C 356 330, 400 336, 452 330" fill="none" stroke="#C77F1B" stroke-width="6" stroke-dasharray="0.1 19.200000000000003" stroke-linecap="round"/>
<circle cx="380" cy="186" r="6" fill="#E8A23D"/>
<circle cx="384" cy="264" r="6" fill="#E8A23D"/>
<circle cx="376" cy="330" r="6" fill="#E8A23D"/>
<g transform="translate(120 350) rotate(16) scale(0.9)">
  <path d="M-14 0 h28 a10 10 0 0 1 0 20 h-8 v8 h-12 v-8 h-8 a10 10 0 0 1 0 -20 Z" fill="#C89A62"/>
  <rect x="-5" y="26" width="10" height="62" rx="5" fill="#C89A62"/>
  <path d="M-20 88 h40 v18 a20 22 0 0 1 -40 0 Z" fill="#0E6E68"/>
  <rect x="-5" y="82" width="10" height="12" rx="4" fill="#C89A62"/>
</g>
<circle cx="690" cy="90" r="6" fill="#E8A23D" opacity="0.55"/>
<circle cx="60" cy="100" r="6" fill="#214B89" opacity="0.55"/>

</svg>