<svg xmlns="http://www.w3.org/2000/svg" viewBox="0 0 760 560" width="760" height="560">
<rect width="760" height="560" rx="28" fill="#D8EAE7"/>

<rect x="76" y="96" width="278" height="230" rx="16" fill="#FFFFFF" stroke="#2E2B26" stroke-width="5"/>
<rect x="76" y="96" width="278" height="52" rx="16" fill="#12948C"/>
<rect x="76" y="122" width="278" height="26" fill="#12948C"/>
<rect x="96" y="112" width="70" height="11" rx="5.5" fill="#FFFFFF" opacity="0.9"/>
<rect x="182" y="112" width="70" height="11" rx="5.5" fill="#FFFFFF" opacity="0.7"/>
<rect x="268" y="112" width="66" height="11" rx="5.5" fill="#FFFFFF" opacity="0.7"/>
<circle cx="116" cy="192" r="9" fill="#12948C"/><path d="M111.5 192 l4 4 7.5 -8.5" fill="none" stroke="#FFF" stroke-width="3" stroke-linecap="round" stroke-linejoin="round"/><rect x="134" y="187" width="34" height="10" rx="5" fill="#2E2B26" opacity="0.22"/><rect x="192" y="187" width="62" height="10" rx="5" fill="#2E2B26" opacity="0.22"/><circle cx="288" cy="192" r="9" fill="#12948C"/><path d="M283.5 192 l4 4 7.5 -8.5" fill="none" stroke="#FFF" stroke-width="3" stroke-linecap="round" stroke-linejoin="round"/><rect x="306" y="187" width="34" height="10" rx="5" fill="#2E2B26" opacity="0.22"/><rect x="106" y="241" width="62" height="10" rx="5" fill="#2E2B26" opacity="0.22"/><circle cx="202" cy="246" r="9" fill="#12948C"/><path d="M197.5 246 l4 4 7.5 -8.5" fill="none" stroke="#FFF" stroke-width="3" stroke-linecap="round" stroke-linejoin="round"/><rect x="220" y="241" width="34" height="10" rx="5" fill="#2E2B26" opacity="0.22"/><rect x="278" y="241" width="62" height="10" rx="5" fill="#2E2B26" opacity="0.22"/><circle cx="116" cy="300" r="9" fill="#12948C"/><path d="M111.5 300 l4 4 7.5 -8.5" fill="none" stroke="#FFF" stroke-width="3" stroke-linecap="round" stroke-linejoin="round"/><rect x="134" y="295" width="34" height="10" rx="5" fill="#2E2B26" opacity="0.22"/><rect x="192" y="295" width="62" height="10" rx="5" fill="#2E2B26" opacity="0.22"/><circle cx="288" cy="300" r="9" fill="#12948C"/><path d="M283.5 300 l4 4 7.5 -8.5" fill="none" stroke="#FFF" stroke-width="3" stroke-linecap="round" stroke-linejoin="round"/><rect x="306" y="295" width="34" height="10" rx="5" fill="#2E2B26" opacity="0.22"/>
<path d="M380 200 C 470 210, 520 280, 545 350" fill="none" stroke="#C77F1B" stroke-width="6" stroke-dasharray="0.1 19.200000000000003" stroke-linecap="round"/>
<path d="M400 300 C 460 320, 500 360, 528 392" fill="none" stroke="#C77F1B" stroke-width="5" stroke-dasharray="0.1 16.0" stroke-linecap="round"/>
<path transform="translate(444 236) scale(0.7)" fill="#E8A23D" d="M-15 2 L-9 -12 L4 -14 L15 -6 L13 8 L2 13 L-10 10 Z"/><path transform="translate(444 236) scale(0.7)" d="M-6 -6 L2 -8" stroke="#FFF" stroke-width="3" stroke-linecap="round" opacity="0.75"/><path transform="translate(492 320) scale(0.6)" fill="#E8A23D" d="M-15 2 L-9 -12 L4 -14 L15 -6 L13 8 L2 13 L-10 10 Z"/><path transform="translate(492 320) scale(0.6)" d="M-6 -6 L2 -8" stroke="#FFF" stroke-width="3" stroke-linecap="round" opacity="0.75"/>
<g transform="translate(520 448) scale(1.05)">
  <ellipse cx="0" cy="0" rx="86" ry="30" fill="#16345E"/>
  <ellipse cx="0" cy="-5" rx="70" ry="22" fill="#214B89"/>
</g>
<path transform="translate(492 428) scale(0.9)" fill="#E8A23D" d="M-15 2 L-9 -12 L4 -14 L15 -6 L13 8 L2 13 L-10 10 Z"/><path transform="translate(492 428) scale(0.9)" d="M-6 -6 L2 -8" stroke="#FFF" stroke-width="3" stroke-linecap="round" opacity="0.75"/><path transform="translate(548 434) scale(0.8)" fill="#E8A23D" d="M-15 2 L-9 -12 L4 -14 L15 -6 L13 8 L2 13 L-10 10 Z"/><path transform="translate(548 434) scale(0.8)" d="M-6 -6 L2 -8" stroke="#FFF" stroke-width="3" stroke-linecap="round" opacity="0.75"/><path transform="translate(522 418) scale(0.65)" fill="#E8A23D" d="M-15 2 L-9 -12 L4 -14 L15 -6 L13 8 L2 13 L-10 10 Z"/><path transform="translate(522 418) scale(0.65)" d="M-6 -6 L2 -8" stroke="#FFF" stroke-width="3" stroke-linecap="round" opacity="0.75"/>
<circle cx="660" cy="140" r="6" fill="#E8A23D" opacity="0.55"/>
<circle cx="70" cy="420" r="6" fill="#214B89" opacity="0.55"/>

</svg>