<svg xmlns="http://www.w3.org/2000/svg" viewBox="0 0 760 560" width="760" height="560">
<rect width="760" height="560" rx="28" fill="#FBEFD9"/>

<path d="M0 670 L0 270 L101.33333333333334 190 L202.66666666666669 250 L304.0 160 L418.0 240 L532.0 170 L633.3333333333334 260 L760.0 210 L760.0 670 Z" fill="#DCE4F0" opacity="1.0"/>
<path d="M0 720 L0 320 L139.33333333333334 220 L266.0 300 L405.33333333333337 200 L544.6666666666666 290 L671.3333333333334 230 L760.0 300 L760.0 720 Z" fill="#214B89" opacity="0.92"/>
<path d="M0 750 L0 350 L114.0 280 L240.66666666666666 340 L380.0 265 L519.3333333333333 335 L646.0 290 L760.0 345 L760.0 750 Z" fill="#16345E" opacity="1.0"/>
<circle cx="120" cy="100" r="34" fill="#E8A23D"/><g stroke="#E8A23D" stroke-width="6.800000000000001" stroke-linecap="round" opacity="0.75"><path d="M120 40 v12"/><path d="M164.4 55.6 l-8.399999999999999 8.399999999999999"/><path d="M75.6 55.6 l8.399999999999999 8.399999999999999"/></g>
<rect x="50" y="467" width="8" height="14" rx="3" fill="#A87A44" opacity="0.8"/><rect x="96" y="467" width="8" height="14" rx="3" fill="#A87A44" opacity="0.8"/><rect x="142" y="467" width="8" height="14" rx="3" fill="#A87A44" opacity="0.8"/><rect x="188" y="467" width="8" height="14" rx="3" fill="#A87A44" opacity="0.8"/><rect x="234" y="467" width="8" height="14" rx="3" fill="#A87A44" opacity="0.8"/><rect x="280" y="467" width="8" height="14" rx="3" fill="#A87A44" opacity="0.8"/><rect x="326" y="467" width="8" height="14" rx="3" fill="#A87A44" opacity="0.8"/><rect x="372" y="467" width="8" height="14" rx="3" fill="#A87A44" opacity="0.8"/><rect x="418" y="467" width="8" height="14" rx="3" fill="#A87A44" opacity="0.8"/><rect x="464" y="467" width="8" height="14" rx="3" fill="#A87A44" opacity="0.8"/><rect x="510" y="467" width="8" height="14" rx="3" fill="#A87A44" opacity="0.8"/><rect x="556" y="467" width="8" height="14" rx="3" fill="#A87A44" opacity="0.8"/><rect x="602" y="467" width="8" height="14" rx="3" fill="#A87A44" opacity="0.8"/><rect x="648" y="467" width="8" height="14" rx="3" fill="#A87A44" opacity="0.8"/><rect x="694" y="467" width="8" height="14" rx="3" fill="#A87A44" opacity="0.8"/><rect x="40" y="470" width="680" height="7" rx="3.5" fill="#2E2B26"/>
<g transform="translate(300 430) scale(1.15)">
  <g transform="translate(0 0)"></g>
  <path d="M-42 -28 h84 l-10 44 h-64 Z" fill="#214B89"/>
  <path d="M-42 -28 h84 l-2.5 11 h-79 Z" fill="#000" opacity="0.15"/>
  <circle cx="-22" cy="24" r="11" fill="#2E2B26"/><circle cx="22" cy="24" r="11" fill="#2E2B26"/>
  <circle cx="-22" cy="24" r="4" fill="#FAF5EC"/><circle cx="22" cy="24" r="4" fill="#FAF5EC"/>
</g>
<rect x="255" y="306" width="92" height="116" rx="12" fill="#FFFFFF" stroke="#2E2B26" stroke-width="5"/>
<circle cx="279" cy="336" r="9" fill="#12948C"/>
<path d="M274.5 336 l4 4 7.5 -8.5" fill="none" stroke="#FFF" stroke-width="3" stroke-linecap="round" stroke-linejoin="round"/>
<rect x="295" y="331.5" width="36" height="9" rx="4.5" fill="#2E2B26" opacity="0.25"/>
<circle cx="279" cy="368" r="9" fill="#12948C"/>
<path d="M274.5 368 l4 4 7.5 -8.5" fill="none" stroke="#FFF" stroke-width="3" stroke-linecap="round" stroke-linejoin="round"/>
<rect x="295" y="363.5" width="36" height="9" rx="4.5" fill="#2E2B26" opacity="0.25"/>
<g stroke="#F3C87E" stroke-width="4.5" stroke-linecap="round" opacity="0.95">
  <path d="M372 300 l8 -8 M380 326 h11 M362 282 v-11"/>
</g>
<g transform="translate(620 328) scale(1.15)">
  <rect x="0" y="0" width="7" height="64" rx="3.5" fill="#2E2B26"/>
  <path d="M7 3 H45 A6 6 0 0 1 49.5 12.8 L41 19.5 L49.5 26.2 A6 6 0 0 1 45 36 H7 Z" fill="#A03A2C"/>
</g>
<path d="M400 420 C 480 410, 550 396, 616 396" fill="none" stroke="#A03A2C" stroke-width="6" stroke-dasharray="0.1 19.200000000000003" stroke-linecap="round"/>
<circle cx="560" cy="120" r="6" fill="#E8A23D" opacity="0.55"/>
<circle cx="680" cy="220" r="6" fill="#214B89" opacity="0.55"/>

</svg>