<svg xmlns="http://www.w3.org/2000/svg" width="197.066" height="37.573" viewBox="0 0 197.066 37.573"><defs><style>.a{fill:#ea7268;}.b{fill:#6ca87d;}.c{fill:#f3a06d;}.d{fill:#f37123;}.e{fill:#fbd871;}.f{fill:#f9bc15;}.g{fill:#ea4435;}.h{fill:#34a851;}.i{fill:#547dbf;}.j{fill:#8dafdc;}.k{fill:#050505;}.l{fill:none;}.m{fill:#557ebf;}.n{fill:#ea4535;}.o{fill:#010101;}.p{fill:#f37124;}.q{fill:#fbd872;}.r{fill:#6da87d;}.s{fill:#ecc360;}.t{fill:#36a852;}.u{fill:#8eafdc;}.v{fill:#f3a16e;}.w{fill:#ea7369;}</style></defs><path class="a" d="M277.43,351.21l-.041-.029-.01.013Z" transform="translate(-247.82 -344.047)"/><path class="b" d="M277.473,351.233h-.01l.017.013Z" transform="translate(-247.853 -344.067)"/><g transform="translate(19.752 20.549)"><path class="c" d="M261.45,398.984l-.122-.04v.113h12.094L271.25,396Z" transform="translate(-261.328 -382.032)"/><path class="c" d="M261.328,373.136l9.925,13.971h0l6.206-9.019Z" transform="translate(-261.328 -373.136)"/><path class="d" d="M277.572,390.259l2.173,3.052h.114l3.923-12.073-6.206,9.019Z" transform="translate(-267.647 -376.288)"/><path class="d" d="M261.45,390.088l9.8-2.981-9.925-13.971v16.911Z" transform="translate(-261.328 -373.136)"/></g><g transform="translate(3.656 20.549)"><path class="e" d="M234.984,381.416,238.8,393.15l2.36-3.225Z" transform="translate(-234.984 -376.357)"/><path class="e" d="M245.119,386.744l9.89,3.3V373.136h0L245.085,386.7Z" transform="translate(-238.913 -373.136)"/><path class="f" d="M243.616,395.379l-.034-.048-2.36,3.225.077.238h12.207v-.113Z" transform="translate(-237.411 -381.77)"/><path class="f" d="M251.08,373.136l-16.1,5.059,6.172,8.5Z" transform="translate(-234.984 -373.136)"/></g><g transform="translate(19.752 7.146)"><g transform="translate(0 0.031)"><path class="g" d="M283.705,359.565l3.652-1.147-9.867-7.168,6.213,8.306Z" transform="translate(-267.616 -351.25)"/><path class="g" d="M261.328,369.917l16.131,4.951-.041-10.007Z" transform="translate(-261.328 -356.545)"/></g><path class="a" d="M291.314,362.982l-3.652,1.147.041,10.007,3.621-11.154Z" transform="translate(-271.572 -355.783)"/><path class="a" d="M261.328,364.6l16.088-5.057v-.01l-6.213-8.306-.017-.013-.049-.016Z" transform="translate(-261.328 -351.2)"/></g><g transform="translate(0 6.996)"><g transform="translate(0.048 0.001)"><path class="h" d="M229.078,363.235l3.608,11.106.12-9.962Z" transform="translate(-229.078 -355.733)"/><path class="h" d="M235.147,359.6l15.973,4.9-9.627-13.552-6.4,8.631Z" transform="translate(-231.416 -350.956)"/></g><path class="b" d="M232.778,359.572l6.346-8.618L229,358.313l.048.145,3.731,1.144Z" transform="translate(-229 -350.954)"/><path class="b" d="M235.051,365.082l-.064,9.98,16.1-5.059Z" transform="translate(-231.329 -356.45)"/></g><g transform="translate(10.125)"><g transform="translate(0 0.002)"><path class="i" d="M255.2,339.507l-9.627,7,9.627-3.011Z" transform="translate(-245.571 -339.507)"/><path class="i" d="M261.328,346.027V362.59l9.807-13.4Z" transform="translate(-251.701 -342.043)"/></g><path class="j" d="M271.135,346.65l.01-.013-9.817-7.133v3.984Z" transform="translate(-251.701 -339.504)"/><path class="j" d="M255.2,346.027l-9.627,3.012L255.2,362.59Z" transform="translate(-245.571 -342.042)"/></g><g transform="translate(46.05 11.763)"><path class="k" d="M317.317,362.361a7.679,7.679,0,0,1,2.737,4.116h-2.264a5.565,5.565,0,0,0-2.052-2.645,5.919,5.919,0,0,0-3.466-.986,5.438,5.438,0,0,0-2.913.8,5.494,5.494,0,0,0-2.029,2.277,7.673,7.673,0,0,0-.743,3.477,7.53,7.53,0,0,0,.743,3.439,5.493,5.493,0,0,0,2.029,2.264,5.427,5.427,0,0,0,2.913.8,5.91,5.91,0,0,0,3.466-.986,5.562,5.562,0,0,0,2.052-2.644h2.264a7.68,7.68,0,0,1-2.737,4.116,8.062,8.062,0,0,1-5.022,1.507,7.846,7.846,0,0,1-4.126-1.079,7.427,7.427,0,0,1-2.8-3.013,9.417,9.417,0,0,1-1-4.4,9.54,9.54,0,0,1,1-4.435,7.4,7.4,0,0,1,2.8-3.025,7.833,7.833,0,0,1,4.126-1.079A8.06,8.06,0,0,1,317.317,362.361Z" transform="translate(-304.37 -359.57)"/><path class="k" d="M342.841,367.861a4.931,4.931,0,0,1,1.828,2.538v-3.321h2.146V380.1h-2.146v-3.32a4.925,4.925,0,0,1-1.828,2.538,5.3,5.3,0,0,1-3.194.949,5.849,5.849,0,0,1-3.066-.807,5.562,5.562,0,0,1-2.109-2.318,7.689,7.689,0,0,1-.767-3.544,7.782,7.782,0,0,1,.767-3.558,5.556,5.556,0,0,1,2.109-2.317,5.833,5.833,0,0,1,3.066-.808A5.3,5.3,0,0,1,342.841,367.861Zm-5.752,2.242a5.73,5.73,0,0,0,0,7,4.139,4.139,0,0,0,3.171,1.269,4.406,4.406,0,0,0,2.276-.593,4.111,4.111,0,0,0,1.567-1.667,5.3,5.3,0,0,0,.566-2.5,5.38,5.38,0,0,0-.566-2.515,4.026,4.026,0,0,0-1.567-1.673,4.477,4.477,0,0,0-2.276-.579A4.138,4.138,0,0,0,337.089,370.1Z" transform="translate(-315.781 -361.928)"/><path class="k" d="M364.766,367.582a5.522,5.522,0,0,1,2.925-.746v2.348h-.66a4.574,4.574,0,0,0-2.971.936,3.767,3.767,0,0,0-1.159,3.1v6.855h-2.148V367.048H362.9v2.634A4.777,4.777,0,0,1,364.766,367.582Z" transform="translate(-326.304 -361.898)"/><path class="k" d="M383.675,365.083a4.954,4.954,0,0,1,1.829,2.538v-7.852h2.145v17.553H385.5V374a4.947,4.947,0,0,1-1.829,2.538,5.3,5.3,0,0,1-3.194.949,5.849,5.849,0,0,1-3.066-.807,5.555,5.555,0,0,1-2.109-2.318,7.691,7.691,0,0,1-.768-3.544,7.778,7.778,0,0,1,.768-3.558,5.547,5.547,0,0,1,2.109-2.318,5.833,5.833,0,0,1,3.066-.808A5.3,5.3,0,0,1,383.675,365.083Zm-5.754,2.242a5.735,5.735,0,0,0,0,7,4.146,4.146,0,0,0,3.172,1.269A4.406,4.406,0,0,0,383.37,375a4.115,4.115,0,0,0,1.567-1.667,5.3,5.3,0,0,0,.566-2.5,5.372,5.372,0,0,0-.566-2.515,4.034,4.034,0,0,0-1.567-1.673,4.476,4.476,0,0,0-2.276-.579A4.145,4.145,0,0,0,377.922,367.325Z" transform="translate(-331.666 -359.15)"/><path class="k" d="M401.379,359.126a1.714,1.714,0,0,1,2.122,0,1.355,1.355,0,0,1,0,1.922,1.719,1.719,0,0,1-2.122,0,1.351,1.351,0,0,1,0-1.922Zm2.122,4.78v13.022h-2.147V363.906Z" transform="translate(-341.952 -358.756)"/><path class="k" d="M421.213,368.3a5.863,5.863,0,0,1,1.392,4.21v7.566H420.46V372.7a4.183,4.183,0,0,0-.991-2.988,3.534,3.534,0,0,0-2.689-1.045,3.664,3.664,0,0,0-2.829,1.15,4.78,4.78,0,0,0-1.062,3.358v6.9h-2.145V367.052h2.145v3.092a4.43,4.43,0,0,1,1.757-2.443,5.056,5.056,0,0,1,2.912-.854A4.82,4.82,0,0,1,421.213,368.3Z" transform="translate(-345.752 -361.902)"/><path class="k" d="M443.654,367.861a4.956,4.956,0,0,1,1.828,2.538v-3.321h2.145V380.1h-2.145v-3.32a4.946,4.946,0,0,1-1.828,2.538,5.3,5.3,0,0,1-3.194.949,5.853,5.853,0,0,1-3.067-.807,5.547,5.547,0,0,1-2.109-2.318,7.7,7.7,0,0,1-.768-3.544,7.78,7.78,0,0,1,.768-3.558,5.542,5.542,0,0,1,2.109-2.317,5.834,5.834,0,0,1,3.067-.808A5.305,5.305,0,0,1,443.654,367.861ZM437.9,370.1a5.735,5.735,0,0,0,0,7,4.143,4.143,0,0,0,3.173,1.269,4.4,4.4,0,0,0,2.275-.593,4.121,4.121,0,0,0,1.568-1.667,5.316,5.316,0,0,0,.566-2.5,5.38,5.38,0,0,0-.566-2.515,4.039,4.039,0,0,0-1.568-1.673,4.475,4.475,0,0,0-2.275-.579A4.142,4.142,0,0,0,437.9,370.1Z" transform="translate(-354.998 -361.928)"/><path class="k" d="M463.719,359.769v17.553h-2.146V359.769Z" transform="translate(-365.525 -359.15)"/><path class="k" d="M470.509,359.126a1.714,1.714,0,0,1,2.122,0,1.351,1.351,0,0,1,0,1.922,1.719,1.719,0,0,1-2.122,0,1.351,1.351,0,0,1,0-1.922Zm2.122,4.78v13.022h-2.145V363.906Z" transform="translate(-368.845 -358.756)"/><path class="k" d="M485.217,376.242v1.9h-1.593a4.094,4.094,0,0,1-2.96-.949,4.3,4.3,0,0,1-.978-3.177v-7.023h-1.934v-1.873h1.934v-3.249h2.173v3.249h3.348v1.873h-3.348v7.069a2.446,2.446,0,0,0,.459,1.721,2.206,2.206,0,0,0,1.593.462Z" transform="translate(-371.819 -359.966)"/><path class="k" d="M494.2,367.185l4.2,10.246,3.891-10.246h2.382l-7.689,19.189h-2.428L497.246,380,491.8,367.191Z" transform="translate(-377.283 -362.035)"/></g><path class="l" d="M515.386,381.47h0l.058.109h0Z" transform="translate(-340.409 -355.829)"/><g transform="translate(173.767 27.28)"><path class="m" d="M514.614,386.868l-1.207-2.261v2.261Z" transform="translate(-513.407 -384.33)"/><path class="n" d="M516,384.154h-2.594v.082l2.594,1.3Z" transform="translate(-513.407 -384.154)"/><path class="f" d="M516,386.746v-1.14l-2.594-1.312v.186l1.209,2.267Z" transform="translate(-513.407 -384.208)"/></g><g transform="translate(177.523 11.363)"><path class="o" d="M535.364,371.647l-.422-2.691-.016-.016.423,2.684Z" transform="translate(-525.533 -362.318)"/><path class="o" d="M522.737,374.416l-2.768-.407v.01l2.768.4Z" transform="translate(-519.715 -364.29)"/><path class="o" d="M536.729,376.507l2.726.4v-.014l-2.728-.4Z" transform="translate(-526.234 -365.258)"/><path class="o" d="M536.678,375.247l2.752-1.372v-.009l-2.752,1.372Z" transform="translate(-526.215 -364.235)"/><path class="o" d="M536.564,372.2l2.813-5.278h0l-2.809,5.267Z" transform="translate(-526.171 -361.534)"/><path class="o" d="M536.776,377.044l2.7,2.608v-.012l-2.7-2.608Z" transform="translate(-526.253 -365.466)"/><path class="o" d="M530.9,384.514l-1.317,2.471h.018l1.321-2.476Z" transform="translate(-523.456 -368.375)"/><path class="o" d="M528.6,369.15l-2.256-2.173h-.012l2.255,2.173Z" transform="translate(-522.189 -361.555)"/><path class="o" d="M537.442,384.88h0l-.843-5.385v.018Z" transform="translate(-526.184 -366.424)"/><path class="p" d="M536.718,377.378a5.6,5.6,0,0,1-.116,1.159l.843,5.384h1.961v-4.274l-2.7-2.608C536.715,377.152,536.718,377.266,536.718,377.378Z" transform="translate(-526.185 -365.469)"/><path class="n" d="M535.557,371.179a4.3,4.3,0,0,1,.376,1.014l2.81-5.268h-2.669v3.042a4.7,4.7,0,0,0-1.124-1.785l.422,2.691A2.616,2.616,0,0,1,535.557,371.179Z" transform="translate(-525.544 -361.534)"/><path class="q" d="M533.49,380.625a3.788,3.788,0,0,1-1.416,1.507,3.728,3.728,0,0,1-1.117.434l-1.321,2.477a4.945,4.945,0,0,0,2.608-.869,4.717,4.717,0,0,0,1.769-2.318V384.9h.724l-.846-5.367A4.24,4.24,0,0,1,533.49,380.625Z" transform="translate(-523.475 -366.438)"/><path class="r" d="M536.634,372.536l2.759-1.373v-4.246h-.014l-2.814,5.281C536.592,372.308,536.614,372.421,536.634,372.536Z" transform="translate(-526.171 -361.531)"/><path class="f" d="M526.632,383.6a3.725,3.725,0,0,1-2.864-1.15,3.456,3.456,0,0,1-.4-.514l-2.509,1.249a5.393,5.393,0,0,0,1.917,2,5.721,5.721,0,0,0,3.03.807c.129,0,.258,0,.384-.012l1.317-2.471A4.306,4.306,0,0,1,526.632,383.6Z" transform="translate(-520.062 -367.373)"/><g transform="translate(6.148 16.132)"><path class="l" d="M530.95,384.505h-.013l-1.32,2.476h.013Z" transform="translate(-529.616 -384.505)"/><path class="s" d="M530.949,384.505l-1.32,2.478h-.013l1.32-2.476Z" transform="translate(-529.615 -384.505)"/></g><path class="t" d="M536.711,375.474l2.728.4v-1.991l-2.753,1.372C536.695,375.326,536.7,375.4,536.711,375.474Z" transform="translate(-526.218 -364.24)"/><path class="u" d="M520.31,379.788c.049.1.1.2.158.3l2.508-1.247a4.85,4.85,0,0,1-.662-2.632,5.6,5.6,0,0,1,.263-1.777l-2.77-.4a9.027,9.027,0,0,0-.25,2.18A7.951,7.951,0,0,0,520.31,379.788Z" transform="translate(-519.553 -364.297)"/><path class="u" d="M521.048,383.149l.012.022,2.511-1.249-.015-.02Z" transform="translate(-520.135 -367.361)"/><path class="v" d="M536.73,376.513c.013.1.021.211.028.32l2.7,2.607v-2.525Z" transform="translate(-526.235 -365.264)"/><path class="m" d="M523.341,370.3a3.681,3.681,0,0,1,2.693-1.146l-2.254-2.173a5.447,5.447,0,0,0-1.43.605,5.515,5.515,0,0,0-2.088,2.318,6.713,6.713,0,0,0-.5,1.367l2.768.407A3.722,3.722,0,0,1,523.341,370.3Z" transform="translate(-519.635 -361.555)"/><path class="w" d="M528.768,369.017a3.887,3.887,0,0,1,2.028.535,3.663,3.663,0,0,1,1.217,1.179l-.423-2.684a4.866,4.866,0,0,0-.629-.523,5.114,5.114,0,0,0-3.018-.878,6.2,6.2,0,0,0-1.594.2l2.255,2.173Z" transform="translate(-522.197 -361.425)"/><path class="o" d="M549.324,360.492l-3.459.218v.009l3.459-.219Z" transform="translate(-529.789 -359.032)"/><path class="m" d="M546.341,361.736a1.789,1.789,0,0,0,1.25.434,1.833,1.833,0,0,0,1.262-.434,1.42,1.42,0,0,0,.484-1.116V360.5l-3.459.217A1.409,1.409,0,0,0,546.341,361.736Z" transform="translate(-529.793 -359.034)"/><path class="f" d="M548.845,358.555a1.775,1.775,0,0,0-1.262-.451,1.737,1.737,0,0,0-1.251.451,1.506,1.506,0,0,0-.47,1.137v.087l3.459-.217A1.478,1.478,0,0,0,548.845,358.555Z" transform="translate(-529.788 -358.102)"/><path class="o" d="M546.477,378.452l2.632,6.021h0l-2.635-6.029Z" transform="translate(-530.026 -366.015)"/><path class="o" d="M546.479,377.051h0l2.689,1.921h0Z" transform="translate(-530.028 -365.473)"/><path class="o" d="M549.168,375.379l-2.689.529h0l2.689-.525Z" transform="translate(-530.028 -364.823)"/><path class="o" d="M546.479,372.334l2.689-4.24v-.01l-2.689,4.241Z" transform="translate(-530.028 -361.985)"/><path class="q" d="M549.168,375.4l-2.689.525v.485l2.689,1.922Z" transform="translate(-530.028 -364.83)"/><path class="f" d="M546.479,377.9l2.635,6.029h.054v-4.953l-2.689-1.921Z" transform="translate(-530.028 -365.476)"/><path class="t" d="M546.479,384.475h2.632l-2.632-6.02Z" transform="translate(-530.028 -366.02)"/><path class="m" d="M546.479,366.917v4.954l2.689-4.241v-.711Z" transform="translate(-530.028 -361.531)"/><path class="p" d="M549.168,368.1l-2.689,4.24v.736l2.689-.529Z" transform="translate(-530.028 -361.991)"/></g></svg>