<svg xmlns="http://www.w3.org/2000/svg" viewBox="0 0 260 260" width="260" height="260" fill="none">
<g stroke="#214B89" stroke-width="2.5" opacity="0.12">
  <path d="M40 70 C 80 40, 140 44, 168 74 C 196 104, 160 140, 118 134 C 76 128, 8 102, 40 70 Z"/>
  <path d="M62 78 C 92 58, 136 62, 154 82 C 172 102, 148 122, 116 118 C 84 114, 40 98, 62 78 Z"/>
  <path d="M88 86 C 104 76, 128 78, 136 90 C 144 100, 130 108, 112 106 C 96 104, 76 96, 88 86 Z"/>
</g>
<g stroke="#12948C" stroke-width="2.5" opacity="0.12">
  <path d="M190 200 C 214 184, 246 190, 254 206 C 262 222, 240 236, 214 232 C 192 228, 172 212, 190 200 Z"/>
  <path d="M204 205 C 218 196, 238 200, 243 210 C 248 219, 234 226, 219 223 C 206 220, 194 212, 204 205 Z"/>
</g>
<circle cx="210" cy="60" r="5" fill="#E8A23D" opacity="0.2"/>
<circle cx="60" cy="206" r="5" fill="#A03A2C" opacity="0.15"/>
</svg>