<svg xmlns="http://www.w3.org/2000/svg" viewBox="0 0 760 560" width="760" height="560">
<rect width="760" height="560" rx="28" fill="#FBEFD9"/>

<path d="M80 300 V170 A90 90 0 0 1 260 170 V300 Z" fill="#EAD5B8" opacity="0.6"/>
<circle cx="660" cy="90" r="34" fill="#E8A23D"/>
<g stroke="#E8A23D" stroke-width="7" stroke-linecap="round" opacity="0.7">
  <path d="M660 34v14"/><path d="M710 60l-10 10"/><path d="M610 60l10 10"/>
</g>
<circle cx="120" cy="430" r="6" fill="#E8A23D" opacity="0.55"/>
<circle cx="560" cy="180" r="6" fill="#214B89" opacity="0.55"/>
<rect x="408" y="290" width="84" height="110" rx="34" fill="#12948C"/>
<rect x="441" y="272" width="18" height="20" rx="8" fill="#C68642"/>
<circle cx="450" cy="254" r="27" fill="#C68642"/>
<circle cx="436" cy="234" r="11" fill="#2E2B26"/>
<circle cx="450" cy="229" r="12" fill="#2E2B26"/>
<circle cx="464" cy="234" r="11" fill="#2E2B26"/>
<circle cx="441" cy="257" r="2.7" fill="#2E2B26"/>
<circle cx="459" cy="257" r="2.7" fill="#2E2B26"/>
<path d="M443 267 Q 450 273 457 267" fill="none" stroke="#2E2B26" stroke-width="2.6" stroke-linecap="round"/>
<path d="M412 306 L340 398" stroke="#12948C" stroke-width="14" stroke-linecap="round" fill="none"/>
<circle cx="340" cy="398" r="8.5" fill="#C68642"/>
<path d="M488 306 L522 330" stroke="#12948C" stroke-width="14" stroke-linecap="round" fill="none"/>
<circle cx="522" cy="330" r="8.5" fill="#C68642"/>
<g transform="translate(522 296)"><rect x="0" y="0" width="30" height="26" rx="6" fill="#A03A2C"/>
<path d="M30 6 h8 a8 8 0 0 1 0 15 h-8" fill="none" stroke="#A03A2C" stroke-width="5"/></g>
<rect x="60" y="404" width="640" height="24" rx="12" fill="#DDBD92"/>
<path d="M236 404 L250 300 h130 L370 404 Z" fill="#214B89"/>
<rect x="250" y="300" width="130" height="10" rx="5" fill="#1E3D6B"/>
<g transform="translate(180 140)">
  <rect width="180" height="130" rx="14" fill="#FFFFFF"/>
  <rect x="20" y="22" width="86" height="12" rx="6" fill="#2E2B26" opacity="0.3"/>
  <rect x="20" y="48" width="140" height="10" rx="5" fill="#214B89" opacity="0.35"/>
  <rect x="20" y="48" width="96" height="10" rx="5" fill="#214B89"/>
  <rect x="20" y="70" width="140" height="10" rx="5" fill="#F3C87E"/>
  <rect x="20" y="70" width="60" height="10" rx="5" fill="#D98E2B"/>
  <circle cx="34" cy="102" r="12" fill="#12948C"/>
  <path d="M28 102 l4.5 4.5 9 -10" fill="none" stroke="#FFF" stroke-width="3.4" stroke-linecap="round" stroke-linejoin="round"/>
  <rect x="56" y="96" width="86" height="11" rx="5.5" fill="#2E2B26" opacity="0.22"/>
</g>
<path d="M300 296 C 290 270 280 260 268 252" fill="none" stroke="#A03A2C" stroke-width="5" stroke-dasharray="0.1 14" stroke-linecap="round"/>
<g transform="translate(96 404) scale(0.85)">
  <path d="M0 0 C -6 -34 -30 -40 -34 -66" fill="none" stroke="#12948C" stroke-width="8" stroke-linecap="round"/>
  <path d="M0 0 C 2 -40 -4 -60 0 -80" fill="none" stroke="#12948C" stroke-width="8" stroke-linecap="round"/>
  <path d="M0 0 C 6 -30 26 -40 32 -60" fill="none" stroke="#12948C" stroke-width="8" stroke-linecap="round"/>
  <circle cx="-34" cy="-66" r="11" fill="#12948C"/><circle cx="0" cy="-80" r="11" fill="#12948C"/><circle cx="32" cy="-60" r="11" fill="#12948C"/>
  <path d="M-26 0 h52 l-8 44 a10 10 0 0 1 -10 8 h-16 a10 10 0 0 1 -10 -8 Z" fill="#A03A2C"/>
</g>

</svg>