<svg xmlns="http://www.w3.org/2000/svg" viewBox="0 0 760 560" width="760" height="560">
<rect width="760" height="560" rx="28" fill="#F4E3D7"/>

<path d="M60 74 Q 380 130 700 74" fill="none" stroke="#2E2B26" stroke-width="4" opacity="0.35"/>
<path d="M80 84 l16 30 l-32 0 Z" fill="#A03A2C" opacity="0.85"/><path d="M142 80 l16 30 l-32 0 Z" fill="#E8A23D" opacity="0.85"/><path d="M204 76 l16 30 l-32 0 Z" fill="#214B89" opacity="0.85"/><path d="M266 73 l16 30 l-32 0 Z" fill="#12948C" opacity="0.85"/><path d="M328 69 l16 30 l-32 0 Z" fill="#A03A2C" opacity="0.85"/><path d="M390 66 l16 30 l-32 0 Z" fill="#E8A23D" opacity="0.85"/><path d="M452 69 l16 30 l-32 0 Z" fill="#214B89" opacity="0.85"/><path d="M514 73 l16 30 l-32 0 Z" fill="#12948C" opacity="0.85"/><path d="M576 76 l16 30 l-32 0 Z" fill="#A03A2C" opacity="0.85"/><path d="M638 80 l16 30 l-32 0 Z" fill="#E8A23D" opacity="0.85"/>
<circle cx="110" cy="180" r="7" fill="#E8A23D" opacity="0.55"/>
<circle cx="200" cy="120" r="5" fill="#214B89" opacity="0.55"/>
<circle cx="560" cy="140" r="6" fill="#A03A2C" opacity="0.55"/>
<circle cx="680" cy="220" r="7" fill="#12948C" opacity="0.55"/>
<circle cx="120" cy="340" r="5" fill="#F3C87E" opacity="0.55"/>
<circle cx="660" cy="380" r="6" fill="#E8A23D" opacity="0.55"/>
<circle cx="390" cy="120" r="5" fill="#214B89" opacity="0.55"/>
<rect x="248" y="300" width="84" height="110" rx="34" fill="#214B89"/>
<rect x="281" y="282" width="18" height="20" rx="8" fill="#C68642"/>
<circle cx="290" cy="258" r="33" fill="#2E2B26"/>
<circle cx="290" cy="264" r="27" fill="#C68642"/>
<circle cx="281" cy="267" r="2.7" fill="#2E2B26"/>
<circle cx="299" cy="267" r="2.7" fill="#2E2B26"/>
<path d="M283 277 Q 290 283 297 277" fill="none" stroke="#2E2B26" stroke-width="2.6" stroke-linecap="round"/>
<path d="M328 314 L382 212" stroke="#214B89" stroke-width="14" stroke-linecap="round" fill="none"/>
<circle cx="382" cy="212" r="8.5" fill="#C68642"/>
<path d="M252 314 L206 236" stroke="#214B89" stroke-width="14" stroke-linecap="round" fill="none"/>
<circle cx="206" cy="236" r="8.5" fill="#C68642"/>
<rect x="458" y="300" width="84" height="110" rx="34" fill="#12948C"/>
<rect x="491" y="282" width="18" height="20" rx="8" fill="#8D5524"/>
<circle cx="500" cy="264" r="27" fill="#8D5524"/>
<path d="M473 261 A27 27 0 0 1 527 261 Z" fill="#2E2B26"/>
<circle cx="491" cy="267" r="2.7" fill="#2E2B26"/>
<circle cx="509" cy="267" r="2.7" fill="#2E2B26"/>
<path d="M493 277 Q 500 283 507 277" fill="none" stroke="#2E2B26" stroke-width="2.6" stroke-linecap="round"/>
<path d="M462 314 L408 212" stroke="#12948C" stroke-width="14" stroke-linecap="round" fill="none"/>
<circle cx="408" cy="212" r="8.5" fill="#8D5524"/>
<path d="M538 314 L586 260" stroke="#12948C" stroke-width="14" stroke-linecap="round" fill="none"/>
<circle cx="586" cy="260" r="8.5" fill="#8D5524"/>
<g transform="translate(556 196)">
  <rect width="96" height="120" rx="10" fill="#FFFFFF" stroke="#2E2B26" stroke-width="5"/>
  <rect x="18" y="22" width="60" height="9" rx="4.5" fill="#2E2B26" opacity="0.3"/>
  <rect x="18" y="40" width="60" height="9" rx="4.5" fill="#2E2B26" opacity="0.2"/>
  <circle cx="48" cy="82" r="16" fill="#E8A23D"/>
  <path d="M42 94 l-8 20 M54 94 l8 20" stroke="#D98E2B" stroke-width="7" stroke-linecap="round"/>
</g>
<circle cx="560" cy="268" r="8.5" fill="#8D5524"/>
<g fill="#E8A23D">
  <path d="M395 186 l6 14 15 2 -11 10 3 15 -13 -8 -13 8 3 -15 -11 -10 15 -2 Z"/>
</g>
<rect x="60" y="470" width="640" height="20" rx="10" fill="#EAD5B8"/>

</svg>