<svg xmlns="http://www.w3.org/2000/svg" viewBox="0 0 760 560" width="760" height="560">
<rect width="760" height="560" rx="28" fill="#F4E3D7"/>

<path d="M180 560 V250 A200 200 0 0 1 580 250 V560 Z" fill="#EAD5B8" opacity="0.5"/>
<circle cx="90" cy="120" r="7" fill="#E8A23D" opacity="0.55"/>
<circle cx="680" cy="90" r="6" fill="#214B89" opacity="0.55"/>
<circle cx="650" cy="470" r="6" fill="#A03A2C" opacity="0.55"/>
<rect x="188" y="280" width="84" height="110" rx="34" fill="#214B89"/>
<rect x="221" y="262" width="18" height="20" rx="8" fill="#8D5524"/>
<circle cx="230" cy="244" r="27" fill="#8D5524"/>
<path d="M203 241 A27 27 0 0 1 257 241 Z" fill="#2E2B26"/>
<circle cx="221" cy="247" r="2.7" fill="#2E2B26"/>
<circle cx="239" cy="247" r="2.7" fill="#2E2B26"/>
<path d="M223 257 Q 230 263 237 257" fill="none" stroke="#2E2B26" stroke-width="2.6" stroke-linecap="round"/>
<path d="M268 296 L352 300" stroke="#214B89" stroke-width="14" stroke-linecap="round" fill="none"/>
<circle cx="352" cy="300" r="8.5" fill="#8D5524"/>
<path d="M196 296 L180 392" stroke="#214B89" stroke-width="14" stroke-linecap="round" fill="none"/>
<circle cx="180" cy="392" r="8.5" fill="#8D5524"/>
<rect x="498" y="280" width="84" height="110" rx="34" fill="#A03A2C"/>
<rect x="531" y="262" width="18" height="20" rx="8" fill="#E8B48F"/>
<circle cx="540" cy="244" r="27" fill="#E8B48F"/>
<path d="M513 241 A27 27 0 0 1 567 241 Z" fill="#8A4A2E"/>
<circle cx="540" cy="213" r="10" fill="#8A4A2E"/>
<circle cx="531" cy="247" r="2.7" fill="#2E2B26"/>
<circle cx="549" cy="247" r="2.7" fill="#2E2B26"/>
<path d="M533 257 Q 540 263 547 257" fill="none" stroke="#2E2B26" stroke-width="2.6" stroke-linecap="round"/>
<path d="M502 296 L458 306" stroke="#A03A2C" stroke-width="14" stroke-linecap="round" fill="none"/>
<circle cx="458" cy="306" r="8.5" fill="#E8B48F"/>
<path d="M574 296 L588 392" stroke="#A03A2C" stroke-width="14" stroke-linecap="round" fill="none"/>
<circle cx="588" cy="392" r="8.5" fill="#E8B48F"/>
<rect x="345" y="240" width="120" height="160" rx="12" fill="#FFFFFF" stroke="#2E2B26" stroke-width="5"/><circle cx="371" cy="274" r="10" fill="#12948C"/><path d="M366 274 l4 4 8 -9" fill="none" stroke="#FFF" stroke-width="3" stroke-linecap="round" stroke-linejoin="round"/><rect x="389" y="269" width="58" height="10" rx="5" fill="#2E2B26" opacity="0.25"/><circle cx="371" cy="310" r="10" fill="#12948C"/><path d="M366 310 l4 4 8 -9" fill="none" stroke="#FFF" stroke-width="3" stroke-linecap="round" stroke-linejoin="round"/><rect x="389" y="305" width="58" height="10" rx="5" fill="#2E2B26" opacity="0.25"/><circle cx="371" cy="346" r="10" fill="#12948C"/><path d="M366 346 l4 4 8 -9" fill="none" stroke="#FFF" stroke-width="3" stroke-linecap="round" stroke-linejoin="round"/><rect x="389" y="341" width="58" height="10" rx="5" fill="#2E2B26" opacity="0.25"/>
<circle cx="352" cy="300" r="8.5" fill="#8D5524"/>
<circle cx="458" cy="306" r="8.5" fill="#E8B48F"/>
<rect x="50" y="398" width="660" height="24" rx="12" fill="#DDBD92"/>
<rect x="120" y="366" width="30" height="26" rx="6" fill="#A03A2C"/>
<path d="M150 372 h8 a8 8 0 0 1 0 15 h-8" fill="none" stroke="#A03A2C" stroke-width="5"/>
<g transform="translate(672 398) scale(0.9)">
  <path d="M0 0 C -6 -34 -30 -40 -34 -66" fill="none" stroke="#12948C" stroke-width="8" stroke-linecap="round"/>
  <path d="M0 0 C 2 -40 -4 -60 0 -80" fill="none" stroke="#12948C" stroke-width="8" stroke-linecap="round"/>
  <path d="M0 0 C 6 -30 26 -40 32 -60" fill="none" stroke="#12948C" stroke-width="8" stroke-linecap="round"/>
  <circle cx="-34" cy="-66" r="11" fill="#12948C"/><circle cx="0" cy="-80" r="11" fill="#12948C"/><circle cx="32" cy="-60" r="11" fill="#12948C"/>
  <path d="M-26 0 h52 l-8 44 a10 10 0 0 1 -10 8 h-16 a10 10 0 0 1 -10 -8 Z" fill="#A03A2C"/>
</g>

</svg>