<svg xmlns="http://www.w3.org/2000/svg" viewBox="0 0 760 560" width="760" height="560">
<rect width="760" height="560" rx="28" fill="#E9F0F7"/>

<rect x="140" y="96" width="480" height="220" rx="18" fill="#FFFFFF"/>
<rect x="170" y="130" width="120" height="58" rx="10" fill="#F4E3D7"/><rect x="182" y="146" width="76" height="9" rx="4.5" fill="#2E2B26" opacity="0.25"/><rect x="182" y="162" width="52" height="9" rx="4.5" fill="#2E2B26" opacity="0.15"/><rect x="170" y="204" width="120" height="58" rx="10" fill="#F4E3D7"/><rect x="182" y="220" width="76" height="9" rx="4.5" fill="#2E2B26" opacity="0.25"/><rect x="182" y="236" width="52" height="9" rx="4.5" fill="#2E2B26" opacity="0.15"/><rect x="320" y="130" width="120" height="58" rx="10" fill="#FBEFD9"/><rect x="332" y="146" width="76" height="9" rx="4.5" fill="#2E2B26" opacity="0.25"/><rect x="332" y="162" width="52" height="9" rx="4.5" fill="#2E2B26" opacity="0.15"/><rect x="320" y="204" width="120" height="58" rx="10" fill="#FBEFD9"/><rect x="332" y="220" width="76" height="9" rx="4.5" fill="#2E2B26" opacity="0.25"/><rect x="332" y="236" width="52" height="9" rx="4.5" fill="#2E2B26" opacity="0.15"/><rect x="470" y="130" width="120" height="58" rx="10" fill="#E9F0F7"/><rect x="482" y="146" width="76" height="9" rx="4.5" fill="#2E2B26" opacity="0.25"/><rect x="482" y="162" width="52" height="9" rx="4.5" fill="#2E2B26" opacity="0.15"/><rect x="470" y="204" width="120" height="58" rx="10" fill="#E9F0F7"/><rect x="482" y="220" width="76" height="9" rx="4.5" fill="#2E2B26" opacity="0.25"/><rect x="482" y="236" width="52" height="9" rx="4.5" fill="#2E2B26" opacity="0.15"/>
<circle cx="70" cy="80" r="6" fill="#E8A23D" opacity="0.55"/>
<circle cx="700" cy="60" r="7" fill="#214B89" opacity="0.55"/>
<circle cx="716" cy="320" r="5" fill="#A03A2C" opacity="0.55"/>
<rect x="138" y="350" width="84" height="110" rx="34" fill="#A03A2C"/>
<rect x="171" y="332" width="18" height="20" rx="8" fill="#E8B48F"/>
<path d="M150 306 h60 v52 a14 14 0 0 1 -14 14 h-32 a14 14 0 0 1 -14 -14 Z" fill="#5A3A22"/>
<circle cx="180" cy="314" r="27" fill="#E8B48F"/>
<path d="M153 311 A27 27 0 0 1 207 311 Z" fill="#5A3A22"/>
<circle cx="171" cy="317" r="2.7" fill="#2E2B26"/>
<circle cx="189" cy="317" r="2.7" fill="#2E2B26"/>
<path d="M173 327 Q 180 333 187 327" fill="none" stroke="#2E2B26" stroke-width="2.6" stroke-linecap="round"/>
<path d="M218 366 L252 420" stroke="#A03A2C" stroke-width="14" stroke-linecap="round" fill="none"/>
<circle cx="252" cy="420" r="8.5" fill="#E8B48F"/>
<path d="M142 366 L120 430" stroke="#A03A2C" stroke-width="14" stroke-linecap="round" fill="none"/>
<circle cx="120" cy="430" r="8.5" fill="#E8B48F"/>
<rect x="348" y="350" width="84" height="110" rx="34" fill="#D98E2B"/>
<rect x="381" y="332" width="18" height="20" rx="8" fill="#8D5524"/>
<circle cx="390" cy="314" r="27" fill="#8D5524"/>
<path d="M363 311 A27 27 0 0 1 417 311 Z" fill="#2E2B26"/>
<circle cx="381" cy="317" r="2.7" fill="#2E2B26"/>
<circle cx="399" cy="317" r="2.7" fill="#2E2B26"/>
<path d="M383 327 Q 390 333 397 327" fill="none" stroke="#2E2B26" stroke-width="2.6" stroke-linecap="round"/>
<path d="M428 366 L470 300" stroke="#D98E2B" stroke-width="14" stroke-linecap="round" fill="none"/>
<circle cx="470" cy="300" r="8.5" fill="#8D5524"/>
<path d="M352 366 L330 430" stroke="#D98E2B" stroke-width="14" stroke-linecap="round" fill="none"/>
<circle cx="330" cy="430" r="8.5" fill="#8D5524"/>
<rect x="558" y="350" width="84" height="110" rx="34" fill="#214B89"/>
<rect x="591" y="332" width="18" height="20" rx="8" fill="#C68642"/>
<circle cx="600" cy="314" r="27" fill="#C68642"/>
<path d="M573 311 A27 27 0 0 1 627 311 Z" fill="#2E2B26"/>
<circle cx="600" cy="283" r="10" fill="#2E2B26"/>
<circle cx="591" cy="317" r="2.7" fill="#2E2B26"/>
<circle cx="609" cy="317" r="2.7" fill="#2E2B26"/>
<path d="M593 327 Q 600 333 607 327" fill="none" stroke="#2E2B26" stroke-width="2.6" stroke-linecap="round"/>
<path d="M562 366 L530 424" stroke="#214B89" stroke-width="14" stroke-linecap="round" fill="none"/>
<circle cx="530" cy="424" r="8.5" fill="#C68642"/>
<path d="M638 366 L656 428" stroke="#214B89" stroke-width="14" stroke-linecap="round" fill="none"/>
<circle cx="656" cy="428" r="8.5" fill="#C68642"/>
<g transform="translate(60 200)">
  <rect width="150" height="78" rx="16" fill="#FFFFFF"/>
  <path d="M40 78 l10 22 14 -22 Z" fill="#FFFFFF"/>
  <rect x="20" y="22" width="110" height="10" rx="5" fill="#2E2B26" opacity="0.3"/>
  <rect x="20" y="44" width="74" height="10" rx="5" fill="#A03A2C" opacity="0.55"/>
</g>
<g transform="translate(560 180)">
  <rect width="150" height="78" rx="16" fill="#FFFFFF"/>
  <path d="M96 78 l10 22 14 -22 Z" fill="#FFFFFF"/>
  <rect x="20" y="22" width="110" height="10" rx="5" fill="#2E2B26" opacity="0.3"/>
  <rect x="20" y="44" width="74" height="10" rx="5" fill="#214B89" opacity="0.55"/>
</g>

</svg>