<svg xmlns="http://www.w3.org/2000/svg" viewBox="0 0 1584 396" width="1584" height="396">
<defs><linearGradient id="ng" x1="0" y1="0" x2="0" y2="1">
<stop offset="0" stop-color="#16345E"/><stop offset="1" stop-color="#214B89"/></linearGradient></defs>
<rect width="1584" height="396" fill="url(#ng)"/>
<g opacity="0.85"><path d="M1000 730 L1000 330 L1130 210 L1260 300 L1390 180 L1500 270 L1584 230 L1584 730 Z" fill="#0F2747" opacity="1.0"/></g>
<circle cx="1450" cy="90" r="26" fill="#F3C87E"/>
<g transform="translate(1384 132) scale(0.9)">
  <rect x="0" y="0" width="7" height="64" rx="3.5" fill="#FAF5EC"/>
  <path d="M7 3 H45 A6 6 0 0 1 49.5 12.8 L41 19.5 L49.5 26.2 A6 6 0 0 1 45 36 H7 Z" fill="#E8A23D"/>
</g>
<path transform="translate(1200 350) scale(1.0)" fill="#E8A23D" d="M-15 2 L-9 -12 L4 -14 L15 -6 L13 8 L2 13 L-10 10 Z"/><path transform="translate(1200 350) scale(1.0)" d="M-6 -6 L2 -8" stroke="#FFF" stroke-width="3" stroke-linecap="round" opacity="0.75"/>
<circle cx="1100" cy="70" r="4" fill="#FAF5EC" opacity="0.7"/><circle cx="700" cy="60" r="4" fill="#FAF5EC" opacity="0.5"/>
<g transform="translate(79.8 21.0) scale(0.9)">
<circle cx="60" cy="11" r="7" fill="#E8A23D"/>
<path d="M25 66 A35 35 0 0 1 95 66" fill="none" stroke="#214B89" stroke-width="14" stroke-linecap="round"/>
<rect x="38" y="78" width="44" height="10" rx="5" fill="#12948C"/>
<rect x="31" y="93" width="58" height="10" rx="5" fill="#12948C"/>
<rect x="24" y="108" width="72" height="10" rx="5" fill="#12948C"/>
</g><g transform="translate(188.93333333333337 120) scale(0.6666666666666666)"><path d="M24.5 15.8Q15.600000000000001 15.8 10.4 14.4Q5.2 13.0 3.0 10.55Q0.8 8.1 0.8 4.9Q0.8 0.5 4.300000000000001 -2.1500000000000004Q7.800000000000001 -4.800000000000001 14.5 -5.800000000000001V-6.300000000000001Q9.4 -6.300000000000001 6.5 -8.05Q3.6 -9.8 3.6 -12.9Q3.6 -15.8 6.25 -18.1Q8.9 -20.400000000000002 14.9 -20.400000000000002V-21.1Q9.5 -22.400000000000002 6.3 -26.1Q3.1 -29.8 3.1 -35.7Q3.1 -40.900000000000006 5.75 -44.7Q8.4 -48.5 13.5 -50.650000000000006Q18.6 -52.800000000000004 25.900000000000002 -52.800000000000004H52.2V-40.400000000000006L34.1 -42.7V-41.900000000000006Q42.400000000000006 -40.800000000000004 45.35000000000001 -38.150000000000006Q48.300000000000004 -35.5 48.300000000000004 -31.8Q48.300000000000004 -28.1 46.050000000000004 -25.200000000000003Q43.800000000000004 -22.3 39.1 -20.65Q34.4 -19.0 27.200000000000003 -19.0Q25.0 -19.0 22.75 -19.200000000000003Q20.5 -19.400000000000002 18.900000000000002 -19.8Q17.2 -19.1 16.25 -18.35Q15.3 -17.6 15.3 -16.8Q15.3 -16.3 15.700000000000001 -16.05Q16.1 -15.8 16.85 -15.700000000000001Q17.6 -15.600000000000001 18.6 -15.600000000000001H34.6Q36.7 -15.600000000000001 39.85 -15.350000000000001Q43.0 -15.100000000000001 46.150000000000006 -13.850000000000001Q49.300000000000004 -12.600000000000001 51.400000000000006 -9.700000000000001Q53.5 -6.800000000000001 53.5 -1.5Q53.5 4.5 50.35 8.3Q47.2 12.100000000000001 40.8 13.950000000000001Q34.4 15.8 24.5 15.8ZM24.5 1.6Q31.200000000000003 1.6 34.400000000000006 1.1500000000000001Q37.6 0.7000000000000001 38.6 -0.09999999999999998Q39.6 -0.9 39.6 -1.9000000000000001Q39.6 -3.3000000000000003 38.8 -4.1000000000000005Q38.0 -4.9 36.8 -5.25Q35.6 -5.6000000000000005 34.45 -5.65Q33.300000000000004 -5.7 32.6 -5.7H19.1Q15.9 -4.6000000000000005 14.75 -3.6500000000000004Q13.600000000000001 -2.7 13.600000000000001 -1.5Q13.600000000000001 -0.1 14.950000000000001 0.55Q16.3 1.2000000000000002 18.75 1.4000000000000001Q21.200000000000003 1.6 24.5 1.6ZM26.200000000000003 -27.8Q29.400000000000002 -27.8 31.15 -29.8Q32.9 -31.8 32.9 -35.300000000000004Q32.9 -38.800000000000004 31.1 -40.95Q29.3 -43.1 26.1 -43.1Q23.0 -43.1 21.15 -40.95Q19.3 -38.800000000000004 19.3 -35.300000000000004Q19.3 -33.0 20.1 -31.3Q20.900000000000002 -29.6 22.450000000000003 -28.700000000000003Q24.0 -27.8 26.200000000000003 -27.8Z M82.30000000000001 1.4000000000000001Q74.70000000000002 1.4000000000000001 68.80000000000001 -1.65Q62.900000000000006 -4.7 59.60000000000001 -10.85Q56.30000000000001 -17.0 56.30000000000001 -26.3Q56.30000000000001 -36.0 59.750000000000014 -42.150000000000006Q63.20000000000001 -48.300000000000004 69.15 -51.25Q75.10000000000001 -54.2 82.60000000000001 -54.2Q90.4 -54.2 96.25 -51.150000000000006Q102.10000000000001 -48.1 105.35000000000001 -41.95Q108.60000000000001 -35.800000000000004 108.60000000000001 -26.400000000000002Q108.60000000000001 -16.7 105.15 -10.55Q101.70000000000002 -4.4 95.75000000000001 -1.5Q89.80000000000001 1.4000000000000001 82.30000000000001 1.4000000000000001ZM82.70000000000002 -10.5Q85.80000000000001 -10.5 87.9 -12.25Q90.0 -14.0 91.10000000000001 -17.4Q92.20000000000002 -20.8 92.20000000000002 -25.5Q92.20000000000002 -30.700000000000003 91.00000000000001 -34.25Q89.80000000000001 -37.800000000000004 87.55000000000001 -39.7Q85.30000000000001 -41.6 82.10000000000001 -41.6Q79.10000000000001 -41.6 77.0 -39.85Q74.9 -38.1 73.80000000000001 -34.7Q72.70000000000002 -31.3 72.70000000000002 -26.5Q72.70000000000002 -18.900000000000002 75.35000000000002 -14.700000000000001Q78.00000000000001 -10.5 82.70000000000002 -10.5Z M126.20000000000002 0.0 110.30000000000001 -52.800000000000004H127.50000000000001L136.60000000000002 -13.4H137.0L146.5 -52.800000000000004H162.70000000000002L146.8 0.0Z" fill="#FFFFFF"/><path transform="translate(162.20000000000002 0)" d="M3.6 0.0V-27.900000000000002V-70.0H19.8V-56.800000000000004Q19.8 -54.7 19.55 -51.25Q19.3 -47.800000000000004 18.85 -43.900000000000006Q18.400000000000002 -40.0 17.950000000000003 -36.45Q17.5 -32.9 17.2 -30.5H18.1Q19.0 -38.800000000000004 21.200000000000003 -44.050000000000004Q23.400000000000002 -49.300000000000004 27.200000000000003 -51.75Q31.0 -54.2 36.4 -54.2Q44.900000000000006 -54.2 49.0 -48.150000000000006Q53.1 -42.1 53.1 -29.900000000000002V0.0H36.9V-29.200000000000003Q36.9 -34.800000000000004 35.4 -37.400000000000006Q33.9 -40.0 30.5 -40.0Q27.5 -40.0 25.1 -37.75Q22.700000000000003 -35.5 21.25 -30.6Q19.8 -25.700000000000003 19.8 -17.900000000000002V0.0Z M75.4 1.4000000000000001Q66.80000000000001 1.4000000000000001 62.650000000000006 -4.6000000000000005Q58.50000000000001 -10.600000000000001 58.50000000000001 -23.0V-52.800000000000004H74.7V-23.200000000000003Q74.7 -17.400000000000002 76.35 -15.100000000000001Q78.0 -12.8 81.10000000000001 -12.8Q83.30000000000001 -12.8 85.15 -13.950000000000001Q87.0 -15.100000000000001 88.4 -17.450000000000003Q89.80000000000001 -19.8 90.55000000000001 -23.5Q91.30000000000001 -27.200000000000003 91.30000000000001 -32.4V-52.800000000000004H107.5V-23.8V0.0H93.70000000000002V-20.6H93.0Q92.4 -12.9 90.30000000000001 -8.05Q88.20000000000002 -3.2 84.50000000000001 -0.9Q80.80000000000001 1.4000000000000001 75.4 1.4000000000000001Z M145.60000000000002 1.4000000000000001Q141.10000000000002 1.4000000000000001 137.70000000000002 -0.6Q134.3 -2.6 132.05 -6.55Q129.8 -10.5 128.70000000000002 -16.3H128.0V0.0H113.9V-18.6V-70.0H130.10000000000002V-54.5Q130.10000000000002 -51.800000000000004 129.85000000000002 -48.7Q129.60000000000002 -45.6 129.15000000000003 -42.3Q128.70000000000002 -39.0 128.10000000000002 -35.6H129.0Q129.9 -42.2 132.2 -46.300000000000004Q134.5 -50.400000000000006 138.10000000000002 -52.300000000000004Q141.70000000000002 -54.2 146.3 -54.2Q152.20000000000002 -54.2 156.55 -51.2Q160.9 -48.2 163.3 -42.2Q165.70000000000002 -36.2 165.70000000000002 -27.1Q165.70000000000002 -17.400000000000002 163.05 -11.100000000000001Q160.4 -4.800000000000001 155.85000000000002 -1.7000000000000002Q151.3 1.4000000000000001 145.60000000000002 1.4000000000000001ZM139.9 -11.5Q142.9 -11.5 145.0 -13.45Q147.10000000000002 -15.4 148.20000000000002 -18.650000000000002Q149.3 -21.900000000000002 149.3 -25.8Q149.3 -29.700000000000003 148.3 -33.1Q147.3 -36.5 145.20000000000002 -38.6Q143.10000000000002 -40.7 139.9 -40.7Q138.5 -40.7 137.05 -40.2Q135.60000000000002 -39.7 134.35000000000002 -38.650000000000006Q133.10000000000002 -37.6 132.10000000000002 -35.95Q131.10000000000002 -34.300000000000004 130.5 -31.950000000000003Q129.9 -29.6 129.9 -26.6V-25.900000000000002Q129.9 -22.200000000000003 130.75 -19.5Q131.60000000000002 -16.8 133.0 -15.0Q134.4 -13.200000000000001 136.2 -12.350000000000001Q138.0 -11.5 139.9 -11.5Z" fill="#E8A23D"/></g>
<path transform="translate(100 258)" d="M2.581 -1.9720000000000002Q2.581 -3.5380000000000003 4.089 -4.118L5.191 -4.524Q5.945 -4.814 6.3075 -5.2635000000000005Q6.67 -5.713 6.67 -6.438000000000001V-34.162Q6.67 -34.887 6.3075 -35.3365Q5.945 -35.786 5.191 -36.076L4.089 -36.482Q2.581 -37.062000000000005 2.581 -38.628Q2.581 -39.556000000000004 3.1900000000000004 -40.078Q3.7990000000000004 -40.6 5.075 -40.6H23.084Q28.42 -40.6 32.7845 -39.005Q37.149 -37.410000000000004 40.295500000000004 -34.49550000000001Q43.442 -31.581000000000003 45.1385 -27.593500000000002Q46.835 -23.606 46.835 -18.792Q46.835 -13.369000000000002 44.254000000000005 -9.1205Q41.673 -4.872 36.975 -2.436Q32.277 0.0 25.897000000000002 0.0H5.075Q3.7990000000000004 0.0 3.1900000000000004 -0.5365Q2.581 -1.073 2.581 -1.9720000000000002ZM24.186 -4.147Q26.651 -4.147 28.652 -5.655Q30.653000000000002 -7.163 31.8275 -10.4255Q33.002 -13.688 33.002 -18.937Q33.002 -23.084 32.2335 -26.332Q31.465 -29.580000000000002 29.9715 -31.842Q28.478 -34.104 26.361 -35.2785Q24.244 -36.453 21.547 -36.453H20.126V-7.3660000000000005Q20.126 -5.684 20.9815 -4.9155Q21.837 -4.147 23.432000000000002 -4.147Z M65.16300000000001 -26.216V-6.090000000000001Q65.16300000000001 -4.930000000000001 65.337 -4.4515Q65.511 -3.9730000000000003 65.946 -3.77L66.584 -3.48Q67.251 -3.19 67.541 -2.755Q67.831 -2.3200000000000003 67.831 -1.74Q67.831 -0.928 67.309 -0.464Q66.787 0.0 65.62700000000001 0.0H52.403000000000006Q51.243 0.0 50.721000000000004 -0.464Q50.199000000000005 -0.928 50.199000000000005 -1.74Q50.199000000000005 -2.3200000000000003 50.489000000000004 -2.755Q50.779 -3.19 51.446000000000005 -3.48L52.084 -3.77Q52.519000000000005 -3.9730000000000003 52.693000000000005 -4.4515Q52.867000000000004 -4.930000000000001 52.867000000000004 -6.090000000000001V-19.720000000000002Q52.867000000000004 -20.648 52.62050000000001 -21.0395Q52.374 -21.431 51.881 -21.576L51.243 -21.779Q50.634 -21.982000000000003 50.35850000000001 -22.359Q50.083000000000006 -22.736 50.083000000000006 -23.316000000000003Q50.083000000000006 -24.012 50.46000000000001 -24.418Q50.837 -24.824 51.881 -25.23L58.319 -27.724Q59.885000000000005 -28.333000000000002 60.784000000000006 -28.579500000000003Q61.68300000000001 -28.826 62.379000000000005 -28.826Q63.771 -28.826 64.46700000000001 -28.0865Q65.16300000000001 -27.347 65.16300000000001 -26.216ZM58.377 -31.378Q55.129000000000005 -31.378 53.244 -32.885999999999996Q51.359 -34.394 51.359 -37.004000000000005Q51.359 -39.585 53.244 -41.064Q55.129000000000005 -42.543 58.377 -42.543Q61.625 -42.543 63.510000000000005 -41.064Q65.39500000000001 -39.585 65.39500000000001 -37.004000000000005Q65.39500000000001 -34.394 63.510000000000005 -32.885999999999996Q61.625 -31.378 58.377 -31.378Z M91.524 -4.321000000000001Q87.55100000000002 -4.727 85.811 -5.017Q84.07100000000001 -5.307 83.65050000000001 -5.5680000000000005Q83.23 -5.829000000000001 83.23 -6.090000000000001Q83.23 -6.351 83.462 -6.5685Q83.694 -6.7860000000000005 84.18700000000001 -6.96L83.897 -7.54Q79.924 -7.453 77.6765 -6.5975Q75.429 -5.742 74.4865 -4.3935Q73.54400000000001 -3.0450000000000004 73.54400000000001 -1.421Q73.54400000000001 0.203 74.44300000000001 1.3195Q75.34200000000001 2.436 77.72000000000001 3.1900000000000004Q80.09800000000001 3.9440000000000004 84.56400000000001 4.466Q88.16000000000001 4.901000000000001 90.21900000000001 5.2925Q92.278 5.684 93.1335 6.2205Q93.989 6.757000000000001 93.989 7.627000000000001Q93.989 8.526 93.4235 9.135Q92.858 9.744 91.43700000000001 10.0485Q90.016 10.353 87.37700000000001 10.353Q82.82400000000001 10.353 81.084 9.0335Q79.34400000000001 7.714 79.34400000000001 5.423Q79.34400000000001 4.843 79.5035 4.3065Q79.66300000000001 3.77 79.89500000000001 3.5090000000000003L79.69200000000001 2.6100000000000003Q74.21100000000001 3.2190000000000003 72.19550000000001 4.7125Q70.18 6.206 70.18 8.236Q70.18 10.034 71.48500000000001 11.3825Q72.79 12.731 76.06700000000001 13.470500000000001Q79.34400000000001 14.21 85.20200000000001 14.21Q94.772 14.21 99.76000000000002 11.339Q104.74800000000002 8.468 104.74800000000002 4.002Q104.74800000000002 1.4500000000000002 103.42850000000001 -0.21749999999999992Q102.10900000000001 -1.885 99.209 -2.8565Q96.30900000000001 -3.8280000000000003 91.524 -4.321000000000001ZM90.857 -25.781000000000002 93.49600000000001 -25.607000000000003Q94.424 -27.927000000000003 95.09100000000001 -28.768Q95.75800000000001 -29.609 96.86000000000001 -29.609Q97.933 -29.609 98.513 -29.116Q99.093 -28.623 99.5425 -27.956000000000003Q99.992 -27.289 100.64450000000001 -26.796Q101.29700000000001 -26.303 102.54400000000001 -26.303Q104.34200000000001 -26.303 105.44400000000002 -27.6515Q106.546 -29.0 106.546 -31.204Q106.546 -33.611000000000004 105.125 -34.887Q103.70400000000001 -36.163000000000004 101.471 -36.163000000000004Q98.60000000000001 -36.163000000000004 96.0625 -34.249Q93.525 -32.335 91.90100000000001 -28.333000000000002ZM102.22500000000001 -18.27Q102.22500000000001 -21.228 100.49950000000001 -23.577Q98.774 -25.926000000000002 95.43900000000001 -27.289Q92.10400000000001 -28.652 87.26100000000001 -28.652Q82.186 -28.652 78.53200000000001 -27.202Q74.87800000000001 -25.752000000000002 72.935 -23.142000000000003Q70.992 -20.532 70.992 -17.081Q70.992 -14.152000000000001 72.7175 -11.7885Q74.44300000000001 -9.425 77.79250000000002 -8.062000000000001Q81.14200000000001 -6.699000000000001 85.956 -6.699000000000001Q91.06 -6.699000000000001 94.6995 -8.149000000000001Q98.33900000000001 -9.599 100.28200000000001 -12.209Q102.22500000000001 -14.819 102.22500000000001 -18.27ZM85.11500000000001 -25.259Q86.536 -25.549000000000003 87.551 -23.867000000000004Q88.566 -22.185000000000002 89.32000000000001 -18.328Q90.07400000000001 -14.471 89.784 -12.528Q89.494 -10.585 88.07300000000001 -10.295Q87.14500000000001 -10.121 86.37650000000001 -10.788Q85.608 -11.455 84.99900000000001 -13.0645Q84.39000000000001 -14.674000000000001 83.86800000000001 -17.226000000000003Q83.375 -19.807000000000002 83.3315 -21.518Q83.28800000000001 -23.229000000000003 83.73750000000001 -24.157000000000004Q84.18700000000001 -25.085 85.11500000000001 -25.259Z M139.60600000000002 -5.945V-6.322H139.17100000000002V-19.720000000000002Q139.17100000000002 -20.648 138.92450000000002 -21.0395Q138.67800000000003 -21.431 138.185 -21.576L137.54700000000003 -21.779Q136.93800000000002 -21.982000000000003 136.66250000000002 -22.359Q136.38700000000003 -22.736 136.38700000000003 -23.316000000000003Q136.38700000000003 -24.012 136.764 -24.418Q137.14100000000002 -24.824 138.185 -25.23L144.62300000000002 -27.724Q146.10200000000003 -28.304000000000002 147.01550000000003 -28.565Q147.92900000000003 -28.826 148.79900000000004 -28.826Q150.104 -28.826 150.7855 -28.0865Q151.467 -27.347 151.467 -26.216V-6.090000000000001Q151.467 -4.930000000000001 151.64100000000002 -4.4515Q151.81500000000003 -3.9730000000000003 152.25 -3.77L152.88800000000003 -3.48Q153.555 -3.19 153.84500000000003 -2.755Q154.13500000000002 -2.3200000000000003 154.13500000000002 -1.74Q154.13500000000002 -0.928 153.613 -0.464Q153.091 0.0 151.931 0.0H144.82600000000002Q142.76700000000002 0.0 141.18650000000002 -1.7690000000000001Q139.60600000000002 -3.5380000000000003 139.60600000000002 -5.945ZM120.43700000000001 -8.468V-19.720000000000002Q120.43700000000001 -20.648 120.19050000000001 -21.0395Q119.94400000000002 -21.431 119.45100000000002 -21.576L118.81300000000002 -21.779Q118.20400000000002 -21.982000000000003 117.92850000000001 -22.359Q117.65300000000002 -22.736 117.65300000000002 -23.316000000000003Q117.65300000000002 -24.012 118.03000000000002 -24.418Q118.40700000000001 -24.824 119.45100000000002 -25.23L125.88900000000001 -27.724Q127.45500000000001 -28.333000000000002 128.354 -28.579500000000003Q129.25300000000001 -28.826 129.949 -28.826Q131.341 -28.826 132.037 -28.0865Q132.733 -27.347 132.733 -26.216V-10.208Q132.733 -8.352 133.5885 -7.424Q134.44400000000002 -6.496 135.98100000000002 -6.496Q136.93800000000002 -6.496 137.98200000000003 -6.873Q139.026 -7.25 139.83800000000002 -7.9750000000000005L140.853 -8.874L142.59300000000002 -7.018000000000001L141.723 -6.206Q137.63400000000001 -2.291 134.618 -0.7394999999999999Q131.602 0.812 129.079 0.812Q125.22200000000001 0.812 122.82950000000001 -1.7690000000000001Q120.43700000000001 -4.3500000000000005 120.43700000000001 -8.468Z M171.883 -26.216V-23.606L172.46300000000002 -22.504V7.424Q172.46300000000002 8.584 172.637 9.0625Q172.811 9.541 173.246 9.744L173.88400000000001 10.034Q174.55100000000002 10.324 174.841 10.759Q175.131 11.194 175.131 11.774000000000001Q175.131 12.586 174.609 13.05Q174.08700000000002 13.514000000000001 172.92700000000002 13.514000000000001H159.703Q158.543 13.514000000000001 158.02100000000002 13.05Q157.499 12.586 157.499 11.774000000000001Q157.499 11.194 157.789 10.759Q158.079 10.324 158.746 10.034L159.38400000000001 9.744Q159.81900000000002 9.541 159.993 9.0625Q160.167 8.584 160.167 7.424V-19.720000000000002Q160.167 -20.648 159.9205 -21.0395Q159.674 -21.431 159.181 -21.576L158.543 -21.779Q157.934 -21.982000000000003 157.6585 -22.359Q157.383 -22.736 157.383 -23.316000000000003Q157.383 -24.012 157.76 -24.3745Q158.137 -24.737000000000002 159.181 -25.201L165.03900000000002 -27.724Q166.46 -28.333000000000002 167.388 -28.579500000000003Q168.316 -28.826 169.07 -28.826Q170.491 -28.826 171.187 -28.0865Q171.883 -27.347 171.883 -26.216ZM170.288 -18.154 168.229 -20.126Q170.723 -24.186 173.82600000000002 -26.506Q176.929 -28.826 180.931 -28.826Q184.382 -28.826 187.108 -27.057000000000002Q189.834 -25.288 191.4145 -22.1705Q192.995 -19.053 192.995 -14.964Q192.995 -10.237 191.05200000000002 -6.6845Q189.109 -3.132 185.745 -1.1600000000000001Q182.381 0.812 178.14700000000002 0.812Q174.638 0.812 172.01350000000002 -0.6815000000000001Q169.389 -2.1750000000000003 167.47500000000002 -5.220000000000001L170.636 -7.3660000000000005Q171.97 -5.452 173.159 -4.6545000000000005Q174.348 -3.857 175.74 -3.857Q177.103 -3.857 178.1325 -4.843Q179.162 -5.829000000000001 179.72750000000002 -8.004000000000001Q180.293 -10.179 180.293 -13.717Q180.293 -16.965 179.69850000000002 -18.951500000000003Q179.104 -20.938000000000002 178.089 -21.8515Q177.074 -22.765 175.74 -22.765Q174.145 -22.765 172.811 -21.677500000000002Q171.477 -20.59 170.288 -18.154Z M229.65099999999998 -5.684 222.923 5.191 209.612 -22.243000000000002Q209.119 -23.287000000000003 208.62599999999998 -23.707500000000003Q208.13299999999998 -24.128 207.35 -24.505000000000003Q206.76999999999998 -24.795 206.509 -25.186500000000002Q206.248 -25.578000000000003 206.248 -26.216Q206.248 -27.028000000000002 206.81349999999998 -27.492000000000004Q207.379 -27.956000000000003 208.36499999999998 -27.956000000000003H223.96699999999998Q224.92399999999998 -27.956000000000003 225.48949999999996 -27.492000000000004Q226.05499999999998 -27.028000000000002 226.05499999999998 -26.216Q226.05499999999998 -25.578000000000003 225.7215 -25.186500000000002Q225.38799999999998 -24.795 224.634 -24.563000000000002L223.851 -24.331Q222.69099999999997 -23.983 222.488 -23.200000000000003Q222.285 -22.417 223.09699999999998 -20.532ZM223.09699999999998 2.494 223.909 0.638 225.475 -2.291 232.551 -19.952Q233.30499999999998 -21.808 233.10199999999998 -22.7795Q232.899 -23.751 231.70999999999998 -24.128L230.753 -24.447000000000003Q230.028 -24.679000000000002 229.6655 -25.128500000000003Q229.303 -25.578000000000003 229.303 -26.216Q229.303 -27.028000000000002 229.86849999999998 -27.492000000000004Q230.434 -27.956000000000003 231.391 -27.956000000000003H239.54Q240.52599999999998 -27.956000000000003 241.0915 -27.492000000000004Q241.65699999999998 -27.028000000000002 241.65699999999998 -26.216Q241.65699999999998 -25.694000000000003 241.3525 -25.273500000000002Q241.048 -24.853 240.35199999999998 -24.476000000000003Q239.279 -23.925 238.52499999999998 -23.084000000000003Q237.771 -22.243000000000002 237.017 -20.358L228.172 1.073Q226.113 6.061 224.44549999999998 8.758Q222.778 11.455 220.83499999999998 12.4845Q218.892 13.514000000000001 215.992 13.514000000000001Q211.78699999999998 13.514000000000001 209.29299999999998 11.2665Q206.79899999999998 9.019 206.79899999999998 5.597Q206.79899999999998 3.161 208.046 1.7545Q209.29299999999998 0.34800000000000003 211.381 0.34800000000000003Q213.44 0.34800000000000003 214.51299999999998 1.508Q215.58599999999998 2.668 216.427 4.611000000000001L217.036 6.003Q217.44199999999998 6.96 217.9785 7.511000000000001Q218.515 8.062000000000001 219.095 8.062000000000001Q219.646 8.062000000000001 220.12449999999998 7.7285Q220.60299999999998 7.3950000000000005 221.29899999999998 6.206Q221.99499999999998 5.017 223.09699999999998 2.494Z M259.782 -28.826Q264.712 -28.826 268.395 -26.9555Q272.07800000000003 -25.085 274.12250000000006 -21.721Q276.16700000000003 -18.357 276.16700000000003 -13.891Q276.16700000000003 -9.773 274.021 -6.438Q271.875 -3.103 268.0905 -1.1455000000000002Q264.306 0.812 259.318 0.812Q254.388 0.812 250.70499999999998 -1.0875Q247.022 -2.987 244.9775 -6.351Q242.933 -9.715 242.933 -14.123000000000001Q242.933 -18.328 245.079 -21.6485Q247.225 -24.969 251.0095 -26.8975Q254.794 -28.826 259.782 -28.826ZM261.899 -3.3930000000000002Q263.001 -3.6540000000000004 263.581 -4.930000000000001Q264.161 -6.206 264.103 -8.642000000000001Q264.045 -11.078000000000001 263.233 -14.819Q262.479 -18.415000000000003 261.5365 -20.677Q260.594 -22.939 259.49199999999996 -23.925Q258.39 -24.911 257.201 -24.621000000000002Q256.099 -24.360000000000003 255.519 -23.084000000000003Q254.939 -21.808 255.0115 -19.386499999999998Q255.084 -16.965 255.86700000000002 -13.195Q256.621 -9.628 257.578 -7.3515Q258.535 -5.075 259.6225 -4.1035Q260.71 -3.132 261.899 -3.3930000000000002Z M300.58500000000004 -5.945V-6.322H300.15000000000003V-19.720000000000002Q300.15000000000003 -20.648 299.9035 -21.0395Q299.65700000000004 -21.431 299.164 -21.576L298.526 -21.779Q297.91700000000003 -21.982000000000003 297.64150000000006 -22.359Q297.36600000000004 -22.736 297.36600000000004 -23.316000000000003Q297.36600000000004 -24.012 297.74300000000005 -24.418Q298.12 -24.824 299.164 -25.23L305.60200000000003 -27.724Q307.081 -28.304000000000002 307.9945 -28.565Q308.908 -28.826 309.778 -28.826Q311.083 -28.826 311.7645 -28.0865Q312.446 -27.347 312.446 -26.216V-6.090000000000001Q312.446 -4.930000000000001 312.62 -4.4515Q312.79400000000004 -3.9730000000000003 313.22900000000004 -3.77L313.867 -3.48Q314.534 -3.19 314.824 -2.755Q315.11400000000003 -2.3200000000000003 315.11400000000003 -1.74Q315.11400000000003 -0.928 314.592 -0.464Q314.07 0.0 312.91 0.0H305.805Q303.74600000000004 0.0 302.16550000000007 -1.7690000000000001Q300.58500000000004 -3.5380000000000003 300.58500000000004 -5.945ZM281.416 -8.468V-19.720000000000002Q281.416 -20.648 281.16949999999997 -21.0395Q280.923 -21.431 280.43 -21.576L279.79200000000003 -21.779Q279.183 -21.982000000000003 278.9075 -22.359Q278.632 -22.736 278.632 -23.316000000000003Q278.632 -24.012 279.009 -24.418Q279.386 -24.824 280.43 -25.23L286.868 -27.724Q288.434 -28.333000000000002 289.333 -28.579500000000003Q290.232 -28.826 290.928 -28.826Q292.32 -28.826 293.01599999999996 -28.0865Q293.712 -27.347 293.712 -26.216V-10.208Q293.712 -8.352 294.5675 -7.424Q295.423 -6.496 296.96000000000004 -6.496Q297.91700000000003 -6.496 298.961 -6.873Q300.005 -7.25 300.817 -7.9750000000000005L301.832 -8.874L303.572 -7.018000000000001L302.702 -6.206Q298.613 -2.291 295.597 -0.7394999999999999Q292.581 0.812 290.058 0.812Q286.201 0.812 283.8085 -1.7690000000000001Q281.416 -4.3500000000000005 281.416 -8.468Z M332.311 -15.834000000000001Q332.311 -20.271 333.471 -23.1565Q334.631 -26.042 336.55949999999996 -27.434Q338.488 -28.826 340.779 -28.826Q343.853 -28.826 345.4915 -26.9845Q347.13 -25.143 347.13 -21.431Q347.13 -17.632 345.60749999999996 -15.834000000000001Q344.085 -14.036000000000001 341.649 -14.036000000000001Q339.18399999999997 -14.036000000000001 337.9515 -15.297500000000001Q336.719 -16.559 336.719 -18.792V-20.01Q336.69 -20.764 336.3855 -21.1555Q336.081 -21.547 335.443 -21.547Q334.863 -21.547 334.4135 -21.0395Q333.964 -20.532 333.703 -19.386499999999998Q333.442 -18.241 333.442 -16.298000000000002ZM332.63 -26.216 333.442 -20.155V-6.090000000000001Q333.442 -5.075 333.73199999999997 -4.6545000000000005Q334.022 -4.234 335.066 -4.031000000000001L337.27 -3.596Q338.14 -3.422 338.546 -2.987Q338.952 -2.552 338.952 -1.7690000000000001Q338.952 -0.928 338.38649999999996 -0.464Q337.82099999999997 0.0 336.719 0.0H320.682Q319.522 0.0 319.0 -0.464Q318.478 -0.928 318.478 -1.74Q318.478 -2.3200000000000003 318.76800000000003 -2.755Q319.058 -3.19 319.72499999999997 -3.48L320.363 -3.77Q320.798 -3.9730000000000003 320.972 -4.4515Q321.146 -4.930000000000001 321.146 -6.090000000000001V-19.604000000000003Q321.146 -20.532 320.8995 -20.9235Q320.653 -21.315 320.15999999999997 -21.46L319.522 -21.663Q318.913 -21.866 318.6375 -22.243000000000002Q318.36199999999997 -22.62 318.36199999999997 -23.200000000000003Q318.36199999999997 -23.896 318.7535 -24.3165Q319.145 -24.737000000000002 320.15999999999997 -25.114L326.395 -27.55Q328.454 -28.362000000000002 329.353 -28.594Q330.252 -28.826 330.745 -28.826Q331.557 -28.826 331.992 -28.2315Q332.427 -27.637 332.63 -26.216Z M376.362 -26.216V-6.090000000000001Q376.362 -4.930000000000001 376.53600000000006 -4.466Q376.71000000000004 -4.002 377.145 -3.77L377.725 -3.451Q378.682 -2.9000000000000004 378.682 -1.856Q378.682 0.0 376.449 0.0H363.60200000000003Q362.442 0.0 361.92 -0.464Q361.398 -0.928 361.398 -1.74Q361.398 -2.3200000000000003 361.688 -2.755Q361.978 -3.19 362.645 -3.48L363.283 -3.77Q363.718 -3.9730000000000003 363.89200000000005 -4.4515Q364.06600000000003 -4.930000000000001 364.06600000000003 -6.090000000000001V-19.720000000000002Q364.06600000000003 -20.648 363.81950000000006 -21.0395Q363.57300000000004 -21.431 363.08 -21.576L362.442 -21.779Q361.833 -21.982000000000003 361.5575 -22.359Q361.282 -22.736 361.282 -23.316000000000003Q361.282 -24.012 361.659 -24.418Q362.036 -24.824 363.08 -25.23L369.51800000000003 -27.724Q370.997 -28.304000000000002 371.9105 -28.565Q372.824 -28.826 373.694 -28.826Q374.999 -28.826 375.68050000000005 -28.0865Q376.362 -27.347 376.362 -26.216ZM375.318 -19.14 373.57800000000003 -20.996000000000002 374.44800000000004 -21.808Q378.53700000000003 -25.607000000000003 381.437 -27.216500000000003Q384.337 -28.826 386.802 -28.826Q390.572 -28.826 392.7035 -26.245Q394.83500000000004 -23.664 395.212 -19.546L396.517 -6.090000000000001Q396.63300000000004 -4.930000000000001 396.749 -4.4515Q396.865 -3.9730000000000003 397.3 -3.77L397.938 -3.48Q398.605 -3.19 398.895 -2.755Q399.185 -2.3200000000000003 399.185 -1.74Q399.185 -0.928 398.663 -0.464Q398.141 0.0 396.981 0.0H383.98900000000003Q381.75600000000003 0.0 381.75600000000003 -1.856Q381.75600000000003 -2.9000000000000004 382.713 -3.451L383.293 -3.77Q383.728 -4.002 383.96000000000004 -4.466Q384.192 -4.930000000000001 384.076 -6.090000000000001L382.974 -17.806Q382.8 -19.662000000000003 382.08950000000004 -20.590000000000003Q381.379 -21.518 379.90000000000003 -21.518Q379.00100000000003 -21.518 378.0585 -21.1265Q377.116 -20.735 376.333 -20.039Z M430.59200000000004 -17.632Q430.59200000000004 -15.602 429.49 -14.485500000000002Q428.38800000000003 -13.369000000000002 426.329 -13.369000000000002H409.132V-16.385H416.875Q418.47 -16.385 418.47 -17.893Q418.47 -21.547 417.629 -23.113Q416.788 -24.679000000000002 415.396 -24.679000000000002Q414.38100000000003 -24.679000000000002 413.569 -23.925000000000004Q412.757 -23.171000000000003 412.2785 -21.619500000000002Q411.8 -20.068 411.8 -17.69Q411.8 -12.412 414.178 -9.961500000000001Q416.55600000000004 -7.511 420.67400000000004 -7.511Q422.588 -7.511 424.154 -7.946Q425.72 -8.381 427.228 -9.715Q428.069 -10.469000000000001 428.504 -10.73Q428.939 -10.991000000000001 429.345 -10.991000000000001Q429.925 -10.991000000000001 430.20050000000003 -10.411000000000001Q430.476 -9.831000000000001 430.476 -8.99Q430.476 -6.409000000000001 428.7215 -4.1615Q426.96700000000004 -1.9140000000000001 423.84950000000003 -0.551Q420.732 0.812 416.58500000000004 0.812Q412.148 0.812 408.61 -0.9425Q405.072 -2.697 403.01300000000003 -5.843500000000001Q400.954 -8.99 400.954 -13.195Q400.954 -17.922 402.839 -21.431Q404.724 -24.94 408.3345 -26.883000000000003Q411.945 -28.826 417.04900000000004 -28.826Q421.54400000000004 -28.826 424.56000000000006 -27.376Q427.576 -25.926000000000002 429.08400000000006 -23.403000000000002Q430.59200000000004 -20.880000000000003 430.59200000000004 -17.632Z M444.65700000000004 -15.486 447.87600000000003 -13.92 443.004 -7.453Q442.01800000000003 -6.119000000000001 442.1775 -5.118500000000001Q442.33700000000005 -4.118 443.23600000000005 -3.6830000000000003L443.78700000000003 -3.422Q444.367 -3.132 444.65700000000004 -2.755Q444.94700000000006 -2.378 444.94700000000006 -1.798Q444.94700000000006 -0.9860000000000001 444.3670000000001 -0.5075000000000001Q443.78700000000003 -0.029 442.80100000000004 -0.029H434.76800000000003Q433.78200000000004 -0.029 433.2165 -0.5075000000000001Q432.651 -0.9860000000000001 432.651 -1.798Q432.651 -2.378 432.97 -2.7985Q433.28900000000004 -3.2190000000000003 434.10100000000006 -3.6830000000000003Q435.08700000000005 -4.147 435.8845 -4.7995Q436.682 -5.452 437.581 -6.4815000000000005Q438.48 -7.511 439.72700000000003 -9.077ZM450.776 -22.330000000000002 455.35800000000006 -15.863000000000001 455.85100000000006 -15.283000000000001 462.69500000000005 -6.148000000000001Q463.59400000000005 -4.988 464.13050000000004 -4.4225Q464.66700000000003 -3.857 465.189 -3.5380000000000003Q465.79800000000006 -3.161 466.0880000000001 -2.755Q466.37800000000004 -2.349 466.37800000000004 -1.7690000000000001Q466.37800000000004 -0.9570000000000001 465.798 -0.47850000000000004Q465.218 0.0 464.20300000000003 0.0H448.978Q447.934 0.0 447.35400000000004 -0.47850000000000004Q446.77400000000006 -0.9570000000000001 446.77400000000006 -1.798Q446.77400000000006 -2.378 447.0205000000001 -2.7405Q447.26700000000005 -3.103 447.76000000000005 -3.306L448.34000000000003 -3.5380000000000003Q448.949 -3.77 448.949 -4.2485Q448.949 -4.727 448.34000000000003 -5.5680000000000005L443.75800000000004 -12.122L443.23600000000005 -12.76L436.82700000000006 -22.040000000000003Q436.16 -23.026 435.50750000000005 -23.5045Q434.855 -23.983 434.18800000000005 -24.273Q433.434 -24.592000000000002 433.1585 -25.027Q432.88300000000004 -25.462 432.88300000000004 -26.158Q432.88300000000004 -26.999000000000002 433.463 -27.477500000000003Q434.043 -27.956000000000003 435.05800000000005 -27.956000000000003H449.90600000000006Q450.89200000000005 -27.956000000000003 451.47200000000004 -27.492000000000004Q452.052 -27.028000000000002 452.052 -26.187Q452.052 -25.636000000000003 451.84900000000005 -25.259Q451.646 -24.882 451.24 -24.592000000000002L450.689 -24.215Q450.225 -23.896 450.2395 -23.490000000000002Q450.254 -23.084 450.776 -22.330000000000002ZM454.02400000000006 -12.499 450.80500000000006 -14.065000000000001 455.677 -20.532Q456.692 -21.866 456.5325 -22.866500000000002Q456.37300000000005 -23.867 455.44500000000005 -24.302L454.894 -24.563000000000002Q454.314 -24.853 454.024 -25.244500000000002Q453.73400000000004 -25.636000000000003 453.73400000000004 -26.187Q453.73400000000004 -27.028000000000002 454.314 -27.492000000000004Q454.894 -27.956000000000003 455.88000000000005 -27.956000000000003H463.913Q464.92800000000005 -27.956000000000003 465.47900000000004 -27.492000000000004Q466.03000000000003 -27.028000000000002 466.03000000000003 -26.187Q466.03000000000003 -25.607000000000003 465.711 -25.186500000000002Q465.39200000000005 -24.766000000000002 464.58000000000004 -24.302Q463.13000000000005 -23.635 461.9845 -22.446Q460.83900000000006 -21.257 458.95400000000006 -18.908Z M469.62600000000003 -24.186 468.69800000000004 -24.563000000000002Q468.06000000000006 -24.824 467.74100000000004 -25.230000000000004Q467.422 -25.636000000000003 467.422 -26.216Q467.422 -27.057000000000002 467.98750000000007 -27.506500000000003Q468.55300000000005 -27.956000000000003 469.45200000000006 -27.956000000000003H471.047Q471.59800000000007 -27.956000000000003 472.07650000000007 -28.246000000000002Q472.55500000000006 -28.536 473.309 -29.290000000000003L478.03600000000006 -34.075Q478.99300000000005 -35.032000000000004 479.81950000000006 -35.496Q480.646 -35.96 481.40000000000003 -35.96Q482.24100000000004 -35.96 482.71950000000004 -35.409000000000006Q483.19800000000004 -34.858000000000004 483.19800000000004 -33.814V-10.556000000000001Q483.19800000000004 -8.439 483.923 -7.337Q484.648 -6.235 486.011 -6.235Q487.11300000000006 -6.235 487.70750000000004 -6.7860000000000005Q488.302 -7.337000000000001 488.66450000000003 -8.047500000000001Q489.02700000000004 -8.758000000000001 489.43300000000005 -9.309000000000001Q489.83900000000006 -9.860000000000001 490.535 -9.860000000000001Q491.11500000000007 -9.860000000000001 491.4630000000001 -9.454Q491.81100000000004 -9.048 491.81100000000004 -8.062000000000001Q491.81100000000004 -5.597 490.39000000000004 -3.5815Q488.96900000000005 -1.566 486.475 -0.377Q483.98100000000005 0.812 480.79100000000005 0.812Q476.064 0.812 473.48300000000006 -1.4645000000000001Q470.90200000000004 -3.741 470.90200000000004 -8.352V-22.301000000000002Q470.90200000000004 -23.142 470.5975000000001 -23.519Q470.29300000000006 -23.896 469.62600000000003 -24.186ZM478.96400000000006 -23.838V-27.956000000000003H489.54900000000004Q490.44800000000004 -27.956000000000003 490.9845 -27.564500000000002Q491.5210000000001 -27.173000000000002 491.5210000000001 -26.448Q491.5210000000001 -25.346 490.4480000000001 -24.592Q489.37500000000006 -23.838 486.91 -23.838Z M534.9050000000001 -19.865000000000002Q534.9050000000001 -17.661 533.2375000000001 -16.124000000000002Q531.57 -14.587000000000002 528.7860000000001 -14.587000000000002Q526.089 -14.587000000000002 524.7405000000001 -16.0225Q523.392 -17.458000000000002 523.392 -19.691000000000003V-20.619Q523.392 -22.504 522.609 -23.591500000000003Q521.826 -24.679000000000002 520.5500000000001 -24.679000000000002Q519.5350000000001 -24.679000000000002 518.6505000000001 -23.925000000000004Q517.7660000000001 -23.171000000000003 517.2150000000001 -21.619500000000002Q516.6640000000001 -20.068 516.6640000000001 -17.69Q516.6640000000001 -14.326 517.8095000000001 -12.064Q518.955 -9.802000000000001 520.9560000000001 -8.656500000000001Q522.9570000000001 -7.511 525.509 -7.511Q527.365 -7.511 528.8585 -7.9605Q530.3520000000001 -8.41 531.831 -9.715Q532.672 -10.469000000000001 533.107 -10.73Q533.542 -10.991000000000001 533.9480000000001 -10.991000000000001Q534.528 -10.991000000000001 534.8035 -10.411000000000001Q535.0790000000001 -9.831000000000001 535.0790000000001 -8.99Q535.0790000000001 -6.409000000000001 533.3535 -4.1615Q531.628 -1.9140000000000001 528.5540000000001 -0.551Q525.48 0.812 521.4200000000001 0.812Q516.9830000000001 0.812 513.4595 -0.9425Q509.93600000000004 -2.697 507.87700000000007 -5.843500000000001Q505.81800000000004 -8.99 505.81800000000004 -13.195Q505.81800000000004 -17.69 507.8045000000001 -21.228Q509.79100000000005 -24.766000000000002 513.4305 -26.796Q517.07 -28.826 522.029 -28.826Q526.0020000000001 -28.826 528.8875 -27.622500000000002Q531.773 -26.419 533.339 -24.389000000000003Q534.9050000000001 -22.359 534.9050000000001 -19.865000000000002Z M555.0020000000001 -28.826Q559.9320000000001 -28.826 563.6150000000001 -26.9555Q567.2980000000001 -25.085 569.3425000000001 -21.721Q571.3870000000001 -18.357 571.3870000000001 -13.891Q571.3870000000001 -9.773 569.2410000000001 -6.438Q567.0950000000001 -3.103 563.3105 -1.1455000000000002Q559.5260000000001 0.812 554.5380000000001 0.812Q549.6080000000001 0.812 545.9250000000001 -1.0875Q542.2420000000001 -2.987 540.1975000000001 -6.351Q538.1530000000001 -9.715 538.1530000000001 -14.123000000000001Q538.1530000000001 -18.328 540.2990000000001 -21.6485Q542.445 -24.969 546.2295000000001 -26.8975Q550.0140000000001 -28.826 555.0020000000001 -28.826ZM557.1190000000001 -3.3930000000000002Q558.2210000000001 -3.6540000000000004 558.8010000000002 -4.930000000000001Q559.3810000000001 -6.206 559.3230000000001 -8.642000000000001Q559.2650000000001 -11.078000000000001 558.4530000000001 -14.819Q557.6990000000001 -18.415000000000003 556.7565000000001 -20.677Q555.8140000000001 -22.939 554.7120000000001 -23.925Q553.6100000000001 -24.911 552.421 -24.621000000000002Q551.3190000000001 -24.360000000000003 550.739 -23.084000000000003Q550.1590000000001 -21.808 550.2315000000001 -19.386499999999998Q550.3040000000001 -16.965 551.0870000000001 -13.195Q551.8410000000001 -9.628 552.7980000000001 -7.3515Q553.7550000000001 -5.075 554.8425000000001 -4.1035Q555.9300000000001 -3.132 557.1190000000001 -3.3930000000000002Z M589.5120000000001 -26.216V-6.090000000000001Q589.5120000000001 -4.930000000000001 589.6860000000001 -4.466Q589.8600000000001 -4.002 590.2950000000001 -3.77L590.8750000000001 -3.451Q591.8320000000001 -2.9000000000000004 591.8320000000001 -1.856Q591.8320000000001 0.0 589.599 0.0H576.7520000000001Q575.5920000000001 0.0 575.0700000000002 -0.464Q574.5480000000001 -0.928 574.5480000000001 -1.74Q574.5480000000001 -2.3200000000000003 574.8380000000001 -2.755Q575.128 -3.19 575.7950000000001 -3.48L576.4330000000001 -3.77Q576.868 -3.9730000000000003 577.0420000000001 -4.4515Q577.2160000000001 -4.930000000000001 577.2160000000001 -6.090000000000001V-19.720000000000002Q577.2160000000001 -20.648 576.9695000000002 -21.0395Q576.7230000000001 -21.431 576.2300000000001 -21.576L575.5920000000001 -21.779Q574.9830000000001 -21.982000000000003 574.7075000000001 -22.359Q574.4320000000001 -22.736 574.4320000000001 -23.316000000000003Q574.4320000000001 -24.012 574.8090000000002 -24.418Q575.1860000000001 -24.824 576.2300000000001 -25.23L582.6680000000001 -27.724Q584.147 -28.304000000000002 585.0605 -28.565Q585.974 -28.826 586.844 -28.826Q588.1490000000001 -28.826 588.8305 -28.0865Q589.5120000000001 -27.347 589.5120000000001 -26.216ZM588.4680000000001 -19.14 586.7280000000001 -20.996000000000002 587.5980000000001 -21.808Q591.6870000000001 -25.607000000000003 594.5870000000001 -27.216500000000003Q597.4870000000001 -28.826 599.9520000000001 -28.826Q603.7220000000001 -28.826 605.8535000000002 -26.245Q607.9850000000001 -23.664 608.3620000000001 -19.546L609.6670000000001 -6.090000000000001Q609.7830000000001 -4.930000000000001 609.8990000000001 -4.4515Q610.0150000000001 -3.9730000000000003 610.45 -3.77L611.0880000000001 -3.48Q611.7550000000001 -3.19 612.0450000000001 -2.755Q612.3350000000002 -2.3200000000000003 612.3350000000002 -1.74Q612.3350000000002 -0.928 611.8130000000001 -0.464Q611.291 0.0 610.1310000000001 0.0H597.1390000000001Q594.9060000000001 0.0 594.9060000000001 -1.856Q594.9060000000001 -2.9000000000000004 595.863 -3.451L596.4430000000001 -3.77Q596.8780000000002 -4.002 597.1100000000001 -4.466Q597.3420000000001 -4.930000000000001 597.2260000000001 -6.090000000000001L596.1240000000001 -17.806Q595.95 -19.662000000000003 595.2395000000001 -20.590000000000003Q594.5290000000001 -21.518 593.0500000000001 -21.518Q592.1510000000001 -21.518 591.2085000000001 -21.1265Q590.2660000000001 -20.735 589.4830000000001 -20.039Z M615.4670000000001 -24.186 614.5390000000001 -24.563000000000002Q613.9010000000001 -24.824 613.5820000000001 -25.230000000000004Q613.2630000000001 -25.636000000000003 613.2630000000001 -26.216Q613.2630000000001 -27.057000000000002 613.8285000000001 -27.506500000000003Q614.3940000000001 -27.956000000000003 615.2930000000001 -27.956000000000003H616.8880000000001Q617.4390000000001 -27.956000000000003 617.9175 -28.246000000000002Q618.3960000000001 -28.536 619.1500000000001 -29.290000000000003L623.8770000000001 -34.075Q624.8340000000001 -35.032000000000004 625.6605000000001 -35.496Q626.4870000000001 -35.96 627.2410000000001 -35.96Q628.0820000000001 -35.96 628.5605 -35.409000000000006Q629.0390000000001 -34.858000000000004 629.0390000000001 -33.814V-10.556000000000001Q629.0390000000001 -8.439 629.7640000000001 -7.337Q630.4890000000001 -6.235 631.8520000000001 -6.235Q632.9540000000001 -6.235 633.5485000000001 -6.7860000000000005Q634.1430000000001 -7.337000000000001 634.5055000000002 -8.047500000000001Q634.8680000000002 -8.758000000000001 635.2740000000001 -9.309000000000001Q635.6800000000001 -9.860000000000001 636.3760000000001 -9.860000000000001Q636.9560000000001 -9.860000000000001 637.3040000000001 -9.454Q637.6520000000002 -9.048 637.6520000000002 -8.062000000000001Q637.6520000000002 -5.597 636.2310000000001 -3.5815Q634.8100000000001 -1.566 632.316 -0.377Q629.8220000000001 0.812 626.6320000000001 0.812Q621.9050000000001 0.812 619.3240000000001 -1.4645000000000001Q616.743 -3.741 616.743 -8.352V-22.301000000000002Q616.743 -23.142 616.4385000000001 -23.519Q616.1340000000001 -23.896 615.4670000000001 -24.186ZM624.8050000000001 -23.838V-27.956000000000003H635.3900000000001Q636.2890000000001 -27.956000000000003 636.8255000000001 -27.564500000000002Q637.3620000000001 -27.173000000000002 637.3620000000001 -26.448Q637.3620000000001 -25.346 636.2890000000001 -24.592Q635.2160000000001 -23.838 632.7510000000001 -23.838Z M653.8340000000001 -15.834000000000001Q653.8340000000001 -20.271 654.9940000000001 -23.1565Q656.1540000000001 -26.042 658.0825000000001 -27.434Q660.0110000000001 -28.826 662.302 -28.826Q665.3760000000001 -28.826 667.0145 -26.9845Q668.653 -25.143 668.653 -21.431Q668.653 -17.632 667.1305 -15.834000000000001Q665.6080000000001 -14.036000000000001 663.172 -14.036000000000001Q660.7070000000001 -14.036000000000001 659.4745 -15.297500000000001Q658.2420000000001 -16.559 658.2420000000001 -18.792V-20.01Q658.2130000000001 -20.764 657.9085 -21.1555Q657.604 -21.547 656.9660000000001 -21.547Q656.3860000000001 -21.547 655.9365 -21.0395Q655.4870000000001 -20.532 655.2260000000001 -19.386499999999998Q654.965 -18.241 654.965 -16.298000000000002ZM654.153 -26.216 654.965 -20.155V-6.090000000000001Q654.965 -5.075 655.2550000000001 -4.6545000000000005Q655.5450000000001 -4.234 656.589 -4.031000000000001L658.7930000000001 -3.596Q659.6630000000001 -3.422 660.0690000000001 -2.987Q660.475 -2.552 660.475 -1.7690000000000001Q660.475 -0.928 659.9095 -0.464Q659.344 0.0 658.2420000000001 0.0H642.205Q641.0450000000001 0.0 640.5230000000001 -0.464Q640.0010000000001 -0.928 640.0010000000001 -1.74Q640.0010000000001 -2.3200000000000003 640.291 -2.755Q640.581 -3.19 641.248 -3.48L641.8860000000001 -3.77Q642.321 -3.9730000000000003 642.4950000000001 -4.4515Q642.6690000000001 -4.930000000000001 642.6690000000001 -6.090000000000001V-19.604000000000003Q642.6690000000001 -20.532 642.4225000000001 -20.9235Q642.176 -21.315 641.6830000000001 -21.46L641.0450000000001 -21.663Q640.436 -21.866 640.1605000000001 -22.243000000000002Q639.8850000000001 -22.62 639.8850000000001 -23.200000000000003Q639.8850000000001 -23.896 640.2765000000002 -24.3165Q640.6680000000001 -24.737000000000002 641.6830000000001 -25.114L647.9180000000001 -27.55Q649.9770000000001 -28.362000000000002 650.8760000000001 -28.594Q651.7750000000001 -28.826 652.268 -28.826Q653.08 -28.826 653.5150000000001 -28.2315Q653.95 -27.637 654.153 -26.216Z M688.663 -3.9730000000000003V-4.640000000000001L687.735 -4.6690000000000005V-23.403000000000002Q687.735 -24.505000000000003 687.1405 -25.172000000000004Q686.546 -25.839000000000002 685.5310000000001 -25.839000000000002Q684.777 -25.839000000000002 684.2115000000001 -25.4765Q683.6460000000001 -25.114 683.6460000000001 -24.505000000000003V-21.344Q683.6460000000001 -18.908 681.9785 -17.574Q680.311 -16.240000000000002 677.2080000000001 -16.240000000000002Q674.5690000000001 -16.240000000000002 673.2785000000001 -17.356500000000004Q671.988 -18.473000000000003 671.988 -20.474Q671.988 -22.388 673.7280000000001 -24.302Q675.4680000000001 -26.216 678.9625000000001 -27.492Q682.457 -28.768 687.764 -28.768Q693.912 -28.768 696.8990000000001 -26.5205Q699.8860000000001 -24.273 699.8860000000001 -20.387V-6.525Q699.8860000000001 -5.974 700.1615 -5.6115Q700.437 -5.2490000000000006 701.017 -5.2490000000000006Q701.51 -5.2490000000000006 701.8145 -5.51Q702.119 -5.771 702.38 -6.032Q702.5830000000001 -6.235 702.8005 -6.380000000000001Q703.018 -6.525 703.308 -6.525Q703.801 -6.525 704.0185000000001 -6.1625000000000005Q704.2360000000001 -5.800000000000001 704.2360000000001 -5.2490000000000006Q704.2360000000001 -3.9730000000000003 703.308 -2.5665000000000004Q702.38 -1.1600000000000001 700.5385 -0.17400000000000004Q698.697 0.812 695.971 0.812Q692.7520000000001 0.812 690.7075 -0.551Q688.663 -1.9140000000000001 688.663 -3.9730000000000003ZM670.9440000000001 -6.1770000000000005Q670.9440000000001 -10.15 674.5400000000001 -12.4555Q678.1360000000001 -14.761000000000001 684.6320000000001 -14.761000000000001Q686.3430000000001 -14.761000000000001 687.6190000000001 -14.529Q688.8950000000001 -14.297 689.707 -13.862L688.721 -11.339Q688.1120000000001 -11.687000000000001 687.5755000000001 -11.832Q687.0390000000001 -11.977 686.4010000000001 -11.977Q684.98 -11.977 684.1535 -11.034500000000001Q683.327 -10.092 683.327 -8.323Q683.327 -6.4670000000000005 684.139 -5.4955Q684.951 -4.524 686.2850000000001 -4.524Q687.1260000000001 -4.524 687.8655000000001 -4.9155Q688.605 -5.307 688.9820000000001 -5.829000000000001L689.678 -3.5090000000000003Q688.2860000000001 -1.4500000000000002 685.6325 -0.31900000000000006Q682.979 0.812 679.9630000000001 0.812Q675.903 0.812 673.4235000000001 -1.189Q670.9440000000001 -3.19 670.9440000000001 -6.1770000000000005Z M734.7730000000001 -19.865000000000002Q734.7730000000001 -17.661 733.1055000000001 -16.124000000000002Q731.4380000000001 -14.587000000000002 728.6540000000001 -14.587000000000002Q725.9570000000001 -14.587000000000002 724.6085 -16.0225Q723.2600000000001 -17.458000000000002 723.2600000000001 -19.691000000000003V-20.619Q723.2600000000001 -22.504 722.4770000000001 -23.591500000000003Q721.6940000000001 -24.679000000000002 720.4180000000001 -24.679000000000002Q719.4030000000001 -24.679000000000002 718.5185000000001 -23.925000000000004Q717.6340000000001 -23.171000000000003 717.0830000000001 -21.619500000000002Q716.5320000000002 -20.068 716.5320000000002 -17.69Q716.5320000000002 -14.326 717.6775000000001 -12.064Q718.8230000000001 -9.802000000000001 720.8240000000001 -8.656500000000001Q722.8250000000002 -7.511 725.3770000000001 -7.511Q727.2330000000001 -7.511 728.7265000000001 -7.9605Q730.2200000000001 -8.41 731.6990000000001 -9.715Q732.5400000000001 -10.469000000000001 732.9750000000001 -10.73Q733.4100000000001 -10.991000000000001 733.8160000000001 -10.991000000000001Q734.3960000000001 -10.991000000000001 734.6715000000002 -10.411000000000001Q734.9470000000001 -9.831000000000001 734.9470000000001 -8.99Q734.9470000000001 -6.409000000000001 733.2215000000001 -4.1615Q731.4960000000001 -1.9140000000000001 728.422 -0.551Q725.3480000000001 0.812 721.2880000000001 0.812Q716.8510000000001 0.812 713.3275000000001 -0.9425Q709.8040000000001 -2.697 707.7450000000001 -5.843500000000001Q705.6860000000001 -8.99 705.6860000000001 -13.195Q705.6860000000001 -17.69 707.6725000000001 -21.228Q709.6590000000001 -24.766000000000002 713.2985000000001 -26.796Q716.9380000000001 -28.826 721.8970000000002 -28.826Q725.8700000000001 -28.826 728.7555000000001 -27.622500000000002Q731.6410000000001 -26.419 733.2070000000001 -24.389000000000003Q734.7730000000001 -22.359 734.7730000000001 -19.865000000000002Z M739.3550000000001 -24.186 738.4270000000001 -24.563000000000002Q737.7890000000001 -24.824 737.4700000000001 -25.230000000000004Q737.1510000000002 -25.636000000000003 737.1510000000002 -26.216Q737.1510000000002 -27.057000000000002 737.7165000000002 -27.506500000000003Q738.2820000000002 -27.956000000000003 739.1810000000002 -27.956000000000003H740.7760000000002Q741.3270000000001 -27.956000000000003 741.8055000000002 -28.246000000000002Q742.2840000000001 -28.536 743.0380000000001 -29.290000000000003L747.7650000000001 -34.075Q748.7220000000001 -35.032000000000004 749.5485000000001 -35.496Q750.3750000000001 -35.96 751.1290000000001 -35.96Q751.9700000000001 -35.96 752.4485000000002 -35.409000000000006Q752.9270000000001 -34.858000000000004 752.9270000000001 -33.814V-10.556000000000001Q752.9270000000001 -8.439 753.6520000000002 -7.337Q754.3770000000002 -6.235 755.7400000000001 -6.235Q756.8420000000001 -6.235 757.4365000000001 -6.7860000000000005Q758.0310000000002 -7.337000000000001 758.3935000000001 -8.047500000000001Q758.7560000000001 -8.758000000000001 759.162 -9.309000000000001Q759.5680000000001 -9.860000000000001 760.2640000000001 -9.860000000000001Q760.8440000000002 -9.860000000000001 761.1920000000002 -9.454Q761.5400000000002 -9.048 761.5400000000002 -8.062000000000001Q761.5400000000002 -5.597 760.1190000000001 -3.5815Q758.6980000000001 -1.566 756.2040000000002 -0.377Q753.7100000000002 0.812 750.5200000000001 0.812Q745.7930000000001 0.812 743.2120000000001 -1.4645000000000001Q740.6310000000001 -3.741 740.6310000000001 -8.352V-22.301000000000002Q740.6310000000001 -23.142 740.3265000000001 -23.519Q740.0220000000002 -23.896 739.3550000000001 -24.186ZM748.6930000000001 -23.838V-27.956000000000003H759.2780000000001Q760.1770000000001 -27.956000000000003 760.7135000000001 -27.564500000000002Q761.2500000000001 -27.173000000000002 761.2500000000001 -26.448Q761.2500000000001 -25.346 760.1770000000001 -24.592Q759.1040000000002 -23.838 756.6390000000001 -23.838Z M771.69 0.87Q769.7760000000001 0.87 768.21 -0.10149999999999998Q766.6440000000001 -1.073 765.7305000000001 -2.697Q764.8170000000001 -4.321000000000001 764.8170000000001 -6.206Q764.8170000000001 -8.149000000000001 765.7305000000001 -9.729500000000002Q766.6440000000001 -11.31 768.21 -12.267Q769.7760000000001 -13.224 771.69 -13.224Q773.6620000000001 -13.224 775.2280000000001 -12.267Q776.7940000000001 -11.31 777.7075000000001 -9.729500000000002Q778.6210000000001 -8.149000000000001 778.6210000000001 -6.206Q778.6210000000001 -4.321000000000001 777.7075000000001 -2.697Q776.7940000000001 -1.073 775.2280000000001 -0.10149999999999998Q773.6620000000001 0.87 771.69 0.87Z" fill="#FAF5EC"/>
<path transform="translate(100 318)" d="M0.25 0.0 7.45 -17.5H9.1L16.3 0.0H14.600000000000001L12.375 -5.425000000000001H4.175L1.9500000000000002 0.0ZM4.75 -6.875H11.8L8.275 -15.475000000000001Z M19.05 0.0V-17.5H20.650000000000002V0.0Z M31.400000000000002 5.0V-12.5H32.800000000000004L32.900000000000006 -10.225000000000001Q33.625 -11.425 34.75 -12.1125Q35.875 -12.8 37.300000000000004 -12.8Q38.95 -12.8 40.225 -11.9625Q41.5 -11.125 42.225 -9.65Q42.95 -8.175 42.95 -6.25Q42.95 -4.3500000000000005 42.225 -2.8625000000000003Q41.5 -1.375 40.225 -0.5375Q38.95 0.30000000000000004 37.300000000000004 0.30000000000000004Q35.875 0.30000000000000004 34.75 -0.38749999999999996Q33.625 -1.075 32.900000000000006 -2.275V5.0ZM37.0 -1.05Q38.300000000000004 -1.05 39.300000000000004 -1.7125Q40.300000000000004 -2.375 40.875 -3.5500000000000003Q41.45 -4.7250000000000005 41.45 -6.25Q41.45 -7.775 40.8875 -8.95Q40.325 -10.125 39.325 -10.787500000000001Q38.325 -11.450000000000001 37.025000000000006 -11.450000000000001Q35.825 -11.450000000000001 34.8875 -10.787500000000001Q33.95 -10.125 33.425000000000004 -8.95Q32.900000000000006 -7.775 32.900000000000006 -6.25Q32.900000000000006 -4.7250000000000005 33.425000000000004 -3.5500000000000003Q33.95 -2.375 34.875 -1.7125Q35.800000000000004 -1.05 37.0 -1.05Z M45.95 0.0V-12.5H47.45V-10.3Q48.175000000000004 -11.475000000000001 49.375 -12.012500000000001Q50.575 -12.55 51.875 -12.55V-11.175Q50.775000000000006 -11.175 49.7625 -10.787500000000001Q48.75 -10.4 48.1 -9.4875Q47.45 -8.575000000000001 47.45 -7.0V0.0Z M59.4 0.30000000000000004Q57.6 0.30000000000000004 56.212500000000006 -0.5375Q54.825 -1.375 54.0375 -2.85Q53.25 -4.325 53.25 -6.25Q53.25 -8.175 54.025 -9.65Q54.8 -11.125 56.1875 -11.9625Q57.575 -12.8 59.35 -12.8Q61.15 -12.8 62.537499999999994 -11.9625Q63.925 -11.125 64.69999999999999 -9.65Q65.475 -8.175 65.475 -6.25Q65.475 -4.325 64.69999999999999 -2.85Q63.925 -1.375 62.55 -0.5375Q61.175 0.30000000000000004 59.4 0.30000000000000004ZM59.4 -1.075Q60.75 -1.075 61.775 -1.7375000000000003Q62.8 -2.4000000000000004 63.3875 -3.5625000000000004Q63.975 -4.7250000000000005 63.975 -6.25Q63.975 -7.775 63.3875 -8.9375Q62.8 -10.100000000000001 61.75 -10.762500000000001Q60.7 -11.425 59.35 -11.425Q58.0 -11.425 56.9625 -10.762500000000001Q55.925 -10.100000000000001 55.3375 -8.9375Q54.75 -7.775 54.75 -6.25Q54.75 -4.7250000000000005 55.35 -3.5625000000000004Q55.95 -2.4000000000000004 57.0 -1.7375000000000003Q58.05 -1.075 59.4 -1.075Z M68.6 5.0V-12.5H70.0L70.1 -10.225000000000001Q70.82499999999999 -11.425 71.94999999999999 -12.1125Q73.07499999999999 -12.8 74.5 -12.8Q76.14999999999999 -12.8 77.42499999999998 -11.9625Q78.69999999999999 -11.125 79.42499999999998 -9.65Q80.14999999999999 -8.175 80.14999999999999 -6.25Q80.14999999999999 -4.3500000000000005 79.42499999999998 -2.8625000000000003Q78.69999999999999 -1.375 77.42499999999998 -0.5375Q76.14999999999999 0.30000000000000004 74.5 0.30000000000000004Q73.07499999999999 0.30000000000000004 71.94999999999999 -0.38749999999999996Q70.82499999999999 -1.075 70.1 -2.275V5.0ZM74.19999999999999 -1.05Q75.5 -1.05 76.5 -1.7125Q77.5 -2.375 78.07499999999999 -3.5500000000000003Q78.64999999999999 -4.7250000000000005 78.64999999999999 -6.25Q78.64999999999999 -7.775 78.08749999999999 -8.95Q77.52499999999999 -10.125 76.52499999999999 -10.787500000000001Q75.52499999999999 -11.450000000000001 74.225 -11.450000000000001Q73.02499999999999 -11.450000000000001 72.08749999999999 -10.787500000000001Q71.14999999999999 -10.125 70.625 -8.95Q70.1 -7.775 70.1 -6.25Q70.1 -4.7250000000000005 70.625 -3.5500000000000003Q71.14999999999999 -2.375 72.07499999999999 -1.7125Q73.0 -1.05 74.19999999999999 -1.05Z M88.55 0.30000000000000004Q86.74999999999999 0.30000000000000004 85.36249999999998 -0.5375Q83.975 -1.375 83.1875 -2.85Q82.39999999999999 -4.325 82.39999999999999 -6.25Q82.39999999999999 -8.175 83.17499999999998 -9.65Q83.94999999999999 -11.125 85.33749999999999 -11.9625Q86.725 -12.8 88.49999999999999 -12.8Q90.3 -12.8 91.6875 -11.9625Q93.07499999999999 -11.125 93.85 -9.65Q94.625 -8.175 94.625 -6.25Q94.625 -4.325 93.85 -2.85Q93.07499999999999 -1.375 91.69999999999999 -0.5375Q90.32499999999999 0.30000000000000004 88.55 0.30000000000000004ZM88.55 -1.075Q89.89999999999999 -1.075 90.92499999999998 -1.7375000000000003Q91.94999999999999 -2.4000000000000004 92.5375 -3.5625000000000004Q93.125 -4.7250000000000005 93.125 -6.25Q93.125 -7.775 92.5375 -8.9375Q91.94999999999999 -10.100000000000001 90.89999999999999 -10.762500000000001Q89.85 -11.425 88.49999999999999 -11.425Q87.14999999999999 -11.425 86.11249999999998 -10.762500000000001Q85.07499999999999 -10.100000000000001 84.48749999999998 -8.9375Q83.89999999999999 -7.775 83.89999999999999 -6.25Q83.89999999999999 -4.7250000000000005 84.5 -3.5625000000000004Q85.1 -2.4000000000000004 86.14999999999999 -1.7375000000000003Q87.19999999999999 -1.075 88.55 -1.075Z M101.875 0.30000000000000004Q100.45 0.30000000000000004 99.42500000000001 -0.125Q98.4 -0.55 97.7625 -1.225Q97.125 -1.9000000000000001 96.875 -2.625L98.225 -3.125Q98.65 -2.2 99.5875 -1.6375000000000002Q100.525 -1.075 101.6 -1.075Q102.925 -1.075 103.85 -1.625Q104.775 -2.1750000000000003 104.775 -3.1750000000000003Q104.775 -4.075 104.1 -4.65Q103.425 -5.2250000000000005 102.1 -5.575L100.875 -5.9Q99.2 -6.3500000000000005 98.2875 -7.2125Q97.375 -8.075000000000001 97.375 -9.15Q97.375 -10.875 98.5125 -11.8375Q99.65 -12.8 101.95 -12.8Q103.025 -12.8 103.8875 -12.4875Q104.75 -12.175 105.3625 -11.600000000000001Q105.975 -11.025 106.275 -10.225000000000001L104.925 -9.65Q104.525 -10.625 103.75 -11.025Q102.975 -11.425 101.725 -11.425Q100.4 -11.425 99.6375 -10.8625Q98.875 -10.3 98.875 -9.275Q98.875 -8.725 99.4875 -8.1875Q100.1 -7.65 101.325 -7.325L102.4 -7.050000000000001Q103.625 -6.75 104.4875 -6.1875Q105.35 -5.625 105.8125 -4.9Q106.275 -4.175 106.275 -3.3000000000000003Q106.275 -2.1750000000000003 105.7 -1.3625000000000003Q105.125 -0.55 104.1375 -0.125Q103.15 0.30000000000000004 101.875 0.30000000000000004Z M113.2 0.30000000000000004Q111.0 0.30000000000000004 109.7625 -0.7125Q108.525 -1.725 108.525 -3.5250000000000004Q108.525 -5.375 109.7625 -6.4Q111.0 -7.425000000000001 113.2 -7.425000000000001H116.9Q116.80000000000001 -9.425 115.97500000000001 -10.425Q115.15 -11.425 113.45 -11.425Q112.325 -11.425 111.5625 -10.975000000000001Q110.80000000000001 -10.525 110.30000000000001 -9.575000000000001L108.95 -10.175Q109.47500000000001 -11.075000000000001 110.13750000000002 -11.650000000000002Q110.80000000000001 -12.225000000000001 111.625 -12.512500000000001Q112.45 -12.8 113.45 -12.8Q115.125 -12.8 116.225 -12.125Q117.325 -11.450000000000001 117.875 -10.100000000000001Q118.42500000000001 -8.75 118.42500000000001 -6.7V0.0H117.05000000000001L116.92500000000001 -1.75Q116.35000000000001 -0.775 115.4 -0.2375Q114.45 0.30000000000000004 113.2 0.30000000000000004ZM113.10000000000001 -1.075Q114.30000000000001 -1.075 115.16250000000001 -1.5625Q116.025 -2.0500000000000003 116.47500000000001 -3.0Q116.92500000000001 -3.95 116.92500000000001 -5.3500000000000005V-6.050000000000001H113.4Q111.60000000000001 -6.050000000000001 110.8125 -5.387500000000001Q110.025 -4.7250000000000005 110.025 -3.5250000000000004Q110.025 -2.375 110.8375 -1.725Q111.65 -1.075 113.10000000000001 -1.075Z M121.80000000000001 0.0V-17.5H123.30000000000001V0.0Z M137.55 0.30000000000000004Q136.125 0.30000000000000004 135.10000000000002 -0.125Q134.07500000000002 -0.55 133.4375 -1.225Q132.8 -1.9000000000000001 132.55 -2.625L133.9 -3.125Q134.32500000000002 -2.2 135.26250000000002 -1.6375000000000002Q136.20000000000002 -1.075 137.275 -1.075Q138.60000000000002 -1.075 139.52500000000003 -1.625Q140.45000000000002 -2.1750000000000003 140.45000000000002 -3.1750000000000003Q140.45000000000002 -4.075 139.77500000000003 -4.65Q139.10000000000002 -5.2250000000000005 137.775 -5.575L136.55 -5.9Q134.875 -6.3500000000000005 133.9625 -7.2125Q133.05 -8.075000000000001 133.05 -9.15Q133.05 -10.875 134.1875 -11.8375Q135.32500000000002 -12.8 137.625 -12.8Q138.70000000000002 -12.8 139.5625 -12.4875Q140.425 -12.175 141.03750000000002 -11.600000000000001Q141.65 -11.025 141.95000000000002 -10.225000000000001L140.60000000000002 -9.65Q140.20000000000002 -10.625 139.425 -11.025Q138.65 -11.425 137.4 -11.425Q136.07500000000002 -11.425 135.3125 -10.8625Q134.55 -10.3 134.55 -9.275Q134.55 -8.725 135.16250000000002 -8.1875Q135.775 -7.65 137.0 -7.325L138.07500000000002 -7.050000000000001Q139.3 -6.75 140.16250000000002 -6.1875Q141.025 -5.625 141.4875 -4.9Q141.95000000000002 -4.175 141.95000000000002 -3.3000000000000003Q141.95000000000002 -2.1750000000000003 141.375 -1.3625000000000003Q140.8 -0.55 139.8125 -0.125Q138.82500000000002 0.30000000000000004 137.55 0.30000000000000004Z M150.35000000000002 0.30000000000000004Q148.55 0.30000000000000004 147.16250000000002 -0.5375Q145.775 -1.375 144.9875 -2.85Q144.20000000000002 -4.325 144.20000000000002 -6.25Q144.20000000000002 -8.175 144.97500000000002 -9.65Q145.75000000000003 -11.125 147.13750000000002 -11.9625Q148.525 -12.8 150.3 -12.8Q152.10000000000002 -12.8 153.4875 -11.9625Q154.87500000000003 -11.125 155.65000000000003 -9.65Q156.425 -8.175 156.425 -6.25Q156.425 -4.325 155.65000000000003 -2.85Q154.87500000000003 -1.375 153.50000000000003 -0.5375Q152.12500000000003 0.30000000000000004 150.35000000000002 0.30000000000000004ZM150.35000000000002 -1.075Q151.70000000000002 -1.075 152.72500000000002 -1.7375000000000003Q153.75000000000003 -2.4000000000000004 154.33750000000003 -3.5625000000000004Q154.925 -4.7250000000000005 154.925 -6.25Q154.925 -7.775 154.33750000000003 -8.9375Q153.75000000000003 -10.100000000000001 152.70000000000002 -10.762500000000001Q151.65 -11.425 150.3 -11.425Q148.95000000000002 -11.425 147.91250000000002 -10.762500000000001Q146.87500000000003 -10.100000000000001 146.28750000000002 -8.9375Q145.70000000000002 -7.775 145.70000000000002 -6.25Q145.70000000000002 -4.7250000000000005 146.3 -3.5625000000000004Q146.9 -2.4000000000000004 147.95000000000002 -1.7375000000000003Q149.00000000000003 -1.075 150.35000000000002 -1.075Z M160.675 0.0V-11.125H158.3V-12.5H160.675V-14.0Q160.675 -15.925 161.55 -16.8625Q162.425 -17.8 164.20000000000002 -17.8Q164.60000000000002 -17.8 165.15000000000003 -17.65Q165.70000000000002 -17.5 166.425 -17.2L165.875 -15.925Q165.22500000000002 -16.175 164.78750000000002 -16.3Q164.35000000000002 -16.425 164.07500000000002 -16.425Q163.125 -16.425 162.65 -15.825000000000001Q162.175 -15.225000000000001 162.175 -14.0V-12.5H166.0V-11.125H162.175V0.0Z M172.95000000000002 0.30000000000000004Q171.22500000000002 0.30000000000000004 170.25 -0.6125Q169.275 -1.5250000000000001 169.275 -3.2V-11.125H167.05V-12.5H169.275V-16.400000000000002H170.775V-12.5H174.75V-11.125H170.775V-3.2Q170.775 -2.2 171.35000000000002 -1.6375000000000002Q171.925 -1.075 172.95000000000002 -1.075Q173.25 -1.075 173.53750000000002 -1.1625Q173.82500000000002 -1.25 174.375 -1.625L175.0 -0.325Q174.32500000000002 0.07500000000000001 173.875 0.18750000000000003Q173.425 0.30000000000000004 172.95000000000002 0.30000000000000004Z M180.25 0.0 176.0 -12.5H177.5L181.025 -2.1750000000000003L184.575 -12.5H186.075L189.6 -2.225L193.1 -12.5H194.6L190.35 0.0H188.825L185.325 -10.3L181.8 0.0Z M200.65 0.30000000000000004Q198.45 0.30000000000000004 197.21249999999998 -0.7125Q195.975 -1.725 195.975 -3.5250000000000004Q195.975 -5.375 197.21249999999998 -6.4Q198.45 -7.425000000000001 200.65 -7.425000000000001H204.35Q204.25 -9.425 203.425 -10.425Q202.6 -11.425 200.9 -11.425Q199.775 -11.425 199.0125 -10.975000000000001Q198.25 -10.525 197.75 -9.575000000000001L196.4 -10.175Q196.92499999999998 -11.075000000000001 197.58749999999998 -11.650000000000002Q198.25 -12.225000000000001 199.075 -12.512500000000001Q199.9 -12.8 200.9 -12.8Q202.575 -12.8 203.675 -12.125Q204.775 -11.450000000000001 205.325 -10.100000000000001Q205.875 -8.75 205.875 -6.7V0.0H204.5L204.375 -1.75Q203.79999999999998 -0.775 202.85 -0.2375Q201.9 0.30000000000000004 200.65 0.30000000000000004ZM200.54999999999998 -1.075Q201.75 -1.075 202.6125 -1.5625Q203.475 -2.0500000000000003 203.925 -3.0Q204.375 -3.95 204.375 -5.3500000000000005V-6.050000000000001H200.85Q199.04999999999998 -6.050000000000001 198.2625 -5.387500000000001Q197.475 -4.7250000000000005 197.475 -3.5250000000000004Q197.475 -2.375 198.2875 -1.725Q199.1 -1.075 200.54999999999998 -1.075Z M209.25 0.0V-12.5H210.75V-10.3Q211.475 -11.475000000000001 212.675 -12.012500000000001Q213.875 -12.55 215.175 -12.55V-11.175Q214.075 -11.175 213.0625 -10.787500000000001Q212.05 -10.4 211.4 -9.4875Q210.75 -8.575000000000001 210.75 -7.0V0.0Z M222.70000000000002 0.30000000000000004Q220.9 0.30000000000000004 219.5125 -0.5375Q218.125 -1.375 217.3375 -2.85Q216.55 -4.325 216.55 -6.25Q216.55 -8.175 217.32500000000002 -9.65Q218.10000000000002 -11.125 219.46250000000003 -11.9625Q220.82500000000002 -12.8 222.57500000000002 -12.8Q224.35000000000002 -12.8 225.58750000000003 -11.9375Q226.82500000000002 -11.075000000000001 227.47500000000002 -9.5625Q228.125 -8.05 228.125 -6.075H218.025Q218.15 -3.7 219.41250000000002 -2.3875Q220.675 -1.075 222.70000000000002 -1.075Q224.15 -1.075 225.16250000000002 -1.7875Q226.175 -2.5 226.75 -3.625L228.0 -2.85Q227.525 -1.925 226.7625 -1.2125Q226.0 -0.5 224.97500000000002 -0.09999999999999998Q223.95000000000002 0.30000000000000004 222.70000000000002 0.30000000000000004ZM218.175 -7.45H226.5Q226.425 -8.65 225.925 -9.537500000000001Q225.425 -10.425 224.57500000000002 -10.925Q223.72500000000002 -11.425 222.57500000000002 -11.425Q221.45000000000002 -11.425 220.47500000000002 -10.925Q219.5 -10.425 218.8875 -9.525Q218.275 -8.625 218.175 -7.45Z M238.375 0.0V-11.125H236.0V-12.5H238.375V-14.0Q238.375 -15.925 239.25 -16.8625Q240.125 -17.8 241.9 -17.8Q242.3 -17.8 242.85000000000002 -17.65Q243.4 -17.5 244.125 -17.2L243.575 -15.925Q242.925 -16.175 242.4875 -16.3Q242.05 -16.425 241.775 -16.425Q240.825 -16.425 240.35 -15.825000000000001Q239.875 -15.225000000000001 239.875 -14.0V-12.5H243.7V-11.125H239.875V0.0Z M251.525 0.30000000000000004Q249.725 0.30000000000000004 248.33749999999998 -0.5375Q246.95 -1.375 246.1625 -2.85Q245.375 -4.325 245.375 -6.25Q245.375 -8.175 246.15 -9.65Q246.925 -11.125 248.3125 -11.9625Q249.7 -12.8 251.475 -12.8Q253.275 -12.8 254.66250000000002 -11.9625Q256.05 -11.125 256.82500000000005 -9.65Q257.6 -8.175 257.6 -6.25Q257.6 -4.325 256.82500000000005 -2.85Q256.05 -1.375 254.675 -0.5375Q253.3 0.30000000000000004 251.525 0.30000000000000004ZM251.525 -1.075Q252.875 -1.075 253.9 -1.7375000000000003Q254.925 -2.4000000000000004 255.51250000000002 -3.5625000000000004Q256.1 -4.7250000000000005 256.1 -6.25Q256.1 -7.775 255.51250000000002 -8.9375Q254.925 -10.100000000000001 253.875 -10.762500000000001Q252.825 -11.425 251.475 -11.425Q250.125 -11.425 249.0875 -10.762500000000001Q248.05 -10.100000000000001 247.4625 -8.9375Q246.875 -7.775 246.875 -6.25Q246.875 -4.7250000000000005 247.475 -3.5625000000000004Q248.075 -2.4000000000000004 249.125 -1.7375000000000003Q250.175 -1.075 251.525 -1.075Z M260.6 0.0V-12.5H262.1V-10.3Q262.82500000000005 -11.475000000000001 264.02500000000003 -12.012500000000001Q265.225 -12.55 266.52500000000003 -12.55V-11.175Q265.425 -11.175 264.4125 -10.787500000000001Q263.40000000000003 -10.4 262.75 -9.4875Q262.1 -8.575000000000001 262.1 -7.0V0.0Z M279.675 5.300000000000001Q278.55 5.300000000000001 277.6 5.050000000000001Q276.65000000000003 4.800000000000001 276.0 4.512500000000001Q275.35 4.2250000000000005 275.1 4.1000000000000005L275.65000000000003 2.85Q275.95000000000005 3.0250000000000004 276.5625 3.2875000000000005Q277.175 3.5500000000000003 277.9875 3.7375000000000003Q278.8 3.9250000000000003 279.675 3.9250000000000003Q280.975 3.9250000000000003 282.0 3.4000000000000004Q283.02500000000003 2.875 283.61250000000007 1.75Q284.20000000000005 0.625 284.20000000000005 -1.1500000000000001V-2.5250000000000004Q283.50000000000006 -1.35 282.36250000000007 -0.675Q281.225 0.0 279.8 0.0Q278.15000000000003 0.0 276.875 -0.8250000000000001Q275.6 -1.6500000000000001 274.875 -3.1125000000000003Q274.15000000000003 -4.575 274.15000000000003 -6.45Q274.15000000000003 -8.325000000000001 274.875 -9.75Q275.6 -11.175 276.875 -11.9875Q278.15000000000003 -12.8 279.8 -12.8Q281.225 -12.8 282.36250000000007 -12.15Q283.50000000000006 -11.5 284.20000000000005 -10.325000000000001V-12.5H285.70000000000005V-1.1500000000000001Q285.70000000000005 1.0250000000000001 284.88750000000005 2.4625000000000004Q284.07500000000005 3.9000000000000004 282.70000000000005 4.6000000000000005Q281.32500000000005 5.300000000000001 279.675 5.300000000000001ZM280.1 -1.3250000000000002Q281.3 -1.3250000000000002 282.225 -1.9875000000000003Q283.15000000000003 -2.6500000000000004 283.67500000000007 -3.8000000000000003Q284.20000000000005 -4.95 284.20000000000005 -6.45Q284.20000000000005 -7.925000000000001 283.67500000000007 -9.0625Q283.15000000000003 -10.200000000000001 282.225 -10.850000000000001Q281.3 -11.5 280.07500000000005 -11.5Q278.77500000000003 -11.5 277.77500000000003 -10.850000000000001Q276.77500000000003 -10.200000000000001 276.21250000000003 -9.0625Q275.65000000000003 -7.925000000000001 275.65000000000003 -6.45Q275.65000000000003 -4.95 276.225 -3.8000000000000003Q276.8 -2.6500000000000004 277.8 -1.9875000000000003Q278.8 -1.3250000000000002 280.1 -1.3250000000000002Z M294.85 0.30000000000000004Q293.05000000000007 0.30000000000000004 291.6625 -0.5375Q290.27500000000003 -1.375 289.48750000000007 -2.85Q288.70000000000005 -4.325 288.70000000000005 -6.25Q288.70000000000005 -8.175 289.475 -9.65Q290.25000000000006 -11.125 291.63750000000005 -11.9625Q293.02500000000003 -12.8 294.80000000000007 -12.8Q296.6 -12.8 297.98750000000007 -11.9625Q299.37500000000006 -11.125 300.1500000000001 -9.65Q300.92500000000007 -8.175 300.92500000000007 -6.25Q300.92500000000007 -4.325 300.1500000000001 -2.85Q299.37500000000006 -1.375 298.00000000000006 -0.5375Q296.62500000000006 0.30000000000000004 294.85 0.30000000000000004ZM294.85 -1.075Q296.20000000000005 -1.075 297.225 -1.7375000000000003Q298.25000000000006 -2.4000000000000004 298.8375000000001 -3.5625000000000004Q299.42500000000007 -4.7250000000000005 299.42500000000007 -6.25Q299.42500000000007 -7.775 298.8375000000001 -8.9375Q298.25000000000006 -10.100000000000001 297.20000000000005 -10.762500000000001Q296.15000000000003 -11.425 294.80000000000007 -11.425Q293.45000000000005 -11.425 292.4125 -10.762500000000001Q291.37500000000006 -10.100000000000001 290.7875 -8.9375Q290.20000000000005 -7.775 290.20000000000005 -6.25Q290.20000000000005 -4.7250000000000005 290.80000000000007 -3.5625000000000004Q291.40000000000003 -2.4000000000000004 292.45000000000005 -1.7375000000000003Q293.50000000000006 -1.075 294.85 -1.075Z M307.57500000000005 0.0 302.30000000000007 -12.5H303.8500000000001L308.37500000000006 -1.75L312.87500000000006 -12.5H314.45000000000005L309.17500000000007 0.0Z M321.975 0.30000000000000004Q320.17500000000007 0.30000000000000004 318.7875 -0.5375Q317.40000000000003 -1.375 316.61250000000007 -2.85Q315.82500000000005 -4.325 315.82500000000005 -6.25Q315.82500000000005 -8.175 316.6 -9.65Q317.37500000000006 -11.125 318.73750000000007 -11.9625Q320.1 -12.8 321.85 -12.8Q323.62500000000006 -12.8 324.86250000000007 -11.9375Q326.1 -11.075000000000001 326.75 -9.5625Q327.40000000000003 -8.05 327.40000000000003 -6.075H317.30000000000007Q317.42500000000007 -3.7 318.68750000000006 -2.3875Q319.95000000000005 -1.075 321.975 -1.075Q323.42500000000007 -1.075 324.43750000000006 -1.7875Q325.45000000000005 -2.5 326.02500000000003 -3.625L327.27500000000003 -2.85Q326.80000000000007 -1.925 326.0375 -1.2125Q325.27500000000003 -0.5 324.25 -0.09999999999999998Q323.225 0.30000000000000004 321.975 0.30000000000000004ZM317.45000000000005 -7.45H325.77500000000003Q325.70000000000005 -8.65 325.20000000000005 -9.537500000000001Q324.70000000000005 -10.425 323.85 -10.925Q323.00000000000006 -11.425 321.85 -11.425Q320.725 -11.425 319.75 -10.925Q318.77500000000003 -10.425 318.1625 -9.525Q317.55000000000007 -8.625 317.45000000000005 -7.45Z M330.15000000000003 0.0V-12.5H331.65000000000003V-10.3Q332.37500000000006 -11.475000000000001 333.57500000000005 -12.012500000000001Q334.77500000000003 -12.55 336.07500000000005 -12.55V-11.175Q334.975 -11.175 333.96250000000003 -10.787500000000001Q332.95000000000005 -10.4 332.30000000000007 -9.4875Q331.65000000000003 -8.575000000000001 331.65000000000003 -7.0V0.0Z M338.20000000000005 0.0V-12.5H339.6L339.67500000000007 -10.55Q340.30000000000007 -11.65 341.32500000000005 -12.225000000000001Q342.35 -12.8 343.75000000000006 -12.8Q345.20000000000005 -12.8 346.31250000000006 -12.2125Q347.42500000000007 -11.625 348.06250000000006 -10.350000000000001Q348.70000000000005 -9.075000000000001 348.67500000000007 -6.9750000000000005V0.0H347.17500000000007V-6.4Q347.17500000000007 -8.475 346.68750000000006 -9.55Q346.20000000000005 -10.625 345.36250000000007 -11.0125Q344.52500000000003 -11.4 343.475 -11.4Q341.70000000000005 -11.4 340.70000000000005 -10.0875Q339.70000000000005 -8.775 339.70000000000005 -6.425000000000001V0.0Z M352.05000000000007 0.0V-12.5H353.45000000000005L353.5250000000001 -10.700000000000001Q354.1000000000001 -11.725000000000001 355.01250000000005 -12.262500000000001Q355.92500000000007 -12.8 357.1500000000001 -12.8Q358.62500000000006 -12.8 359.70000000000005 -12.0875Q360.7750000000001 -11.375 361.25000000000006 -9.9Q361.7750000000001 -11.3 362.7875000000001 -12.05Q363.80000000000007 -12.8 365.25000000000006 -12.8Q367.30000000000007 -12.8 368.5375000000001 -11.4Q369.7750000000001 -10.0 369.75000000000006 -7.15V0.0H368.25000000000006V-6.4Q368.25000000000006 -8.475 367.81250000000006 -9.55Q367.37500000000006 -10.625 366.6500000000001 -11.0125Q365.92500000000007 -11.4 365.00000000000006 -11.4Q363.42500000000007 -11.4 362.5375000000001 -10.0875Q361.6500000000001 -8.775 361.6500000000001 -6.425000000000001V0.0H360.1500000000001V-6.4Q360.1500000000001 -8.475 359.7125000000001 -9.55Q359.2750000000001 -10.625 358.55000000000007 -11.0125Q357.82500000000005 -11.4 356.9000000000001 -11.4Q355.32500000000005 -11.4 354.43750000000006 -10.0875Q353.55000000000007 -8.775 353.55000000000007 -6.425000000000001V0.0Z M378.52500000000003 0.30000000000000004Q376.7250000000001 0.30000000000000004 375.3375000000001 -0.5375Q373.95000000000005 -1.375 373.1625 -2.85Q372.37500000000006 -4.325 372.37500000000006 -6.25Q372.37500000000006 -8.175 373.1500000000001 -9.65Q373.92500000000007 -11.125 375.2875 -11.9625Q376.65000000000003 -12.8 378.40000000000003 -12.8Q380.17500000000007 -12.8 381.4125 -11.9375Q382.65000000000003 -11.075000000000001 383.30000000000007 -9.5625Q383.95000000000005 -8.05 383.95000000000005 -6.075H373.8500000000001Q373.9750000000001 -3.7 375.23750000000007 -2.3875Q376.50000000000006 -1.075 378.52500000000003 -1.075Q379.9750000000001 -1.075 380.98750000000007 -1.7875Q382.00000000000006 -2.5 382.57500000000005 -3.625L383.82500000000005 -2.85Q383.3500000000001 -1.925 382.5875000000001 -1.2125Q381.82500000000005 -0.5 380.80000000000007 -0.09999999999999998Q379.77500000000003 0.30000000000000004 378.52500000000003 0.30000000000000004ZM374.00000000000006 -7.45H382.32500000000005Q382.25000000000006 -8.65 381.75000000000006 -9.537500000000001Q381.25000000000006 -10.425 380.4000000000001 -10.925Q379.55000000000007 -11.425 378.40000000000003 -11.425Q377.27500000000003 -11.425 376.30000000000007 -10.925Q375.32500000000005 -10.425 374.7125000000001 -9.525Q374.1000000000001 -8.625 374.00000000000006 -7.45Z M386.70000000000005 0.0V-12.5H388.1L388.17500000000007 -10.55Q388.80000000000007 -11.65 389.82500000000005 -12.225000000000001Q390.85 -12.8 392.25000000000006 -12.8Q393.70000000000005 -12.8 394.81250000000006 -12.2125Q395.92500000000007 -11.625 396.56250000000006 -10.350000000000001Q397.20000000000005 -9.075000000000001 397.17500000000007 -6.9750000000000005V0.0H395.67500000000007V-6.4Q395.67500000000007 -8.475 395.18750000000006 -9.55Q394.70000000000005 -10.625 393.86250000000007 -11.0125Q393.02500000000003 -11.4 391.975 -11.4Q390.20000000000005 -11.4 389.20000000000005 -10.0875Q388.20000000000005 -8.775 388.20000000000005 -6.425000000000001V0.0Z M405.07500000000005 0.30000000000000004Q403.3500000000001 0.30000000000000004 402.3750000000001 -0.6125Q401.4000000000001 -1.5250000000000001 401.4000000000001 -3.2V-11.125H399.17500000000007V-12.5H401.4000000000001V-16.400000000000002H402.9000000000001V-12.5H406.87500000000006V-11.125H402.9000000000001V-3.2Q402.9000000000001 -2.2 403.4750000000001 -1.6375000000000002Q404.05000000000007 -1.075 405.07500000000005 -1.075Q405.37500000000006 -1.075 405.6625 -1.1625Q405.95000000000005 -1.25 406.50000000000006 -1.625L407.12500000000006 -0.325Q406.45000000000005 0.07500000000000001 406.00000000000006 0.18750000000000003Q405.55000000000007 0.30000000000000004 405.07500000000005 0.30000000000000004Z M421.40000000000003 0.30000000000000004Q419.6000000000001 0.30000000000000004 418.2125000000001 -0.5375Q416.82500000000005 -1.375 416.0375 -2.85Q415.25000000000006 -4.325 415.25000000000006 -6.25Q415.25000000000006 -8.175 416.0250000000001 -9.65Q416.80000000000007 -11.125 418.18750000000006 -11.9625Q419.57500000000005 -12.8 421.3500000000001 -12.8Q423.12500000000006 -12.8 424.50000000000006 -12.012500000000001Q425.87500000000006 -11.225000000000001 426.62500000000006 -9.825000000000001L425.32500000000005 -9.125Q424.75000000000006 -10.200000000000001 423.7125000000001 -10.8125Q422.67500000000007 -11.425 421.3500000000001 -11.425Q420.00000000000006 -11.425 418.9625000000001 -10.762500000000001Q417.92500000000007 -10.100000000000001 417.3375000000001 -8.9375Q416.75000000000006 -7.775 416.75000000000006 -6.25Q416.75000000000006 -4.7250000000000005 417.35 -3.5625000000000004Q417.95000000000005 -2.4000000000000004 419.00000000000006 -1.7375000000000003Q420.05000000000007 -1.075 421.40000000000003 -1.075Q422.75000000000006 -1.075 423.80000000000007 -1.7625000000000002Q424.8500000000001 -2.45 425.40000000000003 -3.6750000000000003L426.7250000000001 -2.975Q425.9750000000001 -1.4500000000000002 424.5875000000001 -0.5750000000000001Q423.20000000000005 0.30000000000000004 421.40000000000003 0.30000000000000004Z M434.87500000000006 0.30000000000000004Q433.0750000000001 0.30000000000000004 431.6875000000001 -0.5375Q430.30000000000007 -1.375 429.51250000000005 -2.85Q428.7250000000001 -4.325 428.7250000000001 -6.25Q428.7250000000001 -8.175 429.5000000000001 -9.65Q430.2750000000001 -11.125 431.6625000000001 -11.9625Q433.05000000000007 -12.8 434.8250000000001 -12.8Q436.62500000000006 -12.8 438.01250000000005 -11.9625Q439.4000000000001 -11.125 440.17500000000007 -9.65Q440.9500000000001 -8.175 440.9500000000001 -6.25Q440.9500000000001 -4.325 440.17500000000007 -2.85Q439.4000000000001 -1.375 438.0250000000001 -0.5375Q436.6500000000001 0.30000000000000004 434.87500000000006 0.30000000000000004ZM434.87500000000006 -1.075Q436.2250000000001 -1.075 437.2500000000001 -1.7375000000000003Q438.2750000000001 -2.4000000000000004 438.86250000000007 -3.5625000000000004Q439.4500000000001 -4.7250000000000005 439.4500000000001 -6.25Q439.4500000000001 -7.775 438.86250000000007 -8.9375Q438.2750000000001 -10.100000000000001 437.2250000000001 -10.762500000000001Q436.17500000000007 -11.425 434.8250000000001 -11.425Q433.4750000000001 -11.425 432.4375000000001 -10.762500000000001Q431.4000000000001 -10.100000000000001 430.8125000000001 -8.9375Q430.2250000000001 -7.775 430.2250000000001 -6.25Q430.2250000000001 -4.7250000000000005 430.82500000000005 -3.5625000000000004Q431.42500000000007 -2.4000000000000004 432.4750000000001 -1.7375000000000003Q433.5250000000001 -1.075 434.87500000000006 -1.075Z M443.9500000000001 0.0V-12.5H445.3500000000001L445.4250000000001 -10.55Q446.0500000000001 -11.65 447.0750000000001 -12.225000000000001Q448.1000000000001 -12.8 449.5000000000001 -12.8Q450.9500000000001 -12.8 452.0625000000001 -12.2125Q453.1750000000001 -11.625 453.8125000000001 -10.350000000000001Q454.4500000000001 -9.075000000000001 454.4250000000001 -6.9750000000000005V0.0H452.9250000000001V-6.4Q452.9250000000001 -8.475 452.4375000000001 -9.55Q451.9500000000001 -10.625 451.11250000000007 -11.0125Q450.2750000000001 -11.4 449.2250000000001 -11.4Q447.4500000000001 -11.4 446.4500000000001 -10.0875Q445.4500000000001 -8.775 445.4500000000001 -6.425000000000001V0.0Z M462.3250000000001 0.30000000000000004Q460.60000000000014 0.30000000000000004 459.6250000000001 -0.6125Q458.65000000000015 -1.5250000000000001 458.65000000000015 -3.2V-11.125H456.4250000000001V-12.5H458.65000000000015V-16.400000000000002H460.15000000000015V-12.5H464.1250000000001V-11.125H460.15000000000015V-3.2Q460.15000000000015 -2.2 460.72500000000014 -1.6375000000000002Q461.3000000000001 -1.075 462.3250000000001 -1.075Q462.6250000000001 -1.075 462.91250000000014 -1.1625Q463.2000000000001 -1.25 463.7500000000001 -1.625L464.3750000000001 -0.325Q463.7000000000001 0.07500000000000001 463.2500000000001 0.18750000000000003Q462.8000000000001 0.30000000000000004 462.3250000000001 0.30000000000000004Z M467.0000000000001 0.0V-12.5H468.5000000000001V-10.3Q469.22500000000014 -11.475000000000001 470.4250000000001 -12.012500000000001Q471.6250000000001 -12.55 472.9250000000001 -12.55V-11.175Q471.8250000000001 -11.175 470.8125000000001 -10.787500000000001Q469.8000000000001 -10.4 469.1500000000001 -9.4875Q468.5000000000001 -8.575000000000001 468.5000000000001 -7.0V0.0Z M478.97500000000014 0.30000000000000004Q476.77500000000015 0.30000000000000004 475.53750000000014 -0.7125Q474.3000000000001 -1.725 474.3000000000001 -3.5250000000000004Q474.3000000000001 -5.375 475.53750000000014 -6.4Q476.77500000000015 -7.425000000000001 478.97500000000014 -7.425000000000001H482.6750000000001Q482.5750000000001 -9.425 481.7500000000001 -10.425Q480.9250000000001 -11.425 479.22500000000014 -11.425Q478.10000000000014 -11.425 477.3375000000001 -10.975000000000001Q476.5750000000001 -10.525 476.0750000000001 -9.575000000000001L474.72500000000014 -10.175Q475.2500000000001 -11.075000000000001 475.91250000000014 -11.650000000000002Q476.5750000000001 -12.225000000000001 477.4000000000001 -12.512500000000001Q478.22500000000014 -12.8 479.22500000000014 -12.8Q480.90000000000015 -12.8 482.0000000000001 -12.125Q483.10000000000014 -11.450000000000001 483.6500000000001 -10.100000000000001Q484.2000000000001 -8.75 484.2000000000001 -6.7V0.0H482.8250000000001L482.7000000000001 -1.75Q482.1250000000001 -0.775 481.1750000000001 -0.2375Q480.22500000000014 0.30000000000000004 478.97500000000014 0.30000000000000004ZM478.8750000000001 -1.075Q480.0750000000001 -1.075 480.9375000000001 -1.5625Q481.8000000000001 -2.0500000000000003 482.2500000000001 -3.0Q482.7000000000001 -3.95 482.7000000000001 -5.3500000000000005V-6.050000000000001H479.1750000000001Q477.3750000000001 -6.050000000000001 476.5875000000001 -5.387500000000001Q475.8000000000001 -4.7250000000000005 475.8000000000001 -3.5250000000000004Q475.8000000000001 -2.375 476.6125000000001 -1.725Q477.4250000000001 -1.075 478.8750000000001 -1.075Z M492.9750000000001 0.30000000000000004Q491.1750000000001 0.30000000000000004 489.78750000000014 -0.5375Q488.4000000000001 -1.375 487.61250000000007 -2.85Q486.8250000000001 -4.325 486.8250000000001 -6.25Q486.8250000000001 -8.175 487.60000000000014 -9.65Q488.3750000000001 -11.125 489.7625000000001 -11.9625Q491.1500000000001 -12.8 492.9250000000001 -12.8Q494.7000000000001 -12.8 496.0750000000001 -12.012500000000001Q497.4500000000001 -11.225000000000001 498.2000000000001 -9.825000000000001L496.9000000000001 -9.125Q496.3250000000001 -10.200000000000001 495.28750000000014 -10.8125Q494.2500000000001 -11.425 492.9250000000001 -11.425Q491.5750000000001 -11.425 490.53750000000014 -10.762500000000001Q489.5000000000001 -10.100000000000001 488.91250000000014 -8.9375Q488.3250000000001 -7.775 488.3250000000001 -6.25Q488.3250000000001 -4.7250000000000005 488.92500000000007 -3.5625000000000004Q489.5250000000001 -2.4000000000000004 490.5750000000001 -1.7375000000000003Q491.6250000000001 -1.075 492.9750000000001 -1.075Q494.3250000000001 -1.075 495.3750000000001 -1.7625000000000002Q496.4250000000001 -2.45 496.9750000000001 -3.6750000000000003L498.3000000000001 -2.975Q497.5500000000001 -1.4500000000000002 496.16250000000014 -0.5750000000000001Q494.7750000000001 0.30000000000000004 492.9750000000001 0.30000000000000004Z M505.5750000000001 0.30000000000000004Q503.85000000000014 0.30000000000000004 502.8750000000001 -0.6125Q501.90000000000015 -1.5250000000000001 501.90000000000015 -3.2V-11.125H499.6750000000001V-12.5H501.90000000000015V-16.400000000000002H503.40000000000015V-12.5H507.3750000000001V-11.125H503.40000000000015V-3.2Q503.40000000000015 -2.2 503.97500000000014 -1.6375000000000002Q504.5500000000001 -1.075 505.5750000000001 -1.075Q505.8750000000001 -1.075 506.16250000000014 -1.1625Q506.4500000000001 -1.25 507.0000000000001 -1.625L507.6250000000001 -0.325Q506.9500000000001 0.07500000000000001 506.5000000000001 0.18750000000000003Q506.0500000000001 0.30000000000000004 505.5750000000001 0.30000000000000004Z M515.6500000000001 0.30000000000000004Q513.8500000000001 0.30000000000000004 512.4625000000001 -0.5375Q511.0750000000001 -1.375 510.28750000000014 -2.85Q509.5000000000001 -4.325 509.5000000000001 -6.25Q509.5000000000001 -8.175 510.2750000000001 -9.65Q511.0500000000001 -11.125 512.4375000000001 -11.9625Q513.8250000000002 -12.8 515.6000000000001 -12.8Q517.4000000000001 -12.8 518.7875000000001 -11.9625Q520.1750000000001 -11.125 520.95 -9.65Q521.7250000000001 -8.175 521.7250000000001 -6.25Q521.7250000000001 -4.325 520.95 -2.85Q520.1750000000001 -1.375 518.8000000000001 -0.5375Q517.4250000000001 0.30000000000000004 515.6500000000001 0.30000000000000004ZM515.6500000000001 -1.075Q517.0000000000001 -1.075 518.0250000000001 -1.7375000000000003Q519.0500000000001 -2.4000000000000004 519.6375 -3.5625000000000004Q520.2250000000001 -4.7250000000000005 520.2250000000001 -6.25Q520.2250000000001 -7.775 519.6375 -8.9375Q519.0500000000001 -10.100000000000001 518.0000000000001 -10.762500000000001Q516.9500000000002 -11.425 515.6000000000001 -11.425Q514.2500000000001 -11.425 513.2125000000001 -10.762500000000001Q512.1750000000001 -10.100000000000001 511.5875000000001 -8.9375Q511.0000000000001 -7.775 511.0000000000001 -6.25Q511.0000000000001 -4.7250000000000005 511.60000000000014 -3.5625000000000004Q512.2000000000002 -2.4000000000000004 513.2500000000001 -1.7375000000000003Q514.3000000000001 -1.075 515.6500000000001 -1.075Z M524.7250000000001 0.0V-12.5H526.2250000000001V-10.3Q526.9500000000002 -11.475000000000001 528.1500000000001 -12.012500000000001Q529.3500000000001 -12.55 530.6500000000001 -12.55V-11.175Q529.5500000000002 -11.175 528.5375000000001 -10.787500000000001Q527.5250000000001 -10.4 526.8750000000001 -9.4875Q526.2250000000001 -8.575000000000001 526.2250000000001 -7.0V0.0Z M537.0250000000001 0.30000000000000004Q535.6000000000001 0.30000000000000004 534.575 -0.125Q533.5500000000001 -0.55 532.9125000000001 -1.225Q532.2750000000001 -1.9000000000000001 532.0250000000001 -2.625L533.3750000000001 -3.125Q533.8000000000001 -2.2 534.7375000000001 -1.6375000000000002Q535.6750000000001 -1.075 536.7500000000001 -1.075Q538.075 -1.075 539.0 -1.625Q539.9250000000001 -2.1750000000000003 539.9250000000001 -3.1750000000000003Q539.9250000000001 -4.075 539.25 -4.65Q538.575 -5.2250000000000005 537.2500000000001 -5.575L536.0250000000001 -5.9Q534.3500000000001 -6.3500000000000005 533.4375000000001 -7.2125Q532.5250000000001 -8.075000000000001 532.5250000000001 -9.15Q532.5250000000001 -10.875 533.6625000000001 -11.8375Q534.8000000000001 -12.8 537.1000000000001 -12.8Q538.1750000000001 -12.8 539.0375000000001 -12.4875Q539.9000000000001 -12.175 540.5125 -11.600000000000001Q541.1250000000001 -11.025 541.4250000000001 -10.225000000000001L540.075 -9.65Q539.6750000000001 -10.625 538.9000000000001 -11.025Q538.1250000000001 -11.425 536.8750000000001 -11.425Q535.5500000000001 -11.425 534.7875000000001 -10.8625Q534.0250000000001 -10.3 534.0250000000001 -9.275Q534.0250000000001 -8.725 534.6375 -8.1875Q535.2500000000001 -7.65 536.4750000000001 -7.325L537.5500000000001 -7.050000000000001Q538.7750000000001 -6.75 539.6375 -6.1875Q540.5000000000001 -5.625 540.9625000000001 -4.9Q541.4250000000001 -4.175 541.4250000000001 -3.3000000000000003Q541.4250000000001 -2.1750000000000003 540.8500000000001 -1.3625000000000003Q540.2750000000001 -0.55 539.2875000000001 -0.125Q538.3000000000001 0.30000000000000004 537.0250000000001 0.30000000000000004Z M550.3000000000001 -6.7250000000000005V-8.15H557.8000000000001V-6.7250000000000005Z M568.6750000000001 0.0V-11.125H566.3000000000001V-12.5H568.6750000000001V-14.0Q568.6750000000001 -15.925 569.5500000000001 -16.8625Q570.4250000000001 -17.8 572.2 -17.8Q572.6 -17.8 573.1500000000001 -17.65Q573.7 -17.5 574.4250000000001 -17.2L573.8750000000001 -15.925Q573.225 -16.175 572.7875 -16.3Q572.35 -16.425 572.075 -16.425Q571.1250000000001 -16.425 570.6500000000001 -15.825000000000001Q570.1750000000001 -15.225000000000001 570.1750000000001 -14.0V-12.5H574.0000000000001V-11.125H570.1750000000001V0.0Z M576.4250000000001 0.0V-12.5H577.9250000000001V-10.3Q578.6500000000001 -11.475000000000001 579.8500000000001 -12.012500000000001Q581.0500000000001 -12.55 582.35 -12.55V-11.175Q581.2500000000001 -11.175 580.2375000000001 -10.787500000000001Q579.225 -10.4 578.575 -9.4875Q577.9250000000001 -8.575000000000001 577.9250000000001 -7.0V0.0Z M589.875 0.30000000000000004Q588.075 0.30000000000000004 586.6875 -0.5375Q585.3000000000001 -1.375 584.5125 -2.85Q583.725 -4.325 583.725 -6.25Q583.725 -8.175 584.5 -9.65Q585.275 -11.125 586.6625 -11.9625Q588.0500000000001 -12.8 589.825 -12.8Q591.625 -12.8 593.0125 -11.9625Q594.4 -11.125 595.175 -9.65Q595.95 -8.175 595.95 -6.25Q595.95 -4.325 595.175 -2.85Q594.4 -1.375 593.025 -0.5375Q591.65 0.30000000000000004 589.875 0.30000000000000004ZM589.875 -1.075Q591.225 -1.075 592.25 -1.7375000000000003Q593.275 -2.4000000000000004 593.8625 -3.5625000000000004Q594.45 -4.7250000000000005 594.45 -6.25Q594.45 -7.775 593.8625 -8.9375Q593.275 -10.100000000000001 592.225 -10.762500000000001Q591.1750000000001 -11.425 589.825 -11.425Q588.475 -11.425 587.4375 -10.762500000000001Q586.4 -10.100000000000001 585.8125 -8.9375Q585.225 -7.775 585.225 -6.25Q585.225 -4.7250000000000005 585.825 -3.5625000000000004Q586.4250000000001 -2.4000000000000004 587.475 -1.7375000000000003Q588.525 -1.075 589.875 -1.075Z M598.95 0.0V-12.5H600.35L600.4250000000001 -10.700000000000001Q601.0 -11.725000000000001 601.9125 -12.262500000000001Q602.825 -12.8 604.0500000000001 -12.8Q605.5250000000001 -12.8 606.6000000000001 -12.0875Q607.6750000000001 -11.375 608.1500000000001 -9.9Q608.6750000000001 -11.3 609.6875 -12.05Q610.7 -12.8 612.1500000000001 -12.8Q614.2 -12.8 615.4375 -11.4Q616.6750000000001 -10.0 616.6500000000001 -7.15V0.0H615.1500000000001V-6.4Q615.1500000000001 -8.475 614.7125000000001 -9.55Q614.2750000000001 -10.625 613.5500000000001 -11.0125Q612.825 -11.4 611.9000000000001 -11.4Q610.325 -11.4 609.4375 -10.0875Q608.5500000000001 -8.775 608.5500000000001 -6.425000000000001V0.0H607.0500000000001V-6.4Q607.0500000000001 -8.475 606.6125000000001 -9.55Q606.1750000000001 -10.625 605.45 -11.0125Q604.725 -11.4 603.8000000000001 -11.4Q602.225 -11.4 601.3375000000001 -10.0875Q600.45 -8.775 600.45 -6.425000000000001V0.0Z M626.9000000000001 0.0V-17.5H632.2750000000001Q633.9250000000001 -17.5 635.2 -16.8375Q636.4750000000001 -16.175 637.1875000000001 -15.012500000000001Q637.9000000000001 -13.850000000000001 637.9000000000001 -12.325000000000001Q637.9000000000001 -10.600000000000001 636.8750000000001 -9.325000000000001Q635.8500000000001 -8.05 634.2250000000001 -7.5L638.6000000000001 0.0H636.8500000000001L632.6500000000001 -7.175000000000001Q632.4750000000001 -7.15 632.3000000000002 -7.15Q632.1250000000001 -7.15 631.95 -7.15H628.5000000000001V0.0ZM628.5000000000001 -8.625H632.7Q633.7 -8.625 634.5125 -9.100000000000001Q635.325 -9.575000000000001 635.825 -10.412500000000001Q636.325 -11.25 636.325 -12.325000000000001Q636.325 -13.975000000000001 635.1875 -15.012500000000001Q634.0500000000001 -16.05 632.2750000000001 -16.05H628.5000000000001Z M642.3500000000001 0.0V-17.5H652.4250000000002V-16.05H643.9500000000002V-9.375H651.5750000000002V-7.925000000000001H643.9500000000002V0.0Z M655.8250000000002 0.0V-17.5H661.2000000000002Q662.8500000000001 -17.5 664.1250000000002 -16.8125Q665.4000000000002 -16.125 666.1125000000002 -14.9Q666.8250000000002 -13.675 666.8250000000002 -12.075000000000001Q666.8250000000002 -10.5 666.1875000000002 -9.275Q665.5500000000002 -8.05 664.4375000000002 -7.3500000000000005Q663.3250000000002 -6.65 661.8750000000001 -6.65H657.4250000000002V0.0ZM657.4250000000002 -8.125H661.8750000000001Q663.3500000000001 -8.125 664.3000000000002 -9.225000000000001Q665.2500000000001 -10.325000000000001 665.2500000000001 -12.075000000000001Q665.2500000000001 -13.850000000000001 664.1125000000002 -14.950000000000001Q662.9750000000001 -16.05 661.2000000000002 -16.05H657.4250000000002Z M680.2250000000001 0.30000000000000004Q678.5000000000001 0.30000000000000004 677.5250000000001 -0.6125Q676.5500000000002 -1.5250000000000001 676.5500000000002 -3.2V-11.125H674.3250000000002V-12.5H676.5500000000002V-16.400000000000002H678.0500000000002V-12.5H682.0250000000002V-11.125H678.0500000000002V-3.2Q678.0500000000002 -2.2 678.6250000000002 -1.6375000000000002Q679.2000000000002 -1.075 680.2250000000001 -1.075Q680.5250000000002 -1.075 680.8125000000002 -1.1625Q681.1000000000001 -1.25 681.6500000000002 -1.625L682.2750000000002 -0.325Q681.6000000000001 0.07500000000000001 681.1500000000001 0.18750000000000003Q680.7000000000002 0.30000000000000004 680.2250000000001 0.30000000000000004Z M690.3000000000002 0.30000000000000004Q688.5000000000002 0.30000000000000004 687.1125000000002 -0.5375Q685.7250000000003 -1.375 684.9375000000002 -2.85Q684.1500000000002 -4.325 684.1500000000002 -6.25Q684.1500000000002 -8.175 684.9250000000002 -9.65Q685.7000000000002 -11.125 687.0875000000002 -11.9625Q688.4750000000003 -12.8 690.2500000000002 -12.8Q692.0500000000002 -12.8 693.4375000000002 -11.9625Q694.8250000000002 -11.125 695.6000000000001 -9.65Q696.3750000000002 -8.175 696.3750000000002 -6.25Q696.3750000000002 -4.325 695.6000000000001 -2.85Q694.8250000000002 -1.375 693.4500000000002 -0.5375Q692.0750000000002 0.30000000000000004 690.3000000000002 0.30000000000000004ZM690.3000000000002 -1.075Q691.6500000000002 -1.075 692.6750000000002 -1.7375000000000003Q693.7000000000002 -2.4000000000000004 694.2875000000001 -3.5625000000000004Q694.8750000000002 -4.7250000000000005 694.8750000000002 -6.25Q694.8750000000002 -7.775 694.2875000000001 -8.9375Q693.7000000000002 -10.100000000000001 692.6500000000002 -10.762500000000001Q691.6000000000003 -11.425 690.2500000000002 -11.425Q688.9000000000002 -11.425 687.8625000000002 -10.762500000000001Q686.8250000000002 -10.100000000000001 686.2375000000002 -8.9375Q685.6500000000002 -7.775 685.6500000000002 -6.25Q685.6500000000002 -4.7250000000000005 686.2500000000002 -3.5625000000000004Q686.8500000000003 -2.4000000000000004 687.9000000000002 -1.7375000000000003Q688.9500000000002 -1.075 690.3000000000002 -1.075Z M705.6250000000002 0.0V-12.5H707.1250000000002V-10.3Q707.8500000000003 -11.475000000000001 709.0500000000002 -12.012500000000001Q710.2500000000002 -12.55 711.5500000000002 -12.55V-11.175Q710.4500000000003 -11.175 709.4375000000002 -10.787500000000001Q708.4250000000002 -10.4 707.7750000000002 -9.4875Q707.1250000000002 -8.575000000000001 707.1250000000002 -7.0V0.0Z M719.0750000000002 0.30000000000000004Q717.2750000000002 0.30000000000000004 715.8875000000003 -0.5375Q714.5000000000002 -1.375 713.7125000000002 -2.85Q712.9250000000002 -4.325 712.9250000000002 -6.25Q712.9250000000002 -8.175 713.7000000000002 -9.65Q714.4750000000001 -11.125 715.8375000000001 -11.9625Q717.2000000000002 -12.8 718.9500000000002 -12.8Q720.7250000000001 -12.8 721.9625000000001 -11.9375Q723.2000000000002 -11.075000000000001 723.8500000000001 -9.5625Q724.5000000000002 -8.05 724.5000000000002 -6.075H714.4000000000002Q714.5250000000002 -3.7 715.7875000000001 -2.3875Q717.0500000000002 -1.075 719.0750000000002 -1.075Q720.5250000000002 -1.075 721.5375000000001 -1.7875Q722.5500000000002 -2.5 723.1250000000002 -3.625L724.3750000000002 -2.85Q723.9000000000002 -1.925 723.1375000000003 -1.2125Q722.3750000000002 -0.5 721.3500000000001 -0.09999999999999998Q720.3250000000002 0.30000000000000004 719.0750000000002 0.30000000000000004ZM714.5500000000002 -7.45H722.8750000000002Q722.8000000000002 -8.65 722.3000000000002 -9.537500000000001Q721.8000000000002 -10.425 720.9500000000002 -10.925Q720.1000000000001 -11.425 718.9500000000002 -11.425Q717.8250000000002 -11.425 716.8500000000001 -10.925Q715.8750000000002 -10.425 715.2625000000003 -9.525Q714.6500000000002 -8.625 714.5500000000002 -7.45Z M731.1750000000002 0.30000000000000004Q728.9750000000003 0.30000000000000004 727.7375000000002 -0.7125Q726.5000000000002 -1.725 726.5000000000002 -3.5250000000000004Q726.5000000000002 -5.375 727.7375000000002 -6.4Q728.9750000000003 -7.425000000000001 731.1750000000002 -7.425000000000001H734.8750000000002Q734.7750000000002 -9.425 733.9500000000003 -10.425Q733.1250000000002 -11.425 731.4250000000002 -11.425Q730.3000000000002 -11.425 729.5375000000001 -10.975000000000001Q728.7750000000002 -10.525 728.2750000000002 -9.575000000000001L726.9250000000002 -10.175Q727.4500000000003 -11.075000000000001 728.1125000000002 -11.650000000000002Q728.7750000000002 -12.225000000000001 729.6000000000001 -12.512500000000001Q730.4250000000002 -12.8 731.4250000000002 -12.8Q733.1000000000003 -12.8 734.2000000000003 -12.125Q735.3000000000002 -11.450000000000001 735.8500000000001 -10.100000000000001Q736.4000000000002 -8.75 736.4000000000002 -6.7V0.0H735.0250000000002L734.9000000000002 -1.75Q734.3250000000003 -0.775 733.3750000000002 -0.2375Q732.4250000000002 0.30000000000000004 731.1750000000002 0.30000000000000004ZM731.0750000000003 -1.075Q732.2750000000002 -1.075 733.1375000000003 -1.5625Q734.0000000000002 -2.0500000000000003 734.4500000000003 -3.0Q734.9000000000002 -3.95 734.9000000000002 -5.3500000000000005V-6.050000000000001H731.3750000000002Q729.5750000000003 -6.050000000000001 728.7875000000003 -5.387500000000001Q728.0000000000002 -4.7250000000000005 728.0000000000002 -3.5250000000000004Q728.0000000000002 -2.375 728.8125000000002 -1.725Q729.6250000000002 -1.075 731.0750000000003 -1.075Z M744.6750000000002 0.30000000000000004Q743.0250000000002 0.30000000000000004 741.7500000000002 -0.5375Q740.4750000000003 -1.375 739.7500000000002 -2.8625000000000003Q739.0250000000002 -4.3500000000000005 739.0250000000002 -6.25Q739.0250000000002 -8.175 739.7500000000002 -9.65Q740.4750000000003 -11.125 741.7500000000002 -11.9625Q743.0250000000002 -12.8 744.6750000000002 -12.8Q746.1000000000003 -12.8 747.2375000000002 -12.1125Q748.3750000000002 -11.425 749.0750000000002 -10.225000000000001V-17.5H750.5750000000002V0.0H749.1500000000002L749.0750000000002 -2.275Q748.3750000000002 -1.075 747.2375000000002 -0.38749999999999996Q746.1000000000003 0.30000000000000004 744.6750000000002 0.30000000000000004ZM744.9750000000003 -1.05Q746.1750000000002 -1.05 747.1000000000001 -1.7125Q748.0250000000002 -2.375 748.5500000000002 -3.5500000000000003Q749.0750000000002 -4.7250000000000005 749.0750000000002 -6.2250000000000005V-6.25Q749.0750000000002 -7.775 748.5500000000002 -8.95Q748.0250000000002 -10.125 747.1000000000001 -10.787500000000001Q746.1750000000002 -11.450000000000001 744.9500000000002 -11.450000000000001Q743.6500000000002 -11.450000000000001 742.6500000000002 -10.787500000000001Q741.6500000000002 -10.125 741.0875000000002 -8.95Q740.5250000000002 -7.775 740.5250000000002 -6.25Q740.5250000000002 -4.7250000000000005 741.1000000000001 -3.5500000000000003Q741.6750000000002 -2.375 742.6750000000002 -1.7125Q743.6750000000002 -1.05 744.9750000000003 -1.05Z M754.9250000000002 5.300000000000001Q754.5250000000002 5.300000000000001 753.9750000000001 5.15Q753.4250000000002 5.0 752.7000000000002 4.7L753.2500000000001 3.4250000000000003Q753.9000000000002 3.6750000000000003 754.3500000000001 3.8000000000000003Q754.8000000000002 3.9250000000000003 755.0500000000002 3.9250000000000003Q755.7750000000002 3.9250000000000003 756.2375000000002 3.5250000000000004Q756.7000000000002 3.125 757.0000000000001 2.4250000000000003L758.0000000000001 0.0L752.7250000000001 -12.5H754.2750000000002L758.7750000000002 -1.8L763.3000000000002 -12.5H764.8750000000001L758.7500000000001 2.0Q758.3000000000002 3.0500000000000003 757.8125000000002 3.7875000000000005Q757.3250000000002 4.525 756.6375000000002 4.9125000000000005Q755.9500000000002 5.300000000000001 754.9250000000002 5.300000000000001Z M767.5250000000001 0.35000000000000003Q767.0500000000001 0.35000000000000003 766.7125000000001 0.012500000000000011Q766.3750000000001 -0.325 766.3750000000001 -0.8Q766.3750000000001 -1.2750000000000001 766.7125000000001 -1.6125000000000003Q767.0500000000001 -1.9500000000000002 767.5250000000001 -1.9500000000000002Q768.0000000000001 -1.9500000000000002 768.3375000000001 -1.6125000000000003Q768.6750000000001 -1.2750000000000001 768.6750000000001 -0.8Q768.6750000000001 -0.325 768.3375000000001 0.012500000000000011Q768.0000000000001 0.35000000000000003 767.5250000000001 0.35000000000000003Z" fill="#F3C87E"/>
<rect x="0" y="390" width="1584" height="6" fill="#E8A23D"/>
</svg>