<svg xmlns="http://www.w3.org/2000/svg" viewBox="0 0 354.1 370.1" width="354.1" height="370.1">
<g transform="translate(87.05000000000001 6.0) scale(1.5)">
<circle cx="60" cy="11" r="7" fill="#E8A23D"/>
<path d="M25 66 A35 35 0 0 1 95 66" fill="none" stroke="#214B89" stroke-width="14" stroke-linecap="round"/>
<rect x="38" y="78" width="44" height="10" rx="5" fill="#12948C"/>
<rect x="31" y="93" width="58" height="10" rx="5" fill="#12948C"/>
<rect x="24" y="108" width="72" height="10" rx="5" fill="#12948C"/>
</g>
<g transform="translate(12 289.0) scale(1.0)"><path d="M24.5 15.8Q15.600000000000001 15.8 10.4 14.4Q5.2 13.0 3.0 10.55Q0.8 8.1 0.8 4.9Q0.8 0.5 4.300000000000001 -2.1500000000000004Q7.800000000000001 -4.800000000000001 14.5 -5.800000000000001V-6.300000000000001Q9.4 -6.300000000000001 6.5 -8.05Q3.6 -9.8 3.6 -12.9Q3.6 -15.8 6.25 -18.1Q8.9 -20.400000000000002 14.9 -20.400000000000002V-21.1Q9.5 -22.400000000000002 6.3 -26.1Q3.1 -29.8 3.1 -35.7Q3.1 -40.900000000000006 5.75 -44.7Q8.4 -48.5 13.5 -50.650000000000006Q18.6 -52.800000000000004 25.900000000000002 -52.800000000000004H52.2V-40.400000000000006L34.1 -42.7V-41.900000000000006Q42.400000000000006 -40.800000000000004 45.35000000000001 -38.150000000000006Q48.300000000000004 -35.5 48.300000000000004 -31.8Q48.300000000000004 -28.1 46.050000000000004 -25.200000000000003Q43.800000000000004 -22.3 39.1 -20.65Q34.4 -19.0 27.200000000000003 -19.0Q25.0 -19.0 22.75 -19.200000000000003Q20.5 -19.400000000000002 18.900000000000002 -19.8Q17.2 -19.1 16.25 -18.35Q15.3 -17.6 15.3 -16.8Q15.3 -16.3 15.700000000000001 -16.05Q16.1 -15.8 16.85 -15.700000000000001Q17.6 -15.600000000000001 18.6 -15.600000000000001H34.6Q36.7 -15.600000000000001 39.85 -15.350000000000001Q43.0 -15.100000000000001 46.150000000000006 -13.850000000000001Q49.300000000000004 -12.600000000000001 51.400000000000006 -9.700000000000001Q53.5 -6.800000000000001 53.5 -1.5Q53.5 4.5 50.35 8.3Q47.2 12.100000000000001 40.8 13.950000000000001Q34.4 15.8 24.5 15.8ZM24.5 1.6Q31.200000000000003 1.6 34.400000000000006 1.1500000000000001Q37.6 0.7000000000000001 38.6 -0.09999999999999998Q39.6 -0.9 39.6 -1.9000000000000001Q39.6 -3.3000000000000003 38.8 -4.1000000000000005Q38.0 -4.9 36.8 -5.25Q35.6 -5.6000000000000005 34.45 -5.65Q33.300000000000004 -5.7 32.6 -5.7H19.1Q15.9 -4.6000000000000005 14.75 -3.6500000000000004Q13.600000000000001 -2.7 13.600000000000001 -1.5Q13.600000000000001 -0.1 14.950000000000001 0.55Q16.3 1.2000000000000002 18.75 1.4000000000000001Q21.200000000000003 1.6 24.5 1.6ZM26.200000000000003 -27.8Q29.400000000000002 -27.8 31.15 -29.8Q32.9 -31.8 32.9 -35.300000000000004Q32.9 -38.800000000000004 31.1 -40.95Q29.3 -43.1 26.1 -43.1Q23.0 -43.1 21.15 -40.95Q19.3 -38.800000000000004 19.3 -35.300000000000004Q19.3 -33.0 20.1 -31.3Q20.900000000000002 -29.6 22.450000000000003 -28.700000000000003Q24.0 -27.8 26.200000000000003 -27.8Z M82.30000000000001 1.4000000000000001Q74.70000000000002 1.4000000000000001 68.80000000000001 -1.65Q62.900000000000006 -4.7 59.60000000000001 -10.85Q56.30000000000001 -17.0 56.30000000000001 -26.3Q56.30000000000001 -36.0 59.750000000000014 -42.150000000000006Q63.20000000000001 -48.300000000000004 69.15 -51.25Q75.10000000000001 -54.2 82.60000000000001 -54.2Q90.4 -54.2 96.25 -51.150000000000006Q102.10000000000001 -48.1 105.35000000000001 -41.95Q108.60000000000001 -35.800000000000004 108.60000000000001 -26.400000000000002Q108.60000000000001 -16.7 105.15 -10.55Q101.70000000000002 -4.4 95.75000000000001 -1.5Q89.80000000000001 1.4000000000000001 82.30000000000001 1.4000000000000001ZM82.70000000000002 -10.5Q85.80000000000001 -10.5 87.9 -12.25Q90.0 -14.0 91.10000000000001 -17.4Q92.20000000000002 -20.8 92.20000000000002 -25.5Q92.20000000000002 -30.700000000000003 91.00000000000001 -34.25Q89.80000000000001 -37.800000000000004 87.55000000000001 -39.7Q85.30000000000001 -41.6 82.10000000000001 -41.6Q79.10000000000001 -41.6 77.0 -39.85Q74.9 -38.1 73.80000000000001 -34.7Q72.70000000000002 -31.3 72.70000000000002 -26.5Q72.70000000000002 -18.900000000000002 75.35000000000002 -14.700000000000001Q78.00000000000001 -10.5 82.70000000000002 -10.5Z M126.20000000000002 0.0 110.30000000000001 -52.800000000000004H127.50000000000001L136.60000000000002 -13.4H137.0L146.5 -52.800000000000004H162.70000000000002L146.8 0.0Z" fill="#FFFFFF"/><path transform="translate(162.20000000000002 0)" d="M3.6 0.0V-27.900000000000002V-70.0H19.8V-56.800000000000004Q19.8 -54.7 19.55 -51.25Q19.3 -47.800000000000004 18.85 -43.900000000000006Q18.400000000000002 -40.0 17.950000000000003 -36.45Q17.5 -32.9 17.2 -30.5H18.1Q19.0 -38.800000000000004 21.200000000000003 -44.050000000000004Q23.400000000000002 -49.300000000000004 27.200000000000003 -51.75Q31.0 -54.2 36.4 -54.2Q44.900000000000006 -54.2 49.0 -48.150000000000006Q53.1 -42.1 53.1 -29.900000000000002V0.0H36.9V-29.200000000000003Q36.9 -34.800000000000004 35.4 -37.400000000000006Q33.9 -40.0 30.5 -40.0Q27.5 -40.0 25.1 -37.75Q22.700000000000003 -35.5 21.25 -30.6Q19.8 -25.700000000000003 19.8 -17.900000000000002V0.0Z M75.4 1.4000000000000001Q66.80000000000001 1.4000000000000001 62.650000000000006 -4.6000000000000005Q58.50000000000001 -10.600000000000001 58.50000000000001 -23.0V-52.800000000000004H74.7V-23.200000000000003Q74.7 -17.400000000000002 76.35 -15.100000000000001Q78.0 -12.8 81.10000000000001 -12.8Q83.30000000000001 -12.8 85.15 -13.950000000000001Q87.0 -15.100000000000001 88.4 -17.450000000000003Q89.80000000000001 -19.8 90.55000000000001 -23.5Q91.30000000000001 -27.200000000000003 91.30000000000001 -32.4V-52.800000000000004H107.5V-23.8V0.0H93.70000000000002V-20.6H93.0Q92.4 -12.9 90.30000000000001 -8.05Q88.20000000000002 -3.2 84.50000000000001 -0.9Q80.80000000000001 1.4000000000000001 75.4 1.4000000000000001Z M145.60000000000002 1.4000000000000001Q141.10000000000002 1.4000000000000001 137.70000000000002 -0.6Q134.3 -2.6 132.05 -6.55Q129.8 -10.5 128.70000000000002 -16.3H128.0V0.0H113.9V-18.6V-70.0H130.10000000000002V-54.5Q130.10000000000002 -51.800000000000004 129.85000000000002 -48.7Q129.60000000000002 -45.6 129.15000000000003 -42.3Q128.70000000000002 -39.0 128.10000000000002 -35.6H129.0Q129.9 -42.2 132.2 -46.300000000000004Q134.5 -50.400000000000006 138.10000000000002 -52.300000000000004Q141.70000000000002 -54.2 146.3 -54.2Q152.20000000000002 -54.2 156.55 -51.2Q160.9 -48.2 163.3 -42.2Q165.70000000000002 -36.2 165.70000000000002 -27.1Q165.70000000000002 -17.400000000000002 163.05 -11.100000000000001Q160.4 -4.800000000000001 155.85000000000002 -1.7000000000000002Q151.3 1.4000000000000001 145.60000000000002 1.4000000000000001ZM139.9 -11.5Q142.9 -11.5 145.0 -13.45Q147.10000000000002 -15.4 148.20000000000002 -18.650000000000002Q149.3 -21.900000000000002 149.3 -25.8Q149.3 -29.700000000000003 148.3 -33.1Q147.3 -36.5 145.20000000000002 -38.6Q143.10000000000002 -40.7 139.9 -40.7Q138.5 -40.7 137.05 -40.2Q135.60000000000002 -39.7 134.35000000000002 -38.650000000000006Q133.10000000000002 -37.6 132.10000000000002 -35.95Q131.10000000000002 -34.300000000000004 130.5 -31.950000000000003Q129.9 -29.6 129.9 -26.6V-25.900000000000002Q129.9 -22.200000000000003 130.75 -19.5Q131.60000000000002 -16.8 133.0 -15.0Q134.4 -13.200000000000001 136.2 -12.350000000000001Q138.0 -11.5 139.9 -11.5Z" fill="#E8A23D"/></g>
<path transform="translate(70.45824999999999 348.15)" d="M3.0625 0.0V-10.9025H0.735V-12.25H3.0625V-13.72Q3.0625 -15.6065 3.92 -16.52525Q4.7775 -17.444 6.517 -17.444Q6.909000000000001 -17.444 7.448 -17.297Q7.987 -17.150000000000002 8.6975 -16.856L8.1585 -15.6065Q7.5215000000000005 -15.851500000000001 7.0927500000000006 -15.974Q6.664000000000001 -16.0965 6.3945 -16.0965Q5.4635 -16.0965 4.997999999999999 -15.5085Q4.5325 -14.9205 4.5325 -13.72V-12.25H8.281V-10.9025H4.5325V0.0Z M11.7575 0.0V-12.25H13.2275V-10.094000000000001Q13.937999999999999 -11.2455 15.113999999999999 -11.77225Q16.29 -12.299000000000001 17.564 -12.299000000000001V-10.951500000000001Q16.486 -10.951500000000001 15.49375 -10.571750000000002Q14.5015 -10.192 13.8645 -9.29775Q13.2275 -8.403500000000001 13.2275 -6.86V0.0Z M26.0385 0.29400000000000004Q24.2745 0.29400000000000004 22.914749999999998 -0.52675Q21.555 -1.3475000000000001 20.78325 -2.793Q20.011499999999998 -4.2385 20.011499999999998 -6.125Q20.011499999999998 -8.0115 20.771 -9.457Q21.5305 -10.9025 22.89025 -11.72325Q24.25 -12.544 25.9895 -12.544Q27.7535 -12.544 29.11325 -11.72325Q30.473 -10.9025 31.232499999999998 -9.457Q31.991999999999997 -8.0115 31.991999999999997 -6.125Q31.991999999999997 -4.2385 31.232499999999998 -2.793Q30.473 -1.3475000000000001 29.1255 -0.52675Q27.778 0.29400000000000004 26.0385 0.29400000000000004ZM26.0385 -1.0535Q27.3615 -1.0535 28.366 -1.7027500000000002Q29.3705 -2.3520000000000003 29.94625 -3.4912500000000004Q30.522 -4.6305000000000005 30.522 -6.125Q30.522 -7.6195 29.94625 -8.75875Q29.3705 -9.898 28.3415 -10.54725Q27.3125 -11.1965 25.9895 -11.1965Q24.6665 -11.1965 23.649749999999997 -10.54725Q22.633 -9.898 22.05725 -8.75875Q21.4815 -7.6195 21.4815 -6.125Q21.4815 -4.6305000000000005 22.069499999999998 -3.4912500000000004Q22.6575 -2.3520000000000003 23.6865 -1.7027500000000002Q24.7155 -1.0535 26.0385 -1.0535Z M36.032 0.0V-12.25H37.403999999999996L37.4775 -10.486Q38.041 -11.4905 38.935249999999996 -12.01725Q39.829499999999996 -12.544 41.03 -12.544Q42.4755 -12.544 43.528999999999996 -11.84575Q44.582499999999996 -11.1475 45.048 -9.702Q45.5625 -11.074 46.55475 -11.809000000000001Q47.547 -12.544 48.967999999999996 -12.544Q50.977000000000004 -12.544 52.189750000000004 -11.172Q53.4025 -9.8 53.378 -7.007000000000001V0.0H51.908V-6.272Q51.908 -8.3055 51.47925 -9.359Q51.0505 -10.4125 50.34 -10.79225Q49.6295 -11.172 48.723 -11.172Q47.1795 -11.172 46.309749999999994 -9.885750000000002Q45.44 -8.5995 45.44 -6.2965V0.0H43.97V-6.272Q43.97 -8.3055 43.54125 -9.359Q43.1125 -10.4125 42.402 -10.79225Q41.6915 -11.172 40.785 -11.172Q39.2415 -11.172 38.37175 -9.885750000000002Q37.501999999999995 -8.5995 37.501999999999995 -6.2965V0.0Z M65.623 0.0V-17.150000000000002H70.8905Q72.50750000000001 -17.150000000000002 73.757 -16.500750000000004Q75.0065 -15.851500000000001 75.70475 -14.712250000000001Q76.403 -13.573 76.403 -12.0785Q76.403 -10.388 75.39850000000001 -9.1385Q74.394 -7.889 72.8015 -7.3500000000000005L77.089 0.0H75.374L71.25800000000001 -7.0315Q71.0865 -7.007000000000001 70.91499999999999 -7.007000000000001Q70.7435 -7.007000000000001 70.572 -7.007000000000001H67.191V0.0ZM67.191 -8.4525H71.307Q72.287 -8.4525 73.08325 -8.918Q73.87950000000001 -9.3835 74.3695 -10.20425Q74.8595 -11.025 74.8595 -12.0785Q74.8595 -13.695500000000001 73.74475 -14.712250000000001Q72.63 -15.729000000000001 70.8905 -15.729000000000001H67.191Z M81.864 0.0V-17.150000000000002H91.7375V-15.729000000000001H83.432V-9.1875H90.9045V-7.766500000000001H83.432V0.0Z M96.1695 0.0V-17.150000000000002H101.437Q103.054 -17.150000000000002 104.3035 -16.47625Q105.553 -15.8025 106.25125 -14.602Q106.9495 -13.4015 106.9495 -11.8335Q106.9495 -10.290000000000001 106.32475 -9.089500000000001Q105.7 -7.889 104.60974999999999 -7.203Q103.5195 -6.517 102.0985 -6.517H97.7375V0.0ZM97.7375 -7.9625H102.0985Q103.544 -7.9625 104.475 -9.040500000000002Q105.40599999999999 -10.118500000000001 105.40599999999999 -11.8335Q105.40599999999999 -13.573 104.29124999999999 -14.651Q103.1765 -15.729000000000001 101.437 -15.729000000000001H97.7375Z M122.2815 0.29400000000000004Q120.591 0.29400000000000004 119.6355 -0.6002500000000001Q118.67999999999999 -1.4945000000000002 118.67999999999999 -3.136V-10.9025H116.49949999999998V-12.25H118.67999999999999V-16.072H120.14999999999999V-12.25H124.04549999999999V-10.9025H120.14999999999999V-3.136Q120.14999999999999 -2.156 120.71349999999998 -1.6047500000000001Q121.27699999999999 -1.0535 122.2815 -1.0535Q122.57549999999999 -1.0535 122.85725 -1.13925Q123.13899999999998 -1.225 123.67799999999998 -1.5925L124.2905 -0.3185Q123.62899999999999 0.07350000000000001 123.18799999999999 0.18375000000000002Q122.74699999999999 0.29400000000000004 122.2815 0.29400000000000004Z M133.255 0.29400000000000004Q131.49099999999999 0.29400000000000004 130.13124999999997 -0.52675Q128.77149999999997 -1.3475000000000001 127.99974999999998 -2.793Q127.228 -4.2385 127.228 -6.125Q127.228 -8.0115 127.98749999999998 -9.457Q128.74699999999999 -10.9025 130.10674999999998 -11.72325Q131.4665 -12.544 133.206 -12.544Q134.97 -12.544 136.32975 -11.72325Q137.68949999999998 -10.9025 138.44899999999998 -9.457Q139.2085 -8.0115 139.2085 -6.125Q139.2085 -4.2385 138.44899999999998 -2.793Q137.68949999999998 -1.3475000000000001 136.34199999999998 -0.52675Q134.9945 0.29400000000000004 133.255 0.29400000000000004ZM133.255 -1.0535Q134.57799999999997 -1.0535 135.58249999999998 -1.7027500000000002Q136.587 -2.3520000000000003 137.16275 -3.4912500000000004Q137.7385 -4.6305000000000005 137.7385 -6.125Q137.7385 -7.6195 137.16275 -8.75875Q136.587 -9.898 135.558 -10.54725Q134.529 -11.1965 133.206 -11.1965Q131.88299999999998 -11.1965 130.86624999999998 -10.54725Q129.84949999999998 -9.898 129.27374999999998 -8.75875Q128.69799999999998 -7.6195 128.69799999999998 -6.125Q128.69799999999998 -4.6305000000000005 129.286 -3.4912500000000004Q129.874 -2.3520000000000003 130.903 -1.7027500000000002Q131.932 -1.0535 133.255 -1.0535Z M150.4735 0.0V-12.25H151.9435V-10.094000000000001Q152.654 -11.2455 153.82999999999998 -11.77225Q155.006 -12.299000000000001 156.28 -12.299000000000001V-10.951500000000001Q155.202 -10.951500000000001 154.20974999999999 -10.571750000000002Q153.2175 -10.192 152.5805 -9.29775Q151.9435 -8.403500000000001 151.9435 -6.86V0.0Z M164.7545 0.29400000000000004Q162.9905 0.29400000000000004 161.63074999999998 -0.52675Q160.271 -1.3475000000000001 159.49925 -2.793Q158.7275 -4.2385 158.7275 -6.125Q158.7275 -8.0115 159.487 -9.457Q160.2465 -10.9025 161.58175 -11.72325Q162.917 -12.544 164.632 -12.544Q166.3715 -12.544 167.58425 -11.69875Q168.797 -10.8535 169.434 -9.37125Q170.071 -7.889 170.071 -5.9535H160.173Q160.2955 -3.6260000000000003 161.53275000000002 -2.3397500000000004Q162.77 -1.0535 164.7545 -1.0535Q166.1755 -1.0535 167.16775 -1.7517500000000001Q168.16 -2.45 168.7235 -3.5525L169.9485 -2.793Q169.483 -1.8865 168.73575 -1.18825Q167.9885 -0.49 166.98399999999998 -0.09799999999999998Q165.9795 0.29400000000000004 164.7545 0.29400000000000004ZM160.32 -7.301H168.4785Q168.405 -8.477 167.91500000000002 -9.34675Q167.425 -10.2165 166.592 -10.7065Q165.75900000000001 -11.1965 164.632 -11.1965Q163.5295 -11.1965 162.574 -10.7065Q161.6185 -10.2165 161.01825000000002 -9.3345Q160.418 -8.4525 160.32 -7.301Z M177.7125 0.29400000000000004Q175.5565 0.29400000000000004 174.34375 -0.69825Q173.131 -1.6905000000000001 173.131 -3.4545000000000003Q173.131 -5.2675 174.34375 -6.272Q175.5565 -7.2765 177.7125 -7.2765H181.3385Q181.2405 -9.2365 180.43200000000002 -10.2165Q179.6235 -11.1965 177.9575 -11.1965Q176.85500000000002 -11.1965 176.10775 -10.755500000000001Q175.3605 -10.3145 174.87050000000002 -9.3835L173.5475 -9.9715Q174.062 -10.8535 174.71125 -11.417000000000002Q175.3605 -11.980500000000001 176.169 -12.262250000000002Q176.97750000000002 -12.544 177.9575 -12.544Q179.59900000000002 -12.544 180.67700000000002 -11.8825Q181.755 -11.221 182.29399999999998 -9.898Q182.833 -8.575000000000001 182.833 -6.566V0.0H181.4855L181.363 -1.715Q180.79950000000002 -0.7595000000000001 179.8685 -0.23275Q178.9375 0.29400000000000004 177.7125 0.29400000000000004ZM177.61450000000002 -1.0535Q178.7905 -1.0535 179.63575 -1.53125Q180.481 -2.009 180.922 -2.94Q181.363 -3.871 181.363 -5.243V-5.929H177.9085Q176.14450000000002 -5.929 175.37275 -5.27975Q174.601 -4.6305000000000005 174.601 -3.4545000000000003Q174.601 -2.3275 175.39724999999999 -1.6905000000000001Q176.1935 -1.0535 177.61450000000002 -1.0535Z M192.04250000000002 0.29400000000000004Q190.42550000000003 0.29400000000000004 189.17600000000004 -0.52675Q187.92650000000003 -1.3475000000000001 187.216 -2.80525Q186.5055 -4.263 186.5055 -6.125Q186.5055 -8.0115 187.216 -9.457Q187.92650000000003 -10.9025 189.17600000000004 -11.72325Q190.42550000000003 -12.544 192.04250000000002 -12.544Q193.43900000000002 -12.544 194.55375000000004 -11.87025Q195.66850000000002 -11.1965 196.35450000000003 -10.0205V-17.150000000000002H197.82450000000003V0.0H196.42800000000003L196.35450000000003 -2.2295000000000003Q195.66850000000002 -1.0535 194.55375000000004 -0.37975000000000003Q193.43900000000002 0.29400000000000004 192.04250000000002 0.29400000000000004ZM192.33650000000003 -1.0290000000000001Q193.51250000000002 -1.0290000000000001 194.41900000000004 -1.6782500000000002Q195.32550000000003 -2.3275 195.84000000000003 -3.479Q196.35450000000003 -4.6305000000000005 196.35450000000003 -6.1005V-6.125Q196.35450000000003 -7.6195 195.84000000000003 -8.771Q195.32550000000003 -9.922500000000001 194.41900000000004 -10.571750000000002Q193.51250000000002 -11.221 192.312 -11.221Q191.038 -11.221 190.05800000000002 -10.571750000000002Q189.07800000000003 -9.922500000000001 188.52675000000002 -8.771Q187.9755 -7.6195 187.9755 -6.125Q187.9755 -4.6305000000000005 188.53900000000002 -3.479Q189.10250000000002 -2.3275 190.08250000000004 -1.6782500000000002Q191.06250000000003 -1.0290000000000001 192.33650000000003 -1.0290000000000001Z M203.18750000000003 5.194Q202.79550000000003 5.194 202.25650000000002 5.047000000000001Q201.71750000000003 4.9 201.00700000000003 4.606L201.54600000000002 3.3565Q202.18300000000002 3.6015 202.62400000000002 3.724Q203.06500000000003 3.8465000000000003 203.31000000000003 3.8465000000000003Q204.02050000000003 3.8465000000000003 204.47375000000002 3.4545000000000003Q204.92700000000002 3.0625 205.22100000000003 2.3765L206.20100000000002 0.0L201.03150000000002 -12.25H202.55050000000003L206.96050000000002 -1.764L211.39500000000004 -12.25H212.93850000000003L206.93600000000004 1.96Q206.49500000000003 2.9890000000000003 206.01725000000005 3.7117500000000003Q205.53950000000003 4.4345 204.86575000000005 4.8142499999999995Q204.19200000000004 5.194 203.18750000000003 5.194Z" fill="#C7D6EC"/>
</svg>